<svg version="1.2" xmlns="http://www.w3.org/2000/svg" viewBox="0 0 138 170" width="138" height="170">
	<title>3_flat</title>
	<style>
		.s0 { fill: #000000 } 
	</style>
	<path id="3_flat" fill-rule="evenodd" class="s0" d="m68.5 0.1c54.2 0 57.4 0 57.9 0.3 0.4 0.2 0.8 0.6 0.9 0.9 0.3 0.5 0.3 2.7 0.3 16.5 0 13.4 0 16.1-0.3 16.5-0.1 0.3-0.5 0.8-0.8 1-0.2 0.3-11.2 8-48.2 33.9l2.6 0.2c1.4 0 3.8 0.1 5.2 0.2 1.4 0.1 2.8 0.1 3 0.2 0.3 0 1.1 0.1 1.8 0.2 0.7 0 2.2 0.2 3.2 0.4 1.1 0.1 3.1 0.5 4.4 0.7 1.3 0.3 3.3 0.7 4.3 1 1.1 0.3 2.7 0.8 3.6 1.1 0.9 0.3 2.7 1.1 4 1.6 1.3 0.6 3.4 1.6 4.6 2.2 1.3 0.7 3.2 1.8 4.2 2.5 1 0.7 2.6 1.9 3.6 2.7 1 0.8 2.5 2.3 3.4 3.2 0.9 1 2.1 2.4 2.7 3.2 0.6 0.7 1.5 2.1 2.1 3 0.5 0.9 1.3 2.3 1.7 3.1 0.4 0.7 1.1 2.3 1.5 3.5 0.5 1.1 1.1 2.8 1.4 3.7 0.3 0.8 0.7 2.4 0.9 3.5 0.3 1.1 0.6 2.8 0.8 4 0.2 1.1 0.4 2.7 0.4 3.6 0.1 0.8 0.2 2.8 0.2 4.3 0 1.5-0.1 3.6-0.2 4.6-0.1 1-0.2 2.2-0.2 2.5-0.1 0.4-0.2 1.5-0.4 2.5-0.2 1-0.5 2.8-0.8 4-0.3 1.2-0.8 2.8-1.1 3.7-0.3 0.9-0.8 2.3-1.2 3.2-0.4 0.9-1 2.2-1.3 2.8-0.3 0.6-1 1.9-1.6 3-0.7 1-1.6 2.4-2.1 3.1-0.5 0.7-1.4 1.9-2 2.6-0.6 0.7-1.6 1.8-2.3 2.5-0.6 0.6-1.8 1.8-2.7 2.6-1 0.8-2.5 2-3.6 2.7-1 0.8-2.7 1.9-3.8 2.6-1.2 0.7-3.3 1.8-4.8 2.5-1.6 0.8-3.5 1.6-4.4 2-0.9 0.3-1.9 0.7-2.2 0.8-0.4 0.2-1.6 0.6-2.8 0.9-1.2 0.4-3.1 0.9-4.4 1.2-1.3 0.3-3.5 0.8-4.9 1-1.4 0.3-3.6 0.6-4.8 0.8-1.2 0.2-2.5 0.3-2.7 0.4-0.3 0-1.2 0.1-2.1 0.2-0.9 0-1.9 0.1-2.1 0.2-0.2 0-1.4 0.1-2.7 0.2-1.4 0-5.2 0.1-8.5 0.1-3.4 0-7.3-0.1-8.6-0.1-1.4-0.1-2.9-0.2-3.4-0.3-0.4 0-1.3-0.1-1.8-0.1-0.6-0.1-1.5-0.2-2-0.2-0.5-0.1-2.1-0.3-3.6-0.5-1.4-0.2-4.1-0.7-5.8-1-1.7-0.4-4.4-1.1-6-1.5-1.6-0.5-4.2-1.4-5.9-2.1-1.7-0.6-4-1.6-5.1-2.2-1.1-0.6-2.9-1.5-3.9-2.1-1-0.6-2.3-1.5-2.8-1.9-0.6-0.4-1.8-1.3-2.6-2.1-0.9-0.7-2.1-1.8-2.7-2.5-0.7-0.6-1.8-1.9-2.5-2.7-0.7-0.9-2-2.5-2.8-3.7-0.8-1.2-1.8-2.8-2.2-3.7-0.5-0.9-1.3-2.5-1.7-3.7-0.5-1.2-1.2-3.1-1.5-4.3-0.4-1.1-0.9-3.1-1.1-4.4-0.3-1.3-0.6-3.3-0.8-4.5-0.1-1.3-0.3-2.5-0.3-2.9-0.1-0.4-0.2-1.5-0.2-2.6-0.2-1.8-0.1-2 0.3-2.6 0.2-0.3 0.6-0.7 0.9-0.8 0.2-0.2 7.7-2 16.6-4.2 9-2.1 16.6-3.8 16.9-3.8 0.5 0 0.8 0.1 1.2 0.5 0.4 0.3 0.7 0.8 0.8 1.2 0 0.4 0.1 1.3 0.1 2 0 0.6 0.1 1.7 0.1 2.3 0.1 0.6 0.3 1.9 0.5 2.8 0.2 1 0.6 2.4 0.8 3.3 0.3 0.8 0.9 2.1 1.3 2.9 0.5 0.8 1.2 2.1 1.7 2.8 0.5 0.7 1.6 1.9 2.3 2.6 0.8 0.8 2.1 1.9 3 2.5 1 0.6 2.4 1.5 3.3 1.9 0.8 0.5 2.2 1.1 3 1.4 0.8 0.3 2.3 0.8 3.3 1 0.9 0.3 2.5 0.6 3.4 0.7 0.9 0.2 2.3 0.4 3.1 0.5 0.8 0 3.2 0.1 5.3 0.1 2.1 0 4.5-0.1 5.4-0.1 0.8-0.1 2.2-0.3 3.1-0.5 0.9-0.1 2.4-0.4 3.3-0.7 1-0.2 2.4-0.6 3.2-0.9 0.7-0.3 2.1-0.9 3-1.4 0.9-0.4 2.3-1.3 3.1-1.9 0.7-0.5 1.9-1.5 2.5-2.2 0.6-0.6 1.6-1.8 2.1-2.6 0.5-0.8 1.1-1.9 1.4-2.4 0.2-0.5 0.6-1.5 0.8-2.2 0.2-0.6 0.5-1.8 0.7-2.6 0.3-1.1 0.3-2.4 0.3-4.9 0-2.4-0.1-3.7-0.3-4.9-0.2-0.8-0.5-2-0.7-2.6-0.2-0.6-0.7-1.7-1-2.4-0.3-0.7-1-1.9-1.4-2.5-0.5-0.7-1.4-1.9-2.2-2.7-0.8-0.8-2-1.9-2.7-2.4-0.7-0.5-2-1.4-2.8-1.9-0.9-0.5-2-1.1-2.5-1.4-0.6-0.2-1.6-0.6-2.4-1-0.9-0.3-2.2-0.8-3.1-1-0.9-0.3-2.2-0.7-3-0.9-0.9-0.2-2.4-0.5-3.5-0.7-1-0.2-3-0.5-4.2-0.7-1.3-0.2-2.7-0.3-3.1-0.4-0.4 0-1.6-0.1-2.7-0.2-1.2-0.1-5-0.1-8.5-0.1-3.5 0-7.3 0-8.6 0.1-1.2 0.1-2.5 0.2-3 0.2-0.5 0.1-1.6 0.2-2.6 0.2-1 0.1-1.9 0.2-2.1 0.2-0.2 0.1-0.9 0.1-1.5 0.1-0.7 0-1.3-0.1-1.7-0.3-0.3-0.1-0.7-0.5-0.9-0.8-0.2-0.5-0.3-2.1-0.3-11.2 0-10.4 0-10.7 0.4-11.3 0.2-0.4 0.7-0.9 1.2-1.2 0.4-0.3 11.4-7.8 47.9-32.6l-12.5-0.1c-6.9-0.1-22.7 0-35.1 0-12.5 0.1-23.1 0.1-23.7 0.1-0.8-0.1-1.1-0.3-2.2-1.4v-30.3l0.5-0.6c0.3-0.3 0.8-0.6 1.2-0.7 0.3-0.1 26.4-0.1 57.9-0.1zm-55.3 28.8c71.5-0.1 74.6-0.1 75.2 0.2 0.3 0.2 0.7 0.5 0.8 0.9 0.2 0.3 0.3 1 0.3 1.7q0 1.1-0.3 1.7c-0.3 0.4-8.4 6-26.2 18.1l-25.8 17.6v17.2c0.9-0.1 1.9-0.2 2.8-0.2 0.8-0.1 1.9-0.2 2.5-0.2 0.5-0.1 2-0.2 3.5-0.2 1.4-0.1 4.9-0.2 7.7-0.2 2.9 0 6.3 0.1 7.7 0.2 1.4 0 2.8 0.1 3.2 0.2 0.4 0 1.2 0.1 1.6 0.2 0.5 0 1.8 0.2 3 0.3 1.1 0.2 3.1 0.5 4.4 0.8 1.3 0.2 3.2 0.7 4.4 1 1.1 0.3 3.2 0.9 4.6 1.5 1.4 0.5 3.4 1.4 4.5 1.9 1.1 0.6 2.7 1.5 3.5 2.1 1 0.6 2.6 2 4 3.5 1.4 1.3 2.8 2.9 3.3 3.7 0.4 0.7 1.1 1.9 1.5 2.6 0.4 0.8 0.9 2.1 1.2 3 0.3 0.9 0.6 2.2 0.8 3 0.2 0.7 0.4 2.3 0.5 3.6 0.1 1.2 0.2 3 0.1 4-0.1 1-0.2 2.2-0.2 2.5-0.1 0.4-0.2 1.3-0.4 2.1-0.1 0.9-0.5 2.1-0.7 2.8-0.2 0.7-0.7 1.9-1 2.6-0.3 0.7-1.1 2-1.6 2.8-0.6 0.9-1.7 2.3-2.6 3.2-0.9 1-2.1 2.1-2.8 2.6-0.6 0.5-1.6 1.2-2.4 1.7-0.7 0.4-2.1 1.1-3.1 1.6-1 0.4-2.8 1.1-4 1.4-1.1 0.4-3.4 0.9-5 1.1-1.5 0.3-3.8 0.6-5 0.6-1.1 0.1-3.2 0.2-4.6 0.2-1.4 0-3.3-0.1-4.3-0.2-1-0.1-2.2-0.2-2.5-0.2-0.4-0.1-1.3-0.2-2-0.3-0.7-0.1-2.1-0.4-3.2-0.6-1.1-0.3-2.6-0.7-3.5-1-0.9-0.4-2.3-0.9-3.1-1.3-0.8-0.3-1.9-0.9-2.5-1.2-0.5-0.3-1.6-1-2.3-1.4-0.7-0.5-1.9-1.5-2.7-2.2-0.8-0.7-2-1.9-2.6-2.6-0.7-0.8-1.5-1.9-1.9-2.5-0.4-0.6-1.1-1.8-1.6-2.7-0.4-0.9-1-2.4-1.3-3.4-0.4-1-0.8-2.9-1-4.2-0.3-1.3-0.4-2.7-0.5-3.3 0-0.5-0.1-0.9-0.2-0.9-0.1-0.1-6.5 1.5-14.3 3.3l-14 3.4q0.1 1.7 0.2 2.7c0.1 0.7 0.3 2.2 0.5 3.5 0.2 1.3 0.6 3.3 0.9 4.5 0.3 1.3 0.9 3.2 1.3 4.5 0.4 1.2 1.2 3.1 1.8 4.2 0.6 1.1 1.5 2.8 2.1 3.7 0.6 0.9 1.5 2.2 2 2.8 0.4 0.6 1.5 1.8 2.3 2.8 0.8 0.9 2.2 2.2 3.1 3 1 0.8 2.6 2 3.7 2.7 1 0.7 2.7 1.7 3.7 2.2 1.1 0.6 2.8 1.4 3.8 1.9 1.1 0.4 3.1 1.2 4.4 1.6 1.3 0.5 3.6 1.2 5.2 1.6 1.5 0.4 3.7 0.9 4.9 1.2 1.3 0.2 3.5 0.6 4.9 0.8 1.5 0.2 3.3 0.4 3.9 0.5 0.7 0.1 1.6 0.1 2.1 0.2 0.4 0 1.6 0.1 2.5 0.2 1 0.1 5.3 0.1 9.5 0.1 4.2 0 8.6 0 9.8-0.1 1.1-0.1 2.3-0.2 2.5-0.2 0.2-0.1 0.9-0.1 1.6-0.2 0.7-0.1 2.3-0.2 3.5-0.4 1.1-0.1 3-0.4 4.2-0.6 1.2-0.2 3.3-0.7 4.8-1 1.5-0.4 3.9-1 5.3-1.5 1.4-0.4 3.1-1 3.6-1.2 0.6-0.2 2-0.8 3-1.2 1-0.5 2.7-1.3 3.6-1.8 1-0.5 2.5-1.4 3.3-1.9 0.8-0.5 2.2-1.4 3-2 0.9-0.6 2.4-1.9 3.4-2.7 1.1-0.9 2.6-2.4 3.4-3.4 0.8-0.9 2-2.3 2.5-3.1 0.6-0.8 1.4-2 1.9-2.8 0.4-0.7 1.4-2.5 2-3.9 0.7-1.3 1.6-3.5 2-4.8 0.4-1.2 0.9-2.9 1.1-3.8 0.2-0.8 0.5-2.2 0.6-3.2 0.2-1 0.4-2.4 0.4-3.2 0.1-0.8 0.2-3.2 0.2-5.2 0-2-0.1-4.3-0.1-5.1-0.1-0.8-0.3-1.9-0.4-2.6-0.1-0.6-0.3-1.9-0.5-2.8-0.2-1-0.6-2.4-0.8-3.2-0.3-0.8-0.6-1.9-0.9-2.5-0.2-0.5-0.6-1.7-1-2.5-0.3-0.8-1-2.1-1.4-2.9-0.4-0.8-1.2-2.2-1.8-3-0.5-0.8-1.5-2.1-2.1-3-0.7-0.8-1.9-2-2.7-2.8-0.8-0.8-2.2-1.9-3.1-2.6-0.9-0.7-2.4-1.7-3.3-2.3-0.9-0.6-2.8-1.6-4.3-2.3-1.4-0.7-3.1-1.5-3.8-1.8-0.6-0.3-2.3-0.8-3.7-1.3-1.5-0.4-3.6-1-4.7-1.3-1.1-0.2-3-0.6-4.2-0.8-1.2-0.2-2.8-0.4-3.4-0.5-0.7 0-1.5-0.1-1.9-0.2-0.3 0-1.4-0.1-2.4-0.2-1 0-4.5-0.1-7.9-0.1-3.8 0-6.2-0.1-6.4-0.2-0.2-0.1-0.6-0.5-0.8-0.8-0.4-0.4-0.4-0.7-0.4-2 0-1.1 0-1.6 0.3-1.9 0.2-0.3 11.9-8.6 25.9-18.4l25.5-18v-28.1h-110.1z"/>
</svg>