<svg version="1.2" xmlns="http://www.w3.org/2000/svg" viewBox="0 0 170 170" width="170" height="170">
	<title>tag_flat</title>
	<style>
		.s0 { opacity: 1;fill: #000000 } 
	</style>
	<path id="tag_flat" fill-rule="evenodd" class="s0" d="m27.2 0.1c1.2 0 2.8 0.2 3.5 0.4 0.7 0.1 2.1 0.7 3.1 1.2 1 0.4 2 1 2.3 1.3 0.3 0.2 1 0.9 1.6 1.4 0.5 0.6 1.4 1.5 2 2.1 0.5 0.6 1.3 1.9 1.8 2.8 0.5 1 1 2.5 1.3 3.4 0.3 1.1 0.4 2.6 0.5 5 0.1 1.9 0.2 5.1 0.2 7 0 3.2 0.1 3.6 0.4 3.9 0.3 0.3 1.4 0.3 10.1 0.1 5.3 0 12.2-0.1 15.2-0.1 5.2 0 5.5-0.1 5.9-0.4 0.3-0.4 0.4-0.7 0.4-3.5 0-1.7 0.1-4.4 0.2-5.9 0.1-1.5 0.2-2.9 0.2-3 0.1-0.2 0.5-0.5 1-0.8 0.5-0.2 1.1-0.4 1.4-0.4 0.2 0 0.7 0.2 1.1 0.4 0.3 0.2 0.7 0.5 0.8 0.8 0.1 0.2 0.3 2.8 0.5 5.8 0.1 3 0.3 5.6 0.3 5.8 0 0.2 0.2 0.6 0.4 0.8 0.5 0.4 0.7 0.4 6.1 0.4 4.3 0 5.7-0.1 6-0.3 0.2-0.2 0.3-1.5 0.5-12.4l0.8-0.6c0.5-0.4 0.9-0.5 1.5-0.5 0.5 0 1.1 0.1 1.3 0.2 0.2 0.1 0.6 0.4 0.9 0.7 0.4 0.5 0.4 0.8 0.6 6.5 0.1 3.6 0.2 6.1 0.3 6.2 0.1 0.1 2.8 0.2 6.1 0.3 5 0.1 5.8 0.1 6.1-0.1 0.3-0.3 0.4-0.8 0.3-4.7 0-2.3 0.1-5 0.2-5.9 0.1-0.9 0.4-1.9 0.6-2.2 0.2-0.4 0.5-0.7 0.8-0.8 0.3-0.1 0.7-0.2 0.9-0.2 0.2-0.1 0.6-0.1 0.8-0.1 0.3 0.1 0.8 0.4 2.1 1.7v5.9c0 4.2 0 5.9 0.2 6.1 0.2 0.3 1 0.5 2.6 0.9 1.3 0.2 3.1 0.7 4 1 0.8 0.3 2.2 0.8 3.1 1.2 0.9 0.4 2 1.1 2.6 1.4 0.5 0.4 1.1 0.8 1.2 0.9 0.1 0.1 0.5 0.4 0.8 0.7 0.4 0.3 1.3 1.2 2.2 2 0.8 0.8 1.7 1.8 2 2.2 0.3 0.3 0.7 0.9 0.9 1.3 0.3 0.4 1 1.6 1.5 2.7 0.5 1 1.1 2.2 1.3 2.6 0.2 0.4 0.6 0.9 0.9 1 0.5 0.3 2 0.5 6.9 0.9 3.5 0.3 6.9 0.5 7.6 0.6 0.7 0 3 0.2 5 0.4 2.1 0.2 4.8 0.4 6 0.6 1.5 0.2 2.5 0.4 2.8 0.6 0.3 0.2 0.6 0.7 0.8 1 0.2 0.5 0.3 2.4 0.3 13.6 0 10.1-0.1 13.3-0.3 13.7-0.1 0.3-0.5 0.8-0.9 1-0.5 0.3-1.4 0.6-2.6 0.8-0.9 0.2-3.5 0.4-5.6 0.6-2.1 0.2-5.7 0.5-8.1 0.7-2.3 0.2-5.8 0.5-7.8 0.7-2 0.2-3.9 0.4-4.2 0.5-0.4 0.1-0.8 0.9-1.9 2.9-0.7 1.5-1.7 3.2-2.1 3.8-0.5 0.6-1.6 1.8-2.5 2.7-0.9 1-2.3 2.2-3.2 2.8-0.8 0.7-2 1.5-2.8 1.8-0.8 0.4-2 1-2.9 1.3-0.8 0.2-2.3 0.7-3.3 1-1.2 0.3-2.9 0.5-4.7 0.6-1.6 0.1-6.4 0.3-10.6 0.3-5.5 0.1-7.7 0.2-7.9 0.4-0.1 0.1-0.5 1.6-0.8 3.2-0.4 1.6-1 3.7-1.3 4.7-0.3 1-1 2.8-1.6 4-0.6 1.1-1.2 2.3-1.5 2.6-0.2 0.3-0.7 0.9-1.1 1.4-0.4 0.4-1.3 1.3-1.9 1.9-0.7 0.7-1.3 1.3-1.5 1.4-0.2 0.2-0.6 0.5-0.9 0.8-0.3 0.2-1.3 0.7-2.2 1.2-0.9 0.4-2.3 1-3.1 1.3-0.9 0.3-2.3 0.5-3.8 0.7-1.3 0.1-3.9 0.2-5.7 0.3-1.8 0.1-3.6 0.2-3.9 0.3-0.5 0.3-0.6 0.6-1.4 3-0.5 1.6-1.5 4.8-2.3 7.3-0.7 2.5-1.8 6-3.2 11.1l0.4 2.1c0.3 1.2 0.8 3.5 1.2 5.1 0.5 2 0.7 3.5 0.8 5.1 0 1.7 0 2.5-0.3 3.5-0.1 0.7-0.5 1.9-0.9 2.5-0.3 0.7-1 1.8-1.6 2.5-0.5 0.7-1.5 1.6-2.3 2.1-0.7 0.5-2 1.2-4.6 2.3h-12.1c-10.1-0.1-12.2-0.1-13.5-0.4-0.8-0.2-2.2-0.7-3.2-1.2-1-0.4-2.2-1.2-2.8-1.6-0.5-0.4-1.7-1.6-2.6-2.6-1-1-1.8-1.9-1.9-2-0.1-0.2-0.5-0.8-0.9-1.4-0.3-0.6-0.8-1.6-1-2.3-0.3-0.7-0.7-2-0.8-2.8-0.2-0.8-0.4-2.4-0.5-3.5-0.2-1.4-0.2-2.6-0.1-3.8 0.2-1 0.5-2.8 0.8-4 0.3-1.2 1.1-3.9 1.8-6 0.6-2.2 2.6-8.6 4.4-14.4 1.8-5.8 4.3-13.8 5.6-17.8 1.3-3.9 2.4-7.4 2.5-7.8 0.2-0.5 0.2-0.7-0.1-1-0.2-0.2-0.8-0.5-1.5-0.7-0.6-0.2-1.8-0.6-2.6-0.9-0.8-0.2-2.6-1-3.9-1.6-1.3-0.6-3-1.4-3.9-1.9-0.9-0.5-2.3-1.4-3.3-2-0.9-0.6-1.8-1.3-1.9-1.4-0.2-0.2-0.8-0.7-1.3-1.1-0.5-0.4-1.8-1.7-2.9-2.8-1.1-1.1-2.3-2.3-2.6-2.7-0.4-0.4-0.8-1-1.1-1.4-0.3-0.3-0.9-1.2-1.4-2-0.4-0.7-1.1-2-1.5-2.7-0.3-0.8-0.9-2.2-1.2-3.2-0.4-1-0.8-2.6-1.1-3.6-0.2-1.1-0.4-3-0.5-4.4 0-1.7 0-3.1 0.2-4.6 0.2-1.2 0.6-3.1 1-4.2 0.3-1.2 1-3.1 1.6-4.3 0.6-1.2 1.5-2.9 2.1-3.7 0.5-0.9 1.3-1.9 1.5-2.3 0.3-0.4 1.5-1.6 2.7-2.7 1.1-1.2 2.8-2.7 3.7-3.3 0.8-0.7 2.3-1.8 3.3-2.4 0.9-0.6 2.5-1.5 3.4-1.9 0.9-0.5 2.9-1.4 4.3-2 1.5-0.6 3.6-1.3 4.7-1.6 1-0.4 3.5-1 5.4-1.4 1.9-0.4 3.6-0.8 4.3-1.2v-14.6l-0.5-1.3c-0.3-0.6-0.9-1.7-1.3-2.4-0.5-0.6-1.1-1.5-1.4-1.8-0.4-0.4-1.3-1.1-2.1-1.7-0.8-0.6-1.9-1.2-2.4-1.4-0.7-0.3-1.5-0.4-6.6-0.4l-1.6 0.8c-1 0.5-2 1.2-3 2.3-0.9 0.8-1.8 1.9-2.2 2.7-0.4 0.7-0.9 1.9-1.1 2.6-0.2 0.7-0.3 2-0.3 2.8 0 0.9 0.1 2.1 0.2 2.7 0.2 0.6 0.6 1.7 0.9 2.5 0.6 1.1 1.1 1.9 2.5 3.3 1.1 1.1 1.8 2 1.9 2.4 0 0.3 0 0.9-0.1 1.4-0.2 0.6-0.4 1-0.9 1.2-0.3 0.3-0.9 0.4-1.4 0.4-0.4 0-1-0.1-1.3-0.3-0.4-0.2-0.9-0.5-1.2-0.7-0.4-0.3-1-0.8-1.4-1.3-0.5-0.5-0.9-1-1-1.1-0.1-0.1-0.6-0.8-1.1-1.5-0.4-0.7-1-1.8-1.2-2.4-0.2-0.6-0.6-1.6-0.7-2.3-0.3-0.9-0.4-2.1-0.4-4.3 0.1-2.6 0.1-3.1 0.6-4.6 0.3-0.9 0.9-2.3 1.2-3.1 0.4-0.7 1-1.7 1.4-2.2 0.4-0.5 1.2-1.4 1.8-2.1 0.7-0.6 1.7-1.6 2.3-2.1 0.7-0.5 1.7-1.1 2.2-1.4 0.6-0.3 1.7-0.7 2.5-0.9 0.8-0.2 1.6-0.4 1.9-0.5 0.3 0 1.5-0.1 2.8 0zm11.8 35.3c-1.2 0.1-3.6 0.6-5.1 1-1.6 0.3-3.8 0.9-4.9 1.3-1 0.4-3.1 1.2-4.5 1.9-1.4 0.6-3.2 1.5-4 2-0.8 0.4-2.2 1.3-3 1.8-0.8 0.5-1.6 1.1-1.8 1.2-0.1 0.2-1.3 1.3-2.6 2.6-1.3 1.3-2.6 2.6-2.8 2.9-0.2 0.3-0.5 0.7-0.7 0.9-0.1 0.3-0.4 0.7-0.6 0.9-0.2 0.2-0.8 1.2-1.2 2.2-0.5 1-1.1 2.3-1.3 3.1-0.2 0.7-0.6 1.9-0.7 2.6-0.2 0.8-0.4 2.3-0.4 3.5-0.1 1.2-0.1 2.6 0.1 3.5 0.1 0.8 0.5 2.3 0.8 3.3 0.3 0.9 0.9 2.4 1.3 3.1 0.3 0.8 1 2 1.5 2.8 0.4 0.8 1 1.7 1.3 2 0.3 0.4 1 1.2 1.6 1.9 0.6 0.6 1.2 1.3 1.4 1.5 0.2 0.1 0.7 0.6 1.2 1.1 0.5 0.4 1.2 1 1.5 1.3 0.4 0.2 0.7 0.5 0.9 0.7 0.1 0.1 0.6 0.4 1.1 0.8 0.5 0.3 2 1.2 3.3 1.9 1.3 0.7 3.3 1.8 4.6 2.3q2.3 1 5.7 1.9c1.9 0.5 4.8 1 6.5 1.2 1.7 0.3 5 0.5 7.3 0.6 2.3 0.1 8.9 0.3 14.5 0.3 5.6 0.1 19.4 0.2 30.6 0.2 13 0 21.6-0.1 23.7-0.3 1.8-0.1 4.1-0.3 5-0.5 1-0.2 2.6-0.6 3.6-0.9 1-0.3 2.1-0.8 2.6-1.1 0.5-0.3 1.5-0.9 2.3-1.4 0.7-0.5 1.8-1.4 2.4-1.9 0.6-0.5 1.4-1.3 1.7-1.8 0.3-0.4 0.9-1.5 1.4-2.3 0.5-0.9 1.2-2.4 1.5-3.4 0.4-1.3 0.7-2.4 0.8-4 0.1-1.3 0.2-6.7 0.2-12.1 0-5.3-0.1-10.7-0.2-11.9-0.1-1.6-0.4-2.7-0.9-4.4-0.4-1.3-1.2-2.9-1.7-3.8-0.5-0.8-1.3-1.9-1.7-2.5-0.5-0.6-1.4-1.5-2-2-0.7-0.5-1.4-1-1.6-1.2-0.3-0.2-1.4-0.8-2.5-1.4-1-0.5-2.6-1.1-3.4-1.3-0.8-0.3-2.6-0.5-3.9-0.6-1.3-0.1-6.4-0.3-11.4-0.4-5-0.1-20.2-0.2-33.9-0.2-22.2 0-25.2 0.1-28.1 0.4-1.8 0.2-4.3 0.5-5.5 0.7zm102 18.3c0.1 0.2 0.1 5.1 0.1 10.9 0 9.7 0 10.5 0.4 10.8 0.3 0.3 0.7 0.3 3.5 0.2 1.7-0.1 5.8-0.3 9-0.6 3.3-0.3 6.9-0.6 8.1-0.7 1.5-0.1 2.3-0.3 2.5-0.5 0.2-0.3 0.3-1.6 0.3-9.2 0.1-4.9 0-9.1 0-9.4-0.1-0.2-0.4-0.5-0.7-0.7-0.3-0.1-1.5-0.4-2.7-0.5-1.2-0.1-3.7-0.3-5.6-0.5-1.9-0.2-5.8-0.5-8.7-0.7-2.9-0.2-5.3-0.4-5.4-0.4 0 0-0.3 0.2-0.5 0.4-0.2 0.3-0.4 0.6-0.3 0.9zm-105.1 46.5c-0.3 0.8-1.3 3.5-2.1 6-0.8 2.6-2.8 8.9-4.4 14-1.5 5.2-4 12.9-5.3 17.2-1.4 4.3-2.6 8.5-2.8 9.3-0.2 1.2-0.3 2.3-0.2 4.5 0.1 2.4 0.2 3 0.6 4.1 0.3 0.7 0.9 2 1.4 2.8 0.6 0.8 1.5 1.9 2.1 2.5 0.6 0.6 1.6 1.5 2.3 1.9 0.6 0.4 1.8 1 2.6 1.4 1.2 0.4 2 0.5 4.1 0.7 1.4 0.1 6 0.1 10.3 0.1 4.3-0.1 8.4-0.2 9.1-0.3 0.7-0.2 1.7-0.5 2.3-0.8 0.5-0.3 1.2-0.8 1.5-1.2 0.4-0.3 0.9-1 1.2-1.6 0.3-0.6 0.6-1.6 0.7-2.2 0.2-1.1 0.1-1.7-0.6-5-0.4-2-1-4.7-1.3-6-0.2-1.3-0.5-2.6-0.5-3 0-0.3 0.4-1.9 0.8-3.4 0.5-1.5 1.8-5.8 3-9.6 1.2-3.8 2.8-9.2 3.7-12.1 0.9-2.8 2.2-7.3 3.1-10 0.8-2.7 1.7-5.8 2-6.9 0.5-1.6 0.6-2.1 0.4-2.4-0.1-0.3-0.4-0.5-0.5-0.6-0.2-0.1-5.8-0.2-12.6-0.3-10.3-0.1-12.8-0.2-15.8-0.5-2-0.3-3.7-0.4-3.7-0.4 0 0-0.2 0.1-0.4 0.2-0.2 0.1-0.6 0.8-1 1.6zm40.2-0.1c-0.2 0.3-1 2.6-1.8 5-0.8 2.5-1.8 6.1-2.4 8-0.6 2.1-0.9 3.7-0.9 3.9 0.1 0.3 0.3 0.5 0.7 0.6 0.3 0.1 1.7 0.1 3.1 0 1.4-0.1 3.4-0.3 4.4-0.4 1-0.2 2.4-0.6 3.2-1 0.8-0.3 2.1-1 2.8-1.5 0.8-0.5 1.8-1.3 2.3-1.8 0.5-0.5 1-1.1 1.2-1.3 0.1-0.2 0.5-0.7 0.8-1.2 0.4-0.5 0.9-1.4 1.1-2.1 0.3-0.6 0.9-2 1.2-3.1 0.3-1 0.7-2.5 0.9-3.4 0.2-0.8 0.3-1.6 0.3-1.7 0-0.1-0.1-0.3-0.3-0.5-0.2-0.2-1.3-0.3-7.4-0.2-4 0-7.5 0-8 0.1-0.5 0.1-1 0.3-1.2 0.6zm-16.1-55.2l1.9 0.8c1.1 0.4 2.4 1.1 3.1 1.4 0.6 0.4 1.4 0.9 1.9 1.3 0.4 0.3 1.3 1.1 2 1.9 0.7 0.7 1.5 1.6 1.9 2.1 0.4 0.5 0.9 1.1 1 1.3 0.2 0.1 0.6 0.9 0.9 1.5 0.4 0.7 1 2.2 2.1 5.4v3.9c0 3.1-0.1 4.3-0.3 5.2-0.2 0.6-0.7 1.9-1 2.8-0.4 0.9-1 2.2-1.5 2.8-0.4 0.6-1 1.5-1.4 1.9-0.3 0.4-1.5 1.6-2.6 2.6-1.1 1-2.4 2.1-2.8 2.3-0.5 0.3-1.6 0.7-2.4 1.1-0.9 0.3-2.3 0.7-3.1 0.9-0.7 0.1-2.2 0.3-3.3 0.3-1 0-2.5-0.1-3.3-0.2-0.7-0.2-2-0.5-2.7-0.8-0.7-0.2-1.7-0.7-2.2-1-0.6-0.2-1.4-0.8-1.9-1.1-0.5-0.4-1.7-1.4-2.6-2.4-1-1-2.1-2.2-2.5-2.7-0.4-0.6-1-1.5-1.4-2.2-0.3-0.6-0.8-1.9-1.1-2.8-0.3-0.8-0.6-2.3-0.8-3.3-0.2-1.3-0.3-2.5-0.2-4.5 0-1.6 0.2-3.5 0.4-4.3 0.2-0.9 0.8-2.3 1.4-3.6 0.6-1.2 1.3-2.5 1.6-2.8 0.2-0.3 0.6-0.8 0.8-1 0.2-0.3 0.9-1 1.6-1.7 0.7-0.7 1.4-1.3 1.5-1.4 0.1-0.1 0.8-0.6 1.6-1.1 0.7-0.5 2-1.2 2.8-1.5 0.7-0.4 1.9-0.8 2.6-1 0.9-0.2 2.2-0.2 8-0.1zm-10.3 7.3c-0.7 0.4-1.8 1.2-2.4 1.7-0.6 0.6-1.3 1.3-1.6 1.7-0.3 0.5-0.7 1.2-1.1 1.7-0.3 0.5-0.8 1.6-1 2.3-0.4 1.1-0.5 1.9-0.6 4.2-0.1 2.1 0 3 0.2 4 0.2 0.7 0.7 2.1 1.2 3 0.5 1 1.1 2.1 1.3 2.4 0.3 0.3 0.9 0.9 1.3 1.4 0.4 0.4 1.1 1 1.5 1.3 0.3 0.3 1.2 0.9 1.9 1.3 0.7 0.4 1.9 0.9 2.6 1.1 0.9 0.2 2 0.3 3.4 0.3 1.9 0 2.5-0.1 3.8-0.5 0.9-0.3 2.2-1 3-1.5 0.9-0.6 1.8-1.3 2.2-1.7 0.4-0.4 0.9-1 1.2-1.4 0.3-0.3 0.8-1.2 1.2-1.9 0.4-0.8 0.9-1.9 1.1-2.7 0.3-0.7 0.6-2 0.7-2.8 0.1-1.1 0.1-1.9 0-2.9-0.2-0.8-0.4-1.9-0.6-2.5-0.1-0.6-0.6-1.6-0.9-2.3-0.3-0.6-0.8-1.5-1.1-1.9-0.3-0.5-0.7-1-0.9-1.3-0.2-0.3-0.7-0.7-1-1-0.3-0.3-0.8-0.8-1.2-1.1-0.3-0.2-1.3-0.9-2.2-1.3-1-0.5-2.3-1.1-3-1.2-0.7-0.2-2-0.3-2.9-0.3-1.3 0-2 0.1-3.2 0.5-0.8 0.3-2.1 0.9-2.9 1.4z"/>
</svg>