<svg version="1.2" xmlns="http://www.w3.org/2000/svg" viewBox="0 0 512 512" width="512" height="512">
	<title>glitter-2-svgrepo-com-svg</title>
	<style>
		.s0 { fill: #ffffff } 
	</style>
	<g id="Layer">
		<path id="Layer" class="s0" d="m247.4 106.9c-24.7-24.7-41.6-67.7-49.9-106.9-8.4 39.2-25.3 82.3-49.9 106.9-24.7 24.7-67.8 41.5-106.9 49.9 39.2 8.4 82.2 25.3 106.9 49.9 24.6 24.7 41.5 67.7 49.9 106.9 8.4-39.2 25.2-82.2 49.9-106.9 24.6-24.7 67.7-41.5 106.9-49.9-39.2-8.4-82.3-25.2-106.9-49.9z"/>
		<path id="Layer" class="s0" d="m407.5 304.3c-14.7-14.7-24.8-40.4-29.8-63.8-5.1 23.4-15.1 49.1-29.8 63.8-14.8 14.8-40.5 24.8-63.9 29.9 23.4 5 49.1 15 63.9 29.8 14.7 14.7 24.8 40.4 29.8 63.8 5-23.4 15.1-49.1 29.8-63.8 14.7-14.8 40.4-24.8 63.8-29.9-23.4-5-49.1-15-63.8-29.8z"/>
		<path id="Layer" class="s0" d="m146.4 354.7c-4.3 19.7-12.7 41.3-25.1 53.6-12.3 12.4-33.9 20.8-53.6 25.1 19.7 4.2 41.3 12.6 53.6 25 12.4 12.3 20.9 33.9 25.1 53.6 4.2-19.7 12.6-41.3 25-53.6 12.3-12.4 34-20.8 53.6-25.1-19.6-4.2-41.3-12.6-53.6-25-12.4-12.3-20.8-33.9-25-53.6z"/>
	</g>
</svg>