<svg version="1.2" xmlns="http://www.w3.org/2000/svg" viewBox="0 0 512 512" width="512" height="512">
	<title>glitter-2-svgrepo-com-svg</title>
	<style>
		.s0 { fill: #ffffff } 
	</style>
	<g id="Layer">
		<path id="Layer" class="s0" d="m347.2 166.4c-20.9-20.9-35.2-57.4-42.3-90.6-7.1 33.2-21.4 69.7-42.3 90.6-20.9 20.9-57.4 35.2-90.6 42.3 33.2 7.1 69.7 21.4 90.6 42.3 20.9 20.9 35.2 57.4 42.3 90.6 7.1-33.2 21.4-69.7 42.3-90.6 20.9-20.9 57.4-35.2 90.6-42.3-33.2-7.1-69.7-21.4-90.6-42.3z"/>
		<path id="Layer" class="s0" d="m151.4 278.7c-4.3 19.7-12.7 41.3-25.1 53.6-12.3 12.4-33.9 20.8-53.6 25.1 19.7 4.2 41.3 12.6 53.6 25 12.4 12.3 20.9 33.9 25.1 53.6 4.2-19.7 12.6-41.3 25-53.6 12.3-12.4 34-20.8 53.6-25.1-19.6-4.2-41.3-12.6-53.6-25-12.4-12.3-20.8-33.9-25-53.6z"/>
	</g>
</svg>