<svg version="1.2" xmlns="http://www.w3.org/2000/svg" viewBox="0 0 66 171" width="66" height="171">
	<title>1_flat</title>
	<style>
		.s0 { fill: #000000 } 
	</style>
	<path id="1_flat" fill-rule="evenodd" class="s0" d="m47.4 0.3c14.8 0 15.9 0 16.4 0.3 0.3 0.2 0.7 0.6 0.8 0.9 0.4 0.4 0.4 4.8 0.4 83.1 0.1 45.5 0 83 0 83.5-0.1 0.7-0.3 1-1.6 2.3h-18.5c-18.2 0-18.6 0-19.3-0.4-0.4-0.2-0.9-0.6-1-0.9-0.3-0.5-0.3-7.2-0.3-113h-10.9c-9.9-0.1-10.8-0.1-11.3-0.4-0.3-0.2-0.6-0.6-0.8-0.9-0.3-0.4-0.4-1.6-0.4-16.6 0-15.1 0.1-16.2 0.4-16.7 0.2-0.3 0.5-0.7 0.8-0.9 0.4-0.2 1-0.3 3.2-0.3 1.4-0.1 3.6-0.2 4.7-0.4 1.1-0.2 2.8-0.4 3.6-0.6 0.8-0.2 2.2-0.6 3-0.9 0.8-0.2 2-0.7 2.7-0.9 0.6-0.3 1.5-0.8 2-1.1 0.6-0.3 1.4-1 1.9-1.4 0.5-0.4 1.4-1.3 1.9-2 0.4-0.6 1.2-2 1.7-3 0.5-1 1.1-2.6 1.4-3.6 0.3-1 0.7-2.3 0.8-2.9 0.1-0.6 0.3-1.4 0.5-1.7 0.1-0.3 0.4-0.7 0.6-0.9 0.2-0.2 0.6-0.4 0.9-0.5 0.3-0.1 6.9-0.2 16.4-0.1zm-14.4 5.2c-0.1 0.6-0.4 1.4-0.5 2-0.2 0.5-0.6 1.7-1 2.6-0.4 0.9-1 2.3-1.4 3.1-0.5 0.8-1.3 2-1.9 2.8-0.6 0.7-1.6 1.8-2.2 2.3-0.7 0.6-1.8 1.4-2.4 1.8-0.6 0.4-2.1 1.1-3.2 1.5-1.1 0.5-3 1.1-4.2 1.5-1.1 0.3-3.4 0.7-5.1 1-1.6 0.2-3.5 0.4-4.1 0.5-0.6 0-1.3 0-1.5 0-0.3 0-0.3 0.8-0.3 13.6v13.6h21.9c0.9 0.8 1.2 1.3 1.3 1.8 0.1 0.4 0.2 23.1 0.2 56.5v55.7h32.1v-161.3h-27.5z"/>
</svg>