<svg version="1.2" xmlns="http://www.w3.org/2000/svg" viewBox="0 0 129 170" width="129" height="170">
	<title>2_flat</title>
	<style>
		.s0 { fill: #000000 } 
	</style>
	<path id="2_flat" fill-rule="evenodd" class="s0" d="m65.9 0.5c2.3 0 4.8 0.1 5.7 0.2 0.8 0 1.8 0.1 2.2 0.1 0.5 0.1 1.3 0.2 1.8 0.2 0.6 0.1 2.2 0.3 3.6 0.5 1.4 0.2 3.6 0.6 4.8 0.9 1.3 0.2 3.3 0.7 4.5 1 1.2 0.3 3.2 1 4.4 1.4 1.3 0.5 3.5 1.4 4.9 2 1.5 0.6 3.4 1.6 4.4 2.1 0.9 0.5 2.5 1.5 3.5 2.1 1 0.7 2.6 1.9 3.7 2.7 1 0.8 2.9 2.6 4.2 3.9 1.3 1.4 2.9 3.2 3.5 4 0.7 0.8 1.6 2.1 2 2.8 0.5 0.7 1.3 2 1.7 2.9 0.5 0.9 1.4 2.8 1.9 4.3 0.6 1.4 1.3 3.6 1.6 4.8 0.4 1.2 0.8 3.2 1 4.4 0.2 1.2 0.4 2.6 0.5 3 0 0.4 0.1 1.8 0.2 3.1 0.1 1.3 0.2 3.4 0.2 4.6 0 1.1-0.1 2.7-0.1 3.3 0 0.7-0.2 2.2-0.3 3.4-0.2 1.2-0.4 3-0.6 3.9-0.2 0.9-0.5 2.7-0.8 3.9-0.3 1.2-0.8 2.9-1.1 3.7-0.3 0.9-1 2.7-1.6 4.1-0.5 1.3-1.5 3.6-2.2 5-0.7 1.4-1.8 3.3-2.4 4.3-0.6 1-1.7 2.6-2.4 3.6-0.7 1-1.8 2.5-2.5 3.3-0.7 0.8-2.3 2.7-3.7 4.1-1.3 1.5-3.5 3.7-4.9 5-1.4 1.3-3.5 3.2-4.5 4.1-1.1 0.9-3.5 2.8-5.3 4.2-1.8 1.3-4.5 3.2-6 4.2-1.4 1-10.8 7.1-20.9 13.6-10 6.5-18.2 11.9-18.2 12-0.1 0.1 2.6 0.2 7 0.1 3.8 0 10.9-0.1 15.6-0.2 4.7 0 11.9-0.1 15.9-0.2 4 0 12.6-0.1 19.2-0.2 6.6-0.1 13.9-0.2 16.3-0.2 3.7 0 4.3 0.1 4.7 0.4 0.3 0.2 0.7 0.5 0.9 0.8 0.3 0.5 0.3 1.6 0.4 14.9 0 7.8 0 14.7-0.1 15.1-0.1 0.7-0.3 1-1.6 2.3h-124.7l-0.8-0.6c-0.4-0.3-0.7-0.8-0.9-1.2-0.1-0.5-0.1-7.4-0.1-18.6 0-10.7 0-18.3 0.1-18.7 0.1-0.4 0.5-1 0.7-1.3 0.3-0.2 14.3-9.7 31-21 16.7-11.4 31.7-21.6 33.2-22.7 1.6-1.2 3.7-2.8 4.7-3.6 1.1-0.9 2.5-2 3.1-2.7 0.7-0.6 1.9-1.9 2.8-2.9 0.9-1 2.4-2.8 3.3-4.1 1-1.3 2.3-3.2 2.9-4.2 0.6-1 1.4-2.4 1.7-3.2 0.4-0.8 1-2.3 1.4-3.3 0.3-1 0.7-2.5 0.9-3.3 0.1-0.8 0.3-1.9 0.4-2.4 0-0.6 0.1-1.9 0.1-3 0-1-0.1-2.2-0.1-2.7-0.1-0.5-0.3-1.5-0.5-2.3-0.2-0.9-0.6-2.1-0.9-2.7-0.3-0.6-0.9-1.7-1.3-2.3-0.5-0.7-1.3-1.7-1.7-2.3-0.5-0.5-1.6-1.5-2.4-2.1-0.8-0.6-2.5-1.6-3.6-2.1-1.3-0.7-2.8-1.3-4.3-1.6-1.1-0.3-2.8-0.7-3.5-0.7-0.8-0.1-3-0.2-4.9-0.2-1.8 0-4 0.1-4.7 0.2-0.7 0-1.9 0.2-2.5 0.4-0.7 0.1-1.9 0.4-2.6 0.7-0.7 0.2-2 0.7-2.8 1.1-0.8 0.4-2 1.1-2.7 1.5-0.6 0.4-1.8 1.5-2.6 2.3-0.9 0.9-2 2.2-2.6 3.2-0.6 1-1.2 2.2-1.5 2.7-0.3 0.5-0.8 1.8-1.2 2.9-0.4 1.1-0.8 2.7-1 3.6-0.2 0.9-0.4 2.1-0.5 2.8-0.1 0.7-0.2 1.5-0.2 1.8 0 0.3-0.1 2.8-0.1 5.5 0 4 0 5.1-0.3 5.5-0.1 0.3-0.6 0.7-0.9 0.9-0.7 0.3-0.8 0.3-17.7-2.4-11-1.7-17.3-2.8-17.7-3-0.4-0.1-0.8-0.5-1-0.8-0.3-0.3-0.4-1-0.6-3-0.1-1.4-0.1-3.8 0-5.3 0-1.6 0.1-3.3 0.2-3.9 0-0.6 0.1-1.5 0.2-2 0-0.5 0.2-1.7 0.3-2.7 0.2-1 0.5-2.8 0.8-4 0.2-1.2 0.6-2.9 0.9-3.8 0.3-0.8 0.7-2 0.9-2.6 0.2-0.6 0.4-1.2 0.5-1.5 0.1-0.3 0.6-1.4 1.2-2.6 0.5-1.2 1.4-3 2-4 0.6-1 1.5-2.5 2.1-3.3 0.6-0.8 1.8-2.4 2.8-3.6 0.9-1.1 2.7-3 3.9-4.1 1.2-1.2 3.2-2.8 4.4-3.7 1.1-0.9 3-2.1 4.1-2.8 1-0.6 3-1.7 4.4-2.4 1.3-0.6 3.6-1.6 5.1-2.2 1.4-0.6 3.5-1.3 4.5-1.6 1-0.3 3-0.8 4.3-1.1 1.3-0.4 3.3-0.8 4.5-1 1.2-0.2 3.3-0.5 4.7-0.7 1.4-0.1 2.9-0.3 3.2-0.4 0.4 0 1.9-0.1 3.4-0.2 1.5 0 2.8-0.1 2.9-0.2 0 0 1.9 0 4.2 0.1zm-8.3 4.5c-0.9 0.1-2.1 0.2-2.6 0.2-0.6 0.1-1.7 0.2-2.6 0.3-0.9 0.1-2.5 0.3-3.6 0.5-1.1 0.2-3.1 0.6-4.4 1-1.4 0.3-3.5 0.9-4.8 1.3-1.3 0.4-3.3 1.1-4.4 1.5-1.1 0.4-3.2 1.4-4.8 2.2-1.6 0.8-3.6 2-4.5 2.6-1 0.6-2.5 1.6-3.3 2.3-0.9 0.7-2.5 2-3.5 2.9-1.1 1-2.6 2.6-3.4 3.7-0.9 1-2 2.4-2.4 3.1-0.5 0.6-1.3 1.9-1.8 2.7-0.5 0.8-1.3 2.3-1.8 3.3-0.5 1-1.2 2.6-1.6 3.6-0.3 1-0.8 2.5-1.1 3.4-0.3 0.9-0.7 2.5-1 3.7-0.2 1.1-0.6 2.9-0.7 3.9-0.2 1-0.3 2.6-0.4 3.4 0 0.8-0.1 2.7-0.2 4.1-0.1 1.4-0.1 3.2 0 4l0.1 1.5c22.8 3.6 29.4 4.6 29.4 4.6 0 0 0.1-2 0.1-4.3 0.1-2.3 0.2-4.4 0.2-4.6 0.1-0.2 0.2-0.9 0.2-1.6 0.1-0.7 0.4-2.1 0.6-3.1 0.3-1.1 0.7-2.7 1.1-3.6 0.3-0.9 0.9-2.4 1.3-3.3 0.5-0.9 1.3-2.4 1.9-3.3 0.7-1.1 1.9-2.5 3.1-3.7 1.3-1.2 2.7-2.4 3.8-3.1 0.9-0.6 2.4-1.4 3.4-1.8 0.9-0.4 2.4-1 3.3-1.2 0.8-0.3 2.3-0.6 3.2-0.8 0.9-0.1 2.3-0.3 3.1-0.4 0.8-0.1 2.7-0.1 4.2-0.1 1.5 0 3.5 0 4.3 0.1 0.9 0.1 2.5 0.3 3.6 0.6 1.1 0.2 2.8 0.6 3.7 0.9 0.8 0.3 2.3 1 3.3 1.4 0.9 0.5 2.3 1.3 3 1.8 0.7 0.4 2.1 1.6 3 2.5 1 1 2.2 2.4 2.7 3.1 0.5 0.8 1.2 2 1.5 2.6 0.4 0.7 0.9 1.9 1.2 2.9 0.3 0.9 0.7 2.5 0.8 3.6 0.2 1.1 0.3 2.8 0.3 3.8 0 1.1-0.1 2.9-0.3 4.1-0.1 1.2-0.5 3-0.7 4-0.3 0.9-0.7 2.4-1 3.2-0.3 0.7-1 2.2-1.5 3.3-0.5 1-1.4 2.6-2 3.5-0.6 1-1.8 2.8-2.8 4-1 1.2-2.5 3.1-3.4 4.1-0.9 1-2.4 2.6-3.3 3.5-0.9 0.9-2.7 2.4-4 3.4-1.2 1-3.5 2.7-5 3.8-1.5 1.1-16.1 11-32.5 22.1l-29.8 20.2v33.2l119.6-0.1v-24.7c-10.4 0.1-17.1 0.2-21.8 0.3-4.6 0-11.9 0.1-16.3 0.2-4.4 0-11.2 0.1-15.3 0.1-4 0.1-12 0.2-17.7 0.3-9.3 0.1-10.3 0.1-10.9-0.2-0.3-0.2-0.7-0.6-0.9-0.9-0.1-0.4-0.2-1.1-0.2-2 0-1.4 0-1.4 0.7-2.1 0.4-0.4 9.3-6.3 19.8-13.2 10.6-6.8 20.7-13.3 22.5-14.6 1.8-1.2 5-3.4 7.1-5 2.1-1.6 4.6-3.5 5.5-4.3 0.9-0.8 2.7-2.3 3.8-3.4 1.2-1.1 3.2-3.2 4.5-4.6 1.3-1.4 3-3.3 3.7-4.2 0.8-1 1.9-2.4 2.5-3.2 0.5-0.9 1.5-2.4 2.1-3.4 0.7-1.1 1.7-2.9 2.3-4.1 0.6-1.2 1.4-3.1 1.9-4.2 0.5-1.2 1.2-3 1.5-4.1 0.4-1.1 0.9-3 1.2-4.2 0.3-1.3 0.6-2.9 0.8-3.7 0.1-0.8 0.2-1.6 0.3-1.9 0-0.2 0.1-1.2 0.2-2 0-0.9 0.1-3.3 0.1-5.3 0-2-0.1-4.4-0.1-5.3-0.1-0.9-0.3-2.4-0.5-3.4-0.1-1-0.4-2.5-0.6-3.4-0.2-0.9-0.7-2.5-1.1-3.7-0.3-1.1-1.2-3.1-1.8-4.5-0.7-1.3-1.8-3.3-2.4-4.3-0.7-1.1-1.8-2.6-2.5-3.4-0.7-0.8-2.1-2.4-3.2-3.4-1.1-1.1-2.7-2.4-3.6-3.1-0.8-0.7-2.4-1.8-3.4-2.4-1.1-0.7-2.8-1.7-3.9-2.2-1.1-0.6-2.9-1.4-4-1.9-1.1-0.4-3-1.2-4.3-1.6-1.3-0.4-3.2-1-4.3-1.2-1-0.3-2.7-0.7-3.7-0.9-1-0.2-2.6-0.5-3.6-0.6-0.9-0.2-2.3-0.4-3-0.4-0.7-0.1-1.4-0.2-1.7-0.2-0.2-0.1-1.3-0.1-2.2-0.2-1-0.1-4.2-0.2-7.2-0.2-2.9 0-5.3 0-5.4 0 0 0-0.8 0.1-1.7 0.2z"/>
</svg>