<svg version="1.2" xmlns="http://www.w3.org/2000/svg" viewBox="0 0 512 512" width="512" height="512">
	<title>New Project</title>
	<style>
		.s0 { fill: #f7c600 } 
		.s1 { fill: #090909 } 
		.s2 { fill: #b5267e } 
		.s3 { fill: #87796f } 
		.s4 { fill: #d5de58 } 
		.s5 { fill: #e3c7f7 } 
		.s6 { fill: #21a9fc } 
	</style>
	<path id="Path 0" class="s0" d="m404 46.1c-2.7 2.3-3.4 3.7-3.2 6 0.1 1.6 1.3 4.3 2.7 5.9 1.4 1.6 3.4 3.2 4.5 3.5 1.1 0.3 3.1-0.2 4.5-1 1.4-0.8 3.4-2.4 4.5-3.5 1.1-1.1 2-3.2 2-4.8 0-1.7-1.1-3.8-3.2-5.9-1.9-1.9-4.3-3.3-5.8-3.3-1.4 0-4.1 1.4-6 3.1zm41 24c-4.2 4.2-7.2 7.9-7.1 9 0.1 1 1.1 2.9 2.3 4.2 1.3 1.3 4 4.4 6 7 3 3.7 4.4 4.7 6.8 4.7 2.2 0 3.6-0.8 5.3-3 1.2-1.7 4.1-4.4 6.5-6 3.2-2.3 4.2-3.6 4.2-5.8 0-2-1.9-4.6-7-10-3.9-3.9-7.6-7.2-8.4-7.2-0.8 0-4.6 3.2-8.6 7.1zm-41 29.2c-2.6 2.5-3.4 4-3.2 6.2 0.1 1.7 1.5 4.4 3.2 6.2 1.7 1.9 4 3.3 5.3 3.3 1.2 0 3.9-1.3 6-3 2.8-2.3 3.7-3.7 3.7-6 0-1.9-1.1-4.3-3-6.5-2.1-2.5-3.8-3.5-5.8-3.5-1.8 0-4 1.2-6.2 3.3z"/>
	<path id="Path 0" fill-rule="evenodd" class="s1" d="m409.9 30.2c0.8 0.2 3 3 4.9 6.3 1.8 3.3 4.1 6.8 5 7.8 0.9 1 3.3 2.3 5.2 2.9 1.9 0.6 4.1 1.6 4.8 2.2 0.7 0.6 1.3 1.8 1.3 2.6 0 0.8-3 3.3-6.7 5.5-3.6 2.2-7.4 5.1-8.4 6.5-0.9 1.4-2.2 4.1-2.8 6-0.6 1.9-1.8 3.8-2.6 4.3-0.9 0.4-2.1 0.4-2.8 0-0.7-0.5-2.1-2.8-3.1-5.3-1.1-2.5-2.9-5.8-4.1-7.4-1.1-1.7-4.1-3.9-6.6-4.9-2.5-1.1-4.8-2.5-5.2-3.1-0.4-0.6-0.8-1.7-0.8-2.3 0-0.7 2.1-2.2 4.8-3.4 2.6-1.1 6.2-3.5 8-5.2 1.8-1.8 3.7-4.8 4.4-6.7 0.6-1.9 1.5-4.1 2.1-4.8 0.6-0.7 1.7-1.2 2.6-1zm-8.1 21.8c0.2 0.8 1.6 3 3.2 4.8 1.7 1.7 3.5 3.2 4 3.2 0.6 0 2.8-1.5 5-3.2 2.2-1.8 4-3.6 4-4 0-0.5-1.5-2.6-3.2-4.8-1.8-2.2-4-4-4.9-4-0.8 0-3 1.5-4.9 3.3-1.9 1.8-3.3 3.9-3.2 4.7zm6.8 31c0.2 0 1.1 0.3 2 0.8 0.9 0.4 2.7 3 4 5.7 1.2 2.8 3.5 6.1 4.9 7.5 1.5 1.4 4.5 3.2 6.8 4 3.3 1.2 4.2 2.1 4.2 4 0 1.8-1.2 3.1-5 5.3-2.7 1.6-6.1 3.9-7.4 5-1.3 1.2-3.4 4.6-4.7 7.5-2 4.2-2.8 5.2-4.6 5-1.7-0.2-2.7-1.6-4.1-5.3-1-2.7-2.9-6.5-4.3-8.3-1.4-1.8-4.3-3.9-6.9-4.9-2.5-1-4.8-2.5-5-3.3-0.3-0.8 0.3-2.3 1.2-3.3 1-0.9 2.9-2 4.3-2.3 1.4-0.3 4-1.6 5.8-3 2-1.5 3.8-4.2 4.9-7.1 0.9-2.7 2.1-5.4 2.6-6 0.5-0.7 1.1-1.3 1.3-1.3zm-6.8 22.3c0.1 0.4 1.7 2.5 3.5 4.7 1.7 2.2 3.5 4 4 4 0.4 0 2.5-1.7 4.7-3.8 2.3-2 4.1-4.2 4.1-4.7-0.1-0.5-1.8-2.7-3.8-4.7-2.1-2.1-4-3.8-4.3-3.8-0.4 0-2.4 1.7-4.5 3.8-2.2 2.1-3.8 4.1-3.7 4.5zm51.2-56.3c0.3-0.1 1 0.5 1.7 1.2 0.6 0.7 2.7 4.4 4.7 8.3 1.9 3.8 5 8.5 6.8 10.3 1.8 1.8 5.8 4.1 8.8 5.2 3 1 5.9 2.5 6.4 3.2 0.5 0.7 0.7 2 0.4 2.8-0.3 0.8-3.6 3.1-7.3 5-3.7 1.9-8.8 5.7-11.5 8.5-3.5 3.7-5.2 6.5-6.4 10.7-1.3 4.8-2 5.8-3.8 5.8-1.9 0.1-2.7-1-4.5-5.7-1.2-3.2-3.6-7.9-5.3-10.6-1.6-2.6-4.4-5.7-6.1-7-1.7-1.2-5.1-2.9-7.7-3.7-3.9-1.2-4.7-1.9-4.7-3.9 0-2.1 0.9-2.9 6-4.8 3.3-1.3 7.5-3.5 9.3-4.8 1.7-1.4 4.3-4.2 5.7-6.3 1.3-2 2.9-5.7 3.4-8.1 0.6-2.4 1.6-4.8 2.3-5.2 0.7-0.5 1.5-0.9 1.8-0.9zm-14.5 30.2c7.1 7.2 9.9 10.5 10.8 12 0.9 1.6 2.2 2.8 2.7 2.8 0.6 0 4.4-3 8.5-6.8 4.1-3.7 7.5-6.9 7.5-7.2 0-0.3-3.1-3.8-7-7.8-3.8-3.9-7.3-7.2-7.7-7.1-0.5 0.1-3.9 3.2-7.8 7.1z"/>
	<path id="Path 0" class="s2" d="m251.2 293.4c-4.3 0.6-7.6 1.7-8.2 2.6-0.5 0.8-1 2.4-1 3.5 0 1.1 1.7 9.5 3.7 18.8 3.4 14.8 3.6 16.9 2.3 18.1-0.8 0.7-6.9 2.2-13.5 3.1-10.7 1.6-12.3 2.1-14.7 4.7-2.2 2.2-2.8 3.7-2.8 7.3 0 3.5 0.6 5.1 2.5 7 2.1 2.1 3.4 2.5 8.3 2.5 3.1 0 13.6-1.3 23.2-2.9 15.4-2.5 17.7-3.2 19.3-5.2 1.4-1.9 1.8-4.2 1.7-11.4 0-4.9-0.7-17.1-1.5-27-0.8-9.9-1.5-18.3-1.5-18.7 0-0.5-0.7-1.5-1.5-2.3-0.9-0.9-3.1-1.4-5.2-1.4-2.1 0.1-7.1 0.7-11.1 1.3zm121.8 20.2c-4.7 2.6-8.8 5.2-9.2 5.8-0.4 0.6-0.8 2-0.8 3.1 0 1.1 4.1 9 9.1 17.5 7 11.8 8.9 15.9 8.2 17-0.6 0.8-5.5 3.8-10.9 6.7-5.5 2.9-11 6.5-12.3 8-2 2.4-2.3 3.5-1.8 7.3 0.3 2.5 1.4 5.3 2.4 6.3 1 1 3.6 2 5.8 2.3 3.6 0.6 5.9-0.3 23.3-9 15.8-7.9 19.4-10.1 20.3-12.3 0.6-1.6 0.7-4.4 0.4-6.3-0.4-1.9-4.8-13.4-9.8-25.5-5.1-12.1-10-22.8-10.9-23.7-1-1-2.6-1.8-3.5-1.8-1 0-5.6 2.1-10.3 4.6z"/>
	<path id="Path 0" class="s3" d="m312.9 74.6c-1.2 1.4-1.2 2.5 0 7.3 0.7 3.1 1.6 9.2 1.8 13.6 0.3 4.4 0 10.6-0.6 13.8-0.9 4.4-0.8 6 0.2 7.2 0.6 0.9 1.9 1.6 2.7 1.6 0.8 0 3.1-1.7 5.1-3.8 1.9-2.1 4.6-6.5 5.9-9.8 2.1-5.1 2.4-7.8 2.5-17.3 0-10.2-0.2-11.5-2-12.8-1.2-0.9-4.4-1.4-8.1-1.4-4.5 0-6.6 0.5-7.5 1.6zm41.1 73.3c-5.2 1-10.5 2-11.7 2.4-1.3 0.4-2.6 1.7-2.9 3-0.3 1.2-0.3 3.6 0.1 5.2 0.4 1.7 1.2 3.6 1.8 4.3 0.7 0.7 2.6 1.3 4.2 1.2 1.6 0 7.3-0.7 12.5-1.6 5.2-0.9 10.6-2.3 11.9-3.3 2.1-1.4 2.3-2.1 1.8-6.1-0.3-2.7-1.3-5-2.4-5.8-1-0.7-2.7-1.2-3.8-1.1-1.1 0.1-6.3 0.9-11.5 1.8z"/>
	<path id="Path 0" class="s4" d="m281.5 36.8c-2.8 1-6.4 2.8-8 3.9-1.6 1.2-4.2 3.4-5.7 5-1.5 1.5-4 5.3-5.6 8.3-2.7 5.1-3.2 5.5-7.3 6.2-2.4 0.3-7.7 0.7-11.7 0.7-5.8 0.1-7.6 0.5-9.2 2.1-1.1 1.1-2 2.9-2 4 0 1.1 1 3 2.2 4.2 2.3 2.1 2.6 2.1 24.3 1.5 12.1-0.4 32.8-1 45.9-1.4 16.9-0.6 24.4-1.2 25.3-2 0.7-0.7 1.3-2.9 1.3-4.8 0-1.9-0.9-5.9-2-8.7-1-2.9-3.4-7.1-5.3-9.3-1.9-2.2-6.3-5.6-9.8-7.5-6-3.2-7.1-3.5-16.9-3.7-8.2-0.3-11.6 0.1-15.5 1.5zm72.9 128.1c-6.2 1.2-9.7 2.4-10.8 3.7-0.9 1-1.6 2.3-1.6 2.9 0 0.6 1.3 8.7 2.9 18 1.6 9.4 3.4 18.1 3.9 19.5 0.5 1.4 2 3.4 3.2 4.5 1.8 1.6 3.5 2 8.9 1.8 3.6-0.1 8.4-0.8 10.6-1.6 2.2-0.8 4.9-2.6 6-4.1 1.3-1.8 2.1-4.6 2.2-7.9 0.1-2.9 0.5-6.5 0.9-8.2 0.4-1.6 0-7-0.7-12-1.1-6.8-2-9.7-4.1-12.5-1.5-1.9-3.2-4.1-3.8-4.7-0.5-0.7-2.7-1.3-4.8-1.2-2 0.1-7.8 0.9-12.8 1.8zm-5.9-38.2c-1.1 0.2-3.5 0.9-5.3 1.4-2 0.6-3.7 2-4.7 3.9-0.8 1.7-1.5 5-1.5 7.5 0 3.2 0.6 5.1 2 6.5 1.1 1.1 2.3 2 2.7 2 0.5 0 5.7-0.9 11.8-1.9 6.1-1.1 11.8-2.2 12.7-2.5 1-0.3 2.1-1.8 2.4-3.3 0.4-1.6 0.1-4.5-0.5-6.5-0.6-2.1-2.3-4.7-3.9-5.8-2-1.6-4.1-2-8.2-1.9-3 0.1-6.4 0.3-7.5 0.6z"/>
	<path id="Path 0" fill-rule="evenodd" class="s5" d="m297.4 74c4.5 0 8.6 0.4 9.3 0.8 0.6 0.4 2.2 3 3.5 5.7 2 4.4 2.3 6.6 2.3 17.5 0 11.9-0.1 12.8-3 18.5q-3 6-6 7.5c-1.6 0.8-5.2 1.5-8 1.4-2.9 0-7-1-9.7-2.2-4.6-2.1-4.8-2.3-4.4-6 0.2-2 0.7-4.8 1.8-8.7l-2.6 2.7c-1.4 1.6-3.2 2.8-3.8 2.8-0.7 0.1-2.5-0.8-4-2-1.6-1.1-4.2-5-5.9-8.8-1.8-3.7-3.8-9.6-4.5-13.2-0.8-3.6-1.4-7.7-1.4-9.3 0-1.5 0.8-3.4 1.8-4.3 1.4-1.3 3.8-1.6 13.4-1.3 6.5 0.1 12.1-0.1 12.4-0.4 0.4-0.4 4.4-0.7 8.8-0.7zm-20.4 11.8l-5.5-0.6c3.9 3 6.2 3.9 7.8 3.8 1.6 0 3.9-1.2 5.7-3 1.6-1.7 3-3.5 3-4 0-0.5-0.3-1-0.7-1-0.5 0-1.7 1.2-2.8 2.7-1.8 2.4-2.4 2.6-7.5 2.1zm-51.3 51.2c2.3 0 5.5 0.5 7.1 1.1 1.5 0.6 3 1.6 3.4 2.2 0.4 0.7 0.8 3.1 0.8 5.4 0 3-0.6 4.9-2 6.3-1.3 1.3-3.4 2-5.7 2-2.1 0-5.4-0.5-7.3-1.1-1.9-0.6-4.1-1.9-4.8-2.8-0.7-0.9-1.3-3.3-1.3-5.3-0.1-2.9 0.5-4.1 2.7-5.7 1.8-1.4 4.2-2.1 7.1-2.1z"/>
	<path id="Path 0" class="s6" d="m301.5 127.6c-2.2 0.8-5.5 2.6-7.3 3.9-2.5 2-3.2 3.2-3.2 6 0 2.8 0.4 3.6 2.3 4 1.2 0.3 5.8 0.9 10.2 1.4 7.4 0.9 8.3 1.3 11.3 4.5 2.2 2.5 3.2 4.6 3.2 6.9 0 2.4-0.9 4.1-3.5 6.7l-3.6 3.5h-22.4c-0.5 4.7 0.5 12.8 2 21 1.4 8.3 3 16 3.5 17.3 0.6 1.3 1.9 2.2 3.2 2.2 1.3 0 8.4-2.3 15.8-5.1 11.7-4.5 14.5-5.2 21-5.3l7.5-0.1c0.4-7-1.2-18.9-3.3-31-3-17-4.4-22.9-6.3-25.9-1.3-2.2-3.8-5-5.4-6.2-1.6-1.3-5-3-7.5-3.9-2.5-0.8-6.5-1.5-9-1.5-2.5 0.1-6.3 0.8-8.5 1.6zm-15 84.9c-22 8.6-41.3 16.4-42.9 17.3-1.6 0.9-3.8 3-5 4.5-1.3 1.8-2.2 4.8-2.4 8-0.2 3.1 1.1 13.1 3.3 24.7 2 10.7 4.1 20.6 4.6 22 1 2.4 1.3 2.5 8.2 1.8 4-0.3 8-0.9 8.9-1.2 1-0.3 2-1.6 2.3-2.9 0.3-1.2-0.4-9.6-1.4-18.7-1.6-12.9-1.8-16.8-0.8-17.7 0.7-0.7 18.1-5.8 38.7-11.4 20.6-5.6 38.5-10.7 39.7-11.5 1.3-0.8 3.2-2.9 4.3-4.7q2-3.2 2-8.5c0-2.8-0.6-6.7-1.4-8.5-0.7-1.7-2.6-4.3-4.1-5.7-2.1-1.9-3.9-2.6-8.3-2.8-5.3-0.2-8.8 1-45.7 15.3zm52.5 17.4c-0.8 0.5-4.9 1.9-9 3-4.1 1.2-7.8 2.7-8.2 3.4-0.4 0.6-0.8 2-0.8 2.9 0 1 8.9 18 19.7 37.9 11.5 21 20.6 36.5 21.8 37.1 1.6 0.8 3.5 0.4 9-2.1 3.9-1.8 7.3-3.8 7.7-4.4 0.4-0.7 0.8-2.3 0.8-3.7 0-1.4-7.2-18.3-16.1-37.5-8.8-19.3-16.8-35.6-17.7-36.3-0.9-0.7-2.6-1.2-3.7-1.2-1.1 0-2.7 0.5-3.5 0.9zm-96.6-90.1c-0.6 0.4-1.6 2-2.3 3.5-0.6 1.5-1.1 3.9-1.1 5.4 0 1.6 0.6 3.7 1.4 4.8 1.3 1.8 4.7 2.4 31.3 5.2 16.4 1.8 31.8 3.3 34.3 3.3 2.5 0 5.5-0.7 6.7-1.5 1.3-0.8 2.5-2.7 2.8-4.3 0.3-1.5 0.1-3.9-0.5-5.5-0.5-1.5-2.1-3.2-3.5-3.7-1.4-0.6-17-2.6-34.8-4.5-17.7-1.9-32.4-3.5-32.7-3.5-0.3 0-1 0.4-1.6 0.8z"/>
	<path id="Path 0" class="s3" d="m34 35.3c-1 1.1-1.4 25.5-1.6 115.3-0.2 62.6-0.6 119.5-0.9 126.4-0.4 10.2-0.3 12.9 1 14.8 1.3 1.9 1.5 13.5 1.5 92.7 0 79.1 0.2 90.7 1.5 92 1.3 1.3 27 1.5 219.3 1.5 172.9 0 218.1-0.3 219-1.3 0.7-0.6 1.2-1.9 1.2-2.7 0-0.8-8.2-15.4-18.3-32.4-10-16.9-18.9-31.4-19.7-32.2-0.8-0.8-22.4-6.8-48-13.4-25.6-6.6-47-12.1-47.5-12.3-0.6-0.2-2.6-4.1-4.5-8.7-1.9-4.5-4.3-8.7-5.3-9.1-0.9-0.5-15.1-0.9-31.5-1-16.3 0-46.1-0.4-66.2-0.9-28.1-0.7-36.8-1.2-37.7-2.2-0.6-0.7-4.4-13-8.3-27.3-3.9-14.3-7.9-27-8.8-28.2-0.9-1.3-14.8-12.9-30.7-25.9-15.9-13-29.3-24.1-29.7-24.7-0.4-0.7-3.9-14.9-7.8-31.7l-7.2-30.5c3.7-69.2 3.7-69.3 1.7-71.5-1.1-1.2-7.1-5.9-13.3-10.3-6.7-4.9-11.6-9.2-12.1-10.7-0.5-1.4-3.5-16-6.6-32.5-3.2-16.5-6.4-31-7.1-32.3-1.4-2.1-1.9-2.2-16.3-2.2-11.1 0-15.2 0.3-16.1 1.3z"/>
	<path id="Path 0" fill-rule="evenodd" class="s1" d="m68.5 30l146 103.2 4.5-0.6c2.5-0.3 17.8 0.9 63.5 5.7l2.8-3.4c1.5-1.9 2.6-3.8 2.4-4.4-0.2-0.6-2.6-2.2-5.3-3.6-2.7-1.5-7.6-5.6-10.8-9-3.3-3.5-7.2-9.1-8.8-12.4-1.5-3.3-3.5-8.5-4.3-11.5-0.8-3-1.5-6.9-1.5-8.5 0-1.7-0.6-4.1-1.3-5.5-1.2-2.3-1.5-2.4-10.7-2.2-8.1 0.2-10 0-12.8-1.8-2.1-1.3-3.6-3.3-4.3-5.8-1-3.1-0.9-4.3 0.7-7.5 1.2-2.4 3.1-4.4 5.2-5.3 2-0.9 6.5-1.4 12-1.4 4.8 0 9.2-0.4 9.7-0.8 0.6-0.4 2.3-2.7 3.7-5.2 1.4-2.5 5-6.8 7.9-9.5 3.7-3.4 7.6-5.9 12.4-7.8 5.8-2.2 8.6-2.7 16.3-2.7 8.3 0 9.9 0.3 16.4 3.3 4 1.8 9.5 5.3 12.1 7.7 3 2.8 6.1 7 8 11 3.1 6.3 3.1 6.9 3.3 21.5 0.1 8.2-0.3 17.8-0.7 21.2-0.5 3.5-1.8 8.7-2.9 11.5-1.1 2.9-3.8 7.4-6 10-2.2 2.7-4 5.2-4 5.8 0 0.5 2.3 2.6 5 4.5 2.8 1.9 5.3 3.5 5.8 3.5 0.4 0.1 1.6-0.9 2.7-2.1 1.1-1.2 3.8-3 6-4 2.2-1 7.6-2.1 12-2.4 6.6-0.5 8.6-0.3 11.4 1.2 1.9 1 4.3 2.9 5.3 4.3 1.1 1.5 2.9 7.8 4.3 15.5 1.4 7.1 2.8 16.3 3.2 20.3 0.8 6.8 0.7 7.2-1.2 7.2-1.1 0-3.1-1.3-7-6l-12 2.1c-6.6 1.1-12.3 2.2-12.7 2.5-0.5 0.2-0.8 1.6-0.8 3.1 0 1.6 1.2 9.5 2.5 17.8 1.4 8.2 3 16.5 3.5 18.2 0.6 1.8 2.2 4.1 3.8 5 2.1 1.3 4 1.5 8.7 1 3.3-0.3 7.5-1.1 9.3-1.7 2-0.6 3.8-2.2 4.7-4 0.8-1.7 1.5-5.3 1.5-8 0-3.6 0.4-5.1 1.5-5.5 0.8-0.3 2.2 0.2 3 1 1 1 1.5 3.4 1.5 6.7 0 3-0.8 6.8-1.8 8.8-1.2 2.4-3.2 4.2-6.7 5.9-3.9 1.9-7.3 2.6-15 3-9.4 0.6-10 0.7-10.2 2.8-0.2 1.3 7.4 19.1 16.8 39.5 12.8 28.1 17.8 38 20.3 40.3 2.5 2.3 5.6 8.7 13.7 28 9.6 23.2 10.4 25.5 10.4 31.6 0 5.3-0.4 7.2-2 8.9-1.1 1.2-8.2 5.3-15.8 9.1-7.5 3.8-13.7 7.3-13.7 7.9 0 0.6 0.8 1.4 1.7 1.9 1 0.5 13.9 4 28.8 7.7 14.8 3.8 27.7 7.6 28.7 8.4 1 0.8 11 17.2 22.3 36.5 15.6 26.4 20.5 35.6 19.5 39.5h-224.5c-198.2 0-224.7-0.2-226-1.5-1.3-1.3-1.5-13.2-1.5-95 0-81.8 0.2-93.7 1.5-95 1.3-1.3 1.7-1.3 3.5 0.2 2 1.8 2.1 2.5 2 92.3-0.1 72.8 0.2 90.7 1.2 91.7 1 1 48.5 1.2 217.3 1 204.8-0.2 216-0.3 216.2-2 0.2-0.9-7.4-14.9-16.8-31-9.4-16-17.8-30-18.7-30.9-1.1-1-17.4-5.6-43.7-12.3-23.1-5.9-44.4-11.3-52.5-13.5l-8.5-17.5-13-0.7c-7.1-0.5-37.7-1.1-67.8-1.5-53.4-0.8-54.9-0.9-56-2.8-0.6-1.1-4.3-13.5-8.2-27.5-3.9-14-7.5-26.2-8-27.2-0.6-0.9-14-12.3-30-25.2-15.9-13-29.8-24.6-30.7-25.9-0.9-1.2-4.8-15.9-15.8-64.2l2-33.5c1.2-21.4 1.5-34.1 0.9-35.3-0.5-0.9-6.4-5.6-13-10.5-6.7-4.8-12.5-9.4-12.9-10.2-0.5-0.8-3.6-15.9-7-33.5-4.5-23.9-6.5-32.3-7.8-33.3-1.1-0.8-5.5-1.2-13.2-1.2-8 0-12 0.4-12.8 1.2-1 1-1.2 26.7-1.2 113.8 0.1 111.9 0.1 112.5-2 114.2-1.8 1.6-2.2 1.6-3.5 0.3-1.3-1.3-1.5-15.7-1.6-116.9 0-105.8 0.1-115.6 1.6-117 1.4-1.3 4.7-1.6 38-1.6zm202.8 15.2c-3.5 3.3-6.5 7.2-7.8 10.3-1.2 2.7-2.9 5.3-3.8 5.7-1 0.5-6.3 0.8-11.9 0.8-8.6-0.1-10.6 0.2-12 1.7-1 1-1.8 2.6-1.8 3.5 0 1 1 2.4 2.3 3.2 1.8 1.1 9.3 1.1 46.2 0.1 24.2-0.6 44.6-1.4 45.3-1.8 0.7-0.4 1.2-2.6 1.2-5 0-2.3-0.9-6.1-2-8.5-1.1-2.3-3.7-6.1-5.9-8.5-2.3-2.5-6.4-5.4-10.2-7.1-4.8-2.2-8.2-3-13.9-3.3-5.5-0.2-9.2 0.2-13.7 1.7-4.7 1.5-7.8 3.4-12 7.2zm-193.2 27.8c2.9 14.6 5.7 27.1 6.3 27.9 0.6 0.8 6.5 5.3 13 10 6.6 4.8 12.4 9.7 13 11.1 0.7 1.8 0.5 12-0.8 37l-1.9 34.5c10.5 45.7 14.1 59.6 14.7 60.4 0.6 0.8 14.5 12.4 30.8 25.8 26.7 21.7 30 24.7 31.3 28.5 0.8 2.4 4 13.7 7.1 25.3 3.1 11.6 6.3 22 7 23.2 1.2 2 2.1 2.3 7.1 2l5.8-0.2c0.8-10.1 1.8-14.2 2.8-15.8 0.9-1.5 3.2-3.4 4.9-4.3 1.8-0.9 7.1-2.3 11.8-3.1 4.7-0.8 9.3-1.6 10.2-1.8 1.1-0.3 1.8-1.5 1.8-2.8 0-1.2-1.6-9.8-3.6-19.2-3.4-15.9-3.6-17.2-2.2-20 1.4-2.8 1.3-4.4-2.3-23.5-2.1-11.3-3.8-22.3-3.8-24.5 0-2.2 0.8-5.8 1.8-8 1-2.2 3.5-5.6 5.7-7.5 3-2.7 9.1-5.5 26.2-12 12.3-4.7 22.8-9.2 23.2-10 0.5-0.9-0.4-9-2.1-19.5-1.6-9.9-3.3-18.9-3.8-20-0.7-1.8-3.5-2.3-31.2-5.4-16.7-1.8-31.3-3.7-32.4-4.1-1.1-0.4-3-1.8-4.3-3.1-1.5-1.6-2.5-4.3-3-8.1-0.4-3.6-1.4-6.4-2.7-7.6-1.1-1.1-13-9.8-26.5-19.3-13.5-9.5-33.7-23.8-45-31.8-11.3-7.9-25.9-18.3-32.5-22.9-6.6-4.7-15.7-11.1-20.3-14.4-4.5-3.2-8.9-5.8-9.7-5.8-0.8 0-1.5 0.6-1.5 1.2 0 0.7 2.3 13.2 5.1 27.8zm236.8 8.5c0.6 2.2 1.6 6.9 2.1 10.5 0.5 3.8 0.6 9 0.1 12.5-0.5 3.3-1.3 7.3-1.8 8.9-0.7 2.6-0.6 2.8 1.1 2.5 1.1-0.2 3.5-2.4 5.4-4.9 1.8-2.5 4.2-7.4 5.3-11 1.1-3.8 1.9-9.4 1.9-13.5 0-4.6-0.5-7.8-1.5-9.3-1.3-1.8-2.4-2.2-7-2.2-3.5 0-5.8 0.5-6.1 1.2-0.3 0.7 0 3.1 0.5 5.3zm-51.8 3.4c0.4 3.1 1.7 8.3 2.8 11.6 1.2 3.3 3.4 8 5 10.5 1.5 2.5 3.5 4.6 4.4 4.7 1 0.2 2.9-0.9 4.3-2.5 2.3-2.4 2.7-2.5 4-1.2 1.3 1.3 1.3 2-0.1 5.5-0.8 2.2-1.3 4.6-1 5.2 0.3 0.7 2.4 2.2 4.7 3.3 2.4 1.1 6.4 2 9 2 3.8 0 5.4-0.6 7.9-2.8 1.7-1.5 4-5.2 5.1-8.2 1.5-4 2.1-8 2.2-14.5 0-6.3-0.5-10.7-1.8-14.5-1-3-2.4-6.1-3-6.8-0.8-1-6-1.3-21.2-1.2-17.4 0-20.4 0.2-21.5 1.6-1 1.2-1.2 3.2-0.8 7.3zm79.1 45.6c-1.2 0.8-2.7 2.7-3.3 4.2-0.5 1.6-0.8 4.5-0.5 6.5 0.4 2.3 1.3 4 2.3 4.4 1 0.4 6.7-0.1 12.8-1.1 6.5-1 11.7-2.4 12.8-3.4 1.1-1 1.5-2.4 1.2-3.6-0.4-1.1-1.2-3.3-1.8-4.9-0.7-1.6-2.4-3.5-4-4.2-1.5-0.8-3.9-1.4-5.5-1.3-1.5 0.1-4.7 0.5-7.2 1-2.5 0.5-5.5 1.6-6.8 2.4zm-48.2 3.9c-1.6 1.7-2.2 3.1-1.8 4.1 0.5 0.9 2.7 1.7 5.5 2 2.7 0.3 7.3 1 10.3 1.5 3 0.6 6.3 1.8 7.4 2.8 1 0.9 2.4 2.9 3.2 4.4 0.8 1.6 1.4 3.7 1.4 4.8 0 1.1-0.8 3.7-1.8 5.7-1.2 2.6-2.9 4.2-5.7 5.4-3.4 1.5-5.2 1.6-12.5 0.8-6.5-0.7-8.8-0.6-9.7 0.3-1 1-0.7 4.8 1.5 17.9 1.5 9.1 3.3 17.3 3.9 18.2 1 1.3 1.9 1.5 4 0.8 1.6-0.5 7.1-2.6 12.3-4.6 5.2-2.1 11.7-4.4 14.5-5.1 3.3-0.9 6.2-1 8.5-0.5 1.9 0.5 4.1 0.6 4.8 0.2 1.1-0.5 0.6-5.2-2.7-24.6-2.2-13.2-4.5-25.2-5-26.8-0.6-1.5-2.6-4.3-4.4-6.4-1.7-2-5-4.4-7.2-5.4-2.4-1.1-6.3-1.9-10-1.9-3.7 0-7.5 0.7-10 1.9-2.2 1-5.1 3-6.5 4.5zm-75.9 7.8c-0.7 1.3-1 3.3-0.7 4.5 0.3 1.3 1.6 2.9 2.8 3.7 1.3 0.7 4.5 1.7 7.3 2 3.5 0.5 5.3 0.3 6.1-0.6 0.6-0.7 1.5-3.3 1.8-5.8 0.5-3.2 0.3-4.8-0.6-5.6-0.7-0.6-3.6-1.4-6.3-1.7-2.8-0.3-5.9-0.1-7 0.3-1.2 0.5-2.7 1.9-3.4 3.2zm22.5 5.5q-0.6 4.3 0.6 5.2c0.7 0.6 16.2 2.6 34.3 4.6 29.9 3.2 33.2 3.4 35.2 2 1.3-0.8 2.6-2.7 2.9-4.3 0.3-1.7 0-3.5-1-5-0.9-1.2-2.8-2.4-4.4-2.7-1.5-0.2-15.4-1.8-31-3.5-15.5-1.6-29.8-3-31.7-3-2 0-3.7 0.6-3.9 1.2-0.3 0.7-0.7 3.2-1 5.5zm101.6 5.5c-0.9 0.8-1.1 2.5-0.8 4.5 0.3 1.8 1.4 3.6 2.3 4 1 0.3 6.5-0.2 12.3-1.2 5.8-0.9 11.3-2.1 12.2-2.6 1-0.5 1.8-1.9 1.8-3.2 0-1.2-0.7-3.2-1.5-4.5-0.8-1.2-2.1-2.2-2.8-2.1-0.6 0.1-5.9 1-11.7 2-5.8 1-11.1 2.5-11.8 3.1zm-55.2 61c-20.1 7.7-38.1 14.8-40 15.8-1.9 0.9-4.7 3.1-6.3 4.9-1.5 1.7-3 4.6-3.3 6.3-0.3 2 1.1 12.1 3.5 24.8 2.3 11.8 4.7 22.1 5.4 22.8 0.9 0.9 2.8 1 7.1 0.5 3.3-0.5 6.7-1.3 7.5-2 1.5-1 1.4-2.8-0.4-18.7l-2-17.6c3.3-3 16.1-7 36.5-12.5 17.9-4.8 35.4-9.6 38.9-10.6 5.1-1.6 6.9-2.6 8.5-5.2 1.1-1.7 2.2-5 2.4-7.2 0.3-2.7-0.2-5.5-1.7-8.8-1.1-2.6-3.1-5.4-4.4-6.2-1.2-0.8-3.8-1.7-5.7-2-1.9-0.2-4.9 0.1-6.5 0.6-1.6 0.6-19.4 7.4-39.5 15.1zm44.4 20.3c-4.9 1.4-7.3 2.7-7.8 4-0.5 1.5 4.3 11.2 18.6 37.4 10.6 19.4 20.1 35.9 21 36.5 1.4 0.9 3.1 0.4 8.3-2.2 3.6-1.7 6.8-4 7.1-5 0.4-1.1-5.5-14.9-16.2-38-9.3-19.9-17.5-36.5-18.2-36.7-0.6-0.3-1.3-0.5-1.5-0.5-0.1 0-1.1 0.6-2.2 1.2-1.1 0.6-5.2 2.1-9.1 3.3zm-65.6 19.7c-0.4 0.7-0.6 2-0.4 2.8 0.3 0.8 1 7.1 1.7 14 1.1 10.8 1.7 12.9 3.8 15.5 2.4 2.8 2.6 4.3 4.3 26 0.9 12.6 1.8 26.4 1.8 30.5 0 5.6-0.5 8.5-2 11.5-1.4 2.8-1.7 4.3-0.9 5 0.6 0.6 12 1.1 28.7 1.3 15.2 0.2 28.7 0.5 29.9 0.7 1.7 0.4 3.3 2.7 6.5 9.6 2.9 6 5 9.2 6.3 9.6 1.1 0.3 2.4 0.3 3 0 0.6-0.2 1.3-2.2 1.7-4.3 0.4-2.2 1.7-5.4 2.8-7.2 1.4-2.2 4.8-4.7 11.2-8.1 5.1-2.7 9.6-5.5 10-6.2 0.3-0.8-3.3-8-8.8-17.4-7.1-12.1-9.4-16.9-9.4-19.5 0-2.7-4.5-11.9-19.6-39.5-10.7-19.8-20.3-36.6-21.2-37.3-0.9-0.7-1.9-1.2-2.2-1.1-0.3 0-10.9 2.9-23.5 6.4-12.6 3.5-23.3 7-23.7 7.7zm-21.6 43.1c-1 1-0.4 4.9 2.9 20.2 3.4 15.8 3.9 19.2 2.7 20.2-0.7 0.7-6 1.9-11.8 2.8-5.8 0.9-11.5 1.8-12.8 2-1.2 0.3-3.3 1.6-4.7 3-1.6 1.6-2.5 3.6-2.5 5.5q0 3 3 6c1.7 1.6 4 3 5.2 3 1.3 0 10.2-1.2 19.8-2.6 9.6-1.4 19-3.2 20.7-4 2.2-0.9 3.5-2.3 4-4.2 0.3-1.5-0.2-14.1-1.3-28.1-1.2-16.7-2.3-25.9-3.2-26.8-0.6-0.7-1.8-1.2-2.5-1.2-0.6 0.1-5 0.8-9.7 1.6-4.7 0.7-9.1 1.9-9.8 2.6zm120.7 23.7c-0.5 1 2.2 6.5 8.7 17.5 5.2 8.8 9.3 16.9 9.2 18-0.2 1.4-3.7 3.9-12.2 8.5-9.9 5.4-12.2 7.1-13.3 9.7-1.1 2.8-1.1 3.8 0.2 6.3 0.8 1.6 2.4 3.4 3.5 4 1.1 0.6 3.1 1 4.5 1 1.4 0 10.6-4.1 20.5-9 12.1-6 18.4-9.7 19.1-11.3 0.6-1.2 0.8-3.8 0.5-5.7-0.4-1.9-4.9-13.6-10-26-8.3-19.9-9.6-22.5-11.7-22.7-1.3-0.2-5.9 1.6-10.3 4-4.3 2.3-8.2 4.9-8.7 5.7zm-77.5-241.7c0.6 0.2 1.2 1.4 1.4 2.8q0.3 2.4-2.5 5.2c-1.5 1.5-3.9 3-5.3 3.3-1.4 0.3-4.2-0.2-6.3-1-2.9-1.3-3.6-2.1-3.4-3.9 0.1-1.3 0.8-2.1 1.7-2 0.8 0 2.9 0.4 4.5 0.8 2.6 0.7 3.4 0.3 5.9-2.4 1.6-1.7 3.4-3 4-2.8z"/>
</svg>