<svg version="1.2" xmlns="http://www.w3.org/2000/svg" viewBox="0 0 600 600" width="600" height="600">
	<title>New Project</title>
	<style>
		.s0 { fill: #f7c600 } 
		.s1 { fill: #090909 } 
		.s2 { fill: #b5267e } 
		.s3 { fill: #21a9fc } 
		.s4 { fill: #d5de58 } 
		.s5 { fill: #87796f } 
		.s6 { fill: #e3c7f7 } 
	</style>
	<path id="Path 0" class="s0" d="m27 25.1c-2.7 2.3-3.4 3.7-3.2 6 0.1 1.6 1.6 4.5 3.2 6.4 1.6 1.9 3.9 3.5 5 3.5 1.1 0 3.8-1.4 6-3 3.2-2.4 4-3.6 4-6.3 0-2.2-1-4.2-3-6.5q-3-3.2-5.8-3.2c-1.6 0-4.1 1.3-6.2 3.1zm0 53.2c-2.6 2.5-3.4 4-3.2 6.2 0.1 1.7 1.5 4.4 3.2 6.2 1.8 2.1 4 3.3 5.5 3.3 1.4 0 4.1-1.4 6-3 2.7-2.3 3.5-3.8 3.5-6.3 0-2.3-0.9-4.1-3.2-6.4-2-2-4.3-3.3-5.9-3.3-1.5 0-3.8 1.3-5.9 3.3zm536.5 472.1c-2.3 2.4-4.3 5.2-4.4 6.2-0.1 1.1 1.6 4 3.9 6.6 2.2 2.7 4.8 4.8 5.7 4.8 1 0.1 3.9-1.6 6.5-3.7 3.8-3 4.8-4.4 4.8-6.8 0-2.1-1.2-4.3-4-7.3-2.3-2.4-4.9-4.2-6.1-4.2-1.2 0-4 1.9-6.4 4.4zm-28.5 20.2c-1.2 1.5-2.2 3.4-2.1 4.3 0 0.9 0.8 2.6 1.6 3.8 1 1.6 2.5 2.3 4.7 2.3 1.9 0.1 4-0.7 5-1.7 1-1 1.8-3.3 1.8-5.1 0-2.2-0.7-3.7-2.3-4.7-1.2-0.8-3.2-1.5-4.4-1.5-1.2 0-3.1 1.2-4.3 2.6zm-467-521.5c-4.2 4.2-7.2 7.9-7.1 9 0.1 1 2.2 4.3 4.7 7.1 2.5 2.9 5.4 6.3 6.5 7.5 1 1.3 2.6 2.3 3.4 2.3 0.8 0 4-2.4 7.1-5.3 3.1-2.8 6.7-6.2 8-7.5 1.3-1.2 2.4-2.8 2.4-3.5 0-0.6-3.2-4.7-7.2-8.9-4-4.3-8-7.7-8.9-7.8-1 0-4.9 3.2-8.9 7.1zm467 484.9c-1.1 1.1-2 2.9-2 4 0 1.1 1.1 3.1 2.5 4.5 1.4 1.4 3.4 2.5 4.5 2.5 1.1 0 2.9-0.9 4-2 1.1-1.1 2-3.2 2-4.8 0.1-1.5-0.7-3.5-1.7-4.4-1-1-3-1.8-4.6-1.8-1.5 0-3.6 0.9-4.7 2z"/>
	<path id="Path 0" fill-rule="evenodd" class="s1" d="m32.9 9.2c0.8 0.2 3.1 3.2 5.2 6.8 2 3.7 5.1 7.5 7 8.8 1.9 1.2 4.1 2.2 4.9 2.2 0.8-0.1 2.1 0.6 2.8 1.5 0.6 0.8 1 2.2 0.7 3-0.3 0.8-3 3.1-6 5-3 1.9-6.6 4.7-8.1 6.3-1.4 1.5-2.9 4.4-3.5 6.5-0.5 2-1.6 3.9-2.4 4.2-0.8 0.3-1.9 0.3-2.5 0-0.6-0.3-2.2-3.1-3.6-6.3-1.4-3.1-3.5-6.8-4.7-8.1-1.2-1.3-4.1-3.2-6.4-4.2-2.4-1.1-4.5-2.4-4.8-2.9-0.3-0.6-0.3-1.6 0-2.3 0.2-0.6 2.6-2.1 5.2-3.2 2.6-1.1 6-3.2 7.6-4.7 1.5-1.6 3.2-4.5 3.8-6.6 0.7-2 1.6-4.3 2.2-5 0.6-0.7 1.7-1.2 2.6-1zm-7.8 21.8c0 0.8 1.3 3 2.9 4.7 1.7 1.8 3.8 3.3 4.8 3.3 0.9 0 3.2-1.4 4.9-3.2 1.8-1.8 3.3-3.6 3.3-4.1 0-0.4-1.5-2.5-3.2-4.7-1.8-2.2-4-3.9-4.8-3.9-0.8 0-2.9 1.5-4.7 3.2-1.8 1.8-3.2 3.9-3.2 4.7zm6.5 31c0.2 0 1.1 0.3 2 0.7 1 0.5 2.9 3.3 4.4 6.3 1.6 3 3.9 6.5 5.1 7.7 1.3 1.2 4.2 2.8 6.4 3.5 3.2 1.1 4 1.8 4 3.8 0 2-1.1 3.1-5 5.2-2.7 1.5-6.5 4.3-8.2 6.2-1.8 2-3.6 5-4 6.7-0.5 1.7-1.4 3.5-2 4-0.7 0.5-2 0.7-2.8 0.4-0.8-0.3-2.4-2.6-3.6-5.3-1.1-2.6-3.1-6.2-4.5-8-1.4-1.8-4.3-3.9-6.9-5-2.5-0.9-4.8-2.4-5.1-3.2-0.2-0.8 0.1-2 0.7-2.5 0.6-0.5 3.4-2.1 6.2-3.5 3.1-1.5 6.2-4 7.5-6 1.3-1.9 2.6-4.6 2.9-6 0.3-1.4 1-3.1 1.6-3.8 0.5-0.6 1.1-1.2 1.3-1.2zm-6.8 22.3c0.1 0.4 1.4 2.2 2.8 3.9 1.5 1.8 3.4 3.7 4.3 4.1 1.2 0.7 2.6-0.1 5.4-3 2-2.1 3.7-4.3 3.7-4.8 0-0.5-1.7-2.7-3.7-4.7-2.1-2.1-4-3.8-4.3-3.8-0.4 0-2.4 1.7-4.5 3.8-2.2 2.1-3.8 4.1-3.7 4.5zm546.5 453.8c1 1.3 3.2 4.6 5 7.3 2.2 3.4 4.8 5.8 8.1 7.5 2.6 1.4 4.8 2.9 4.7 3.3 0 0.5-0.1 1.1-0.1 1.5 0 0.5-1.8 1.7-4.1 2.8-2.3 1.1-5.8 3.8-7.9 6-2 2.2-4.2 5.7-4.8 7.7-0.8 2.7-1.7 3.7-2.9 3.5-1-0.1-2.9-2.6-4.4-5.7-1.4-3-4.2-7-6.3-8.8-2-1.7-4.4-3.2-5.4-3.2-0.9 0.1-2.3-0.6-3-1.5-0.6-0.8-1-2-0.7-2.5 0.3-0.5 2.6-2.1 5.2-3.4 2.7-1.3 6.3-4 8-6 1.8-2 3.3-4.5 3.2-5.5 0-1.1 0.8-2.7 1.8-3.7 1.7-1.6 1.9-1.5 3.6 0.7zm-10.5 18.7c0.1 0.7 1.7 3 3.4 5.2 1.8 2.2 4 4 4.8 3.9 0.8 0 3.4-1.7 5.7-3.7 2.3-2 4.2-4.2 4.3-4.7 0-0.5-1.9-3.1-4.2-5.7-2.4-2.6-4.5-4.8-4.8-4.8-0.3 0-2.6 1.9-5 4.3-2.4 2.3-4.3 4.8-4.2 5.5zm-21.2 3.2c0.8 0 2.5 1.7 3.8 3.7 1.3 2.1 3.2 4.5 4.2 5.4 1.1 0.9 2.9 1.9 4.1 2.3 1.5 0.4 2.3 1.4 2.3 2.8 0 1.6-1.1 3-4 4.5-2.2 1.3-4.7 3.4-5.5 4.8-0.8 1.4-2.2 3.6-3 5-0.8 1.4-2.1 2.3-2.8 2-0.6-0.2-1.8-1.9-2.6-3.7-0.8-1.8-2.4-4.3-3.5-5.6-1.2-1.2-3.4-2.8-4.9-3.5-1.5-0.7-2.8-2-2.7-3 0-1 1.8-2.7 4.2-4 2.8-1.4 5.1-3.7 6.6-6.5 1.3-2.3 3-4.2 3.8-4.2zm-4.8 15.1c0.1 0.8 1.1 2.3 2.2 3.4 2 1.9 2.3 1.9 4.8 0.5 1.5-0.9 2.8-2.5 3-3.5 0.2-1.1-0.5-2.8-1.5-3.8-1-1-2.5-1.8-3.4-1.7-0.9 0-2.4 0.8-3.4 1.8-1 1-1.8 2.5-1.7 3.3zm-458.6-545.9c1.5 0.2 3.3 2.5 6 7.8 2.1 4.1 5.3 9 7 10.7 1.8 1.8 5.1 4 7.3 4.9 2.2 0.9 5 2 6.3 2.5 1.2 0.5 2.2 1.8 2.2 2.9 0 1.4-1.7 2.9-6.2 5.2-3.4 1.8-8.6 5.5-11.6 8.3-4 3.7-5.8 6.4-7.2 10.5-1 3-2.6 5.9-3.4 6.5-1.1 0.7-1.9 0.6-2.9-0.5-0.8-0.8-2.5-4.4-3.8-8-1.5-4.1-4-8.2-6.9-11.3-3.4-3.6-5.8-5.2-10-6.5-4.3-1.3-5.5-2.1-5.5-3.7 0-1.5 1.8-2.9 7.2-5.5 4-1.9 8.8-5.1 10.8-7 2-1.9 4.3-5.5 5.1-8 0.9-2.5 2-5.5 2.6-6.8 0.6-1.6 1.6-2.2 3-2zm-14.2 28.8c7.5 8.1 10.2 11.5 10.8 12.7 0.7 1.3 1.7 2.3 2.2 2.3 0.6 0 4.4-3 8.5-6.8 4.1-3.7 7.5-7 7.5-7.5 0-0.4-2.1-2.7-4.7-5.1-2.7-2.4-5.5-5.5-6.3-7-0.8-1.5-2.2-2.6-3-2.5-0.8 0-4.5 3.2-8.2 7zm478.5 465.8c0.9 0.4 2.7 2.6 4 5 1.6 2.7 3.7 4.7 6 5.7q3.5 1.5 3.5 3.5c0 1.3-1.7 3-4.8 4.9-2.9 1.8-5.4 4.4-6.5 6.5-1 2.1-2.5 3.6-3.5 3.6-1.1 0-2.7-1.9-4.2-4.8-1.7-3.1-3.8-5.4-6.3-6.7-2.1-1.1-3.7-2.8-3.7-3.7 0-1.1 1.5-2.5 3.7-3.5 2-1 4.7-3.4 5.9-5.3 1.3-1.9 2.8-4 3.3-4.7 0.6-0.7 1.7-0.9 2.6-0.5zm-5.8 14.3c0.1 0.8 1.1 2.4 2.2 3.7 1.1 1.2 2.6 1.9 3.3 1.5 0.7-0.3 2.1-1.3 3-2.2 1-0.9 1.8-2 1.8-2.6 0-0.5-0.9-2-2-3.2-1.1-1.3-2.7-2.3-3.4-2.3-0.7 0-2.2 0.8-3.2 1.8-1 1-1.7 2.5-1.7 3.3z"/>
	<path id="Path 0" class="s2" d="m437 227.5c-0.4 0.5-1 1.9-1.2 3-0.3 1.8-1.4 2.1-12.3 2.6-7.9 0.4-13.4 1.2-16 2.3-2.2 0.9-5.5 3.1-7.4 4.9-1.8 1.8-4.2 5-5.2 7.2-1.5 3.3-1.9 6.5-1.9 18.3v14.2c3.9 1.6 7.1 2 9.8 2 2.6 0 5.7-0.7 7-1.5 1.9-1.3 2.2-2.4 2.2-8.5 0-3.9 0.4-7.2 1-7.5 0.6-0.3 1 2.3 1 7 0 6.7 0.3 7.7 2.3 9 1.9 1.3 7.1 1.5 34.5 1.3 31.1-0.3 32.4-0.4 33.8-2.3 0.9-1.2 1.4-4.4 1.4-8.3 0-3.5 0.4-6.2 1-6.2 0.6 0 1 2.7 1 6 0 3.3 0.4 6.9 1 8 0.9 1.7 2 2 8.5 2 6.8 0 7.6-0.2 8.6-2.3 0.8-1.4 1-6.6 0.7-14.7-0.3-10.3-0.7-13.2-2.5-16.5-1.2-2.2-3.6-5.4-5.5-7.2-1.8-1.8-5.1-4-7.3-4.9-2.6-1.1-8.2-1.9-15.9-2.3-9.3-0.5-12-0.9-12.3-2.1-0.2-0.8-0.8-2.2-1.2-3-0.7-1.2-3.2-1.5-12.6-1.5-6.9-0.1-12 0.3-12.5 1zm-300.9 231.9l-0.7 3.1c-22.5 0.9-25.7 1.4-28.9 3.1-2.2 1.2-5.7 4-7.8 6.3-2 2.2-4.1 5.8-4.7 7.8-0.5 2.1-1 9.4-1 16.3 0 8.8 0.3 12.9 1.2 13.8 0.8 0.7 4 1.2 8.3 1.3 5.4 0 7.3-0.4 8.5-1.7 0.9-1 1.8-4.7 2.1-8.8l0.6-7.1c0.3 12.2 0.8 15 1.8 16 1.3 1.3 6.5 1.5 34.4 1.5 27.9 0 33.2-0.2 34.5-1.5 1.2-1.1 1.6-3.4 1.6-8.5 0-4 0.4-7 1-7 0.6 0 1 3 1 7 0 4.9 0.5 7.5 1.5 8.5 1 1 3.5 1.5 7.9 1.5 4.4 0 7-0.5 8-1.5 1.3-1.2 1.6-3.9 1.6-13.3 0-7.8-0.5-13.2-1.5-16.2-0.8-2.5-2.8-6.1-4.3-8-1.6-1.9-5.3-4.7-8.3-6.3-5-2.5-6.3-2.7-16.7-2.7h-11.2l-2.8-6.5-25.5-0.2z"/>
	<path id="Path 0" class="s3" d="m287 227.5c-0.4 0.5-1 1.9-1.2 3-0.3 1.8-1.4 2.1-12.3 2.6-8.4 0.4-13.3 1.2-16.4 2.5-2.5 1-6.1 3.7-8 6-2 2.2-4.2 5.8-4.8 8-0.7 2.2-1.3 9.5-1.3 17.1 0 13.3 0 13.3 2.5 14.3 1.4 0.6 4.6 1 7.2 1 2.7 0 5.8-0.7 7-1.5 2-1.3 2.3-2.4 2.3-8.5 0-3.9 0.4-7.2 1-7.5 0.6-0.3 1 2.2 1 6.5 0 5.7 0.4 7.4 2 9 1.9 1.9 3.3 2 33.8 2 26.6 0 32.1-0.2 34-1.5 1.9-1.3 2.2-2.3 2.2-9 0-4.3 0.4-7.5 1-7.5 0.6 0 1 3 1 7 0 5.7 0.4 7.4 2 9 1.5 1.5 3.3 2 7.3 2 3 0 6.2-0.6 7.5-1.5 2.1-1.4 2.2-2.2 2.2-13.5 0-9.4-0.4-13.1-1.9-17.3-1.3-3.4-3.6-6.7-6.5-9.5-3.1-2.8-6.4-4.7-9.8-5.7-3.1-0.9-9.2-1.5-14.8-1.5h-9.5l-3-6.5c-18.9-0.1-24 0.3-24.5 1zm151.4 228.2c-0.6 0.5-1.5 2.2-2.1 3.8l-1 3c-22.5 0.9-25.5 1.4-28.8 3.2-2.2 1.2-5.2 3.4-6.7 5-1.5 1.5-3.6 4.8-4.7 7.3-1.7 3.8-2.1 6.6-2.1 17.3 0 10 0.3 13 1.5 14.2 1 1 3.6 1.5 8.2 1.5 5.2 0.1 7.2-0.3 8.5-1.7 1.3-1.3 1.8-3.5 1.8-8.5 0-3.9 0.4-6.8 1-6.8 0.6 0 1 3 1 7 0 4.9 0.5 7.5 1.5 8.5 1.3 1.3 6.5 1.5 34.3 1.5 24.9 0 33.1-0.3 34-1.2 0.7-0.7 1.2-3.9 1.2-7 0-3.2 0.2-6.5 0.5-7.3 0.3-0.8 0.9-1.3 1.5-1 0.6 0.3 1 3.6 1 7.5 0 6 0.3 7.1 2 8 1.1 0.6 4.4 1 7.4 1 3.5 0 6-0.5 7-1.5 1.3-1.2 1.6-3.9 1.6-13.7 0-6.9-0.6-14-1.3-16.2-0.6-2.1-2.8-5.7-4.7-7.9-1.9-2.2-5.7-5.1-8.5-6.4-4.3-1.9-6.6-2.3-16.2-2.3h-11.2l-3.1-7c-12.8 0.4-17.9 0.1-19.5-0.3-1.6-0.4-3.5-0.4-4.1 0z"/>
	<path id="Path 0" class="s4" d="m137 227.5c-0.4 0.5-1 1.9-1.2 3-0.3 1.8-1.4 2.1-12.3 2.6-9.9 0.5-12.9 1-16.9 3-2.7 1.3-6.4 4.1-8.3 6.2-1.8 2-3.7 5.4-4.3 7.4-0.5 2.1-1 9.5-1 16.6 0 10 0.3 13 1.5 14.2 1 1 3.5 1.5 7.8 1.5 3.8 0 7-0.5 8.2-1.4 1.6-1.1 2.1-3 2.6-9.3l0.6-7.8c0.3 14.6 0.6 15.7 2.6 17 1.8 1.3 7.3 1.5 33.7 1.5 26.4 0 31.9-0.2 33.8-1.5 1.9-1.3 2.2-2.4 2.2-8.5 0-3.9 0.4-7.2 1-7.5 0.6-0.3 1 2.3 1 7 0 6.7 0.3 7.7 2.3 9 1.2 0.9 4.4 1.5 7.2 1.5 2.8 0 6-0.6 7.3-1.5 2.1-1.4 2.2-2.1 2.2-14.3 0-11.2-0.3-13.3-2.4-17.7-1.3-2.8-3.5-6.2-5-7.8-1.4-1.5-4.7-3.7-7.3-4.9-3.9-1.8-7-2.3-16.1-2.5l-11.2-0.3-2.6-6.5c-19.6 0-25 0.4-25.4 1zm148.3 232.2l-1.3 3.3c-23.6 0.5-24.9 0.7-29.3 3.3-2.6 1.5-5.8 4.2-7.1 6-1.4 1.7-3.2 5.2-4.1 7.7-1.1 3.1-1.5 8.1-1.5 16.3 0 9 0.3 12 1.5 13.2 1 1 3.6 1.5 8.4 1.5 4.8 0 7.4-0.5 8.5-1.5 1.2-1.1 1.6-3.4 1.6-8.5 0-4 0.4-7 1-7 0.6 0 1 3 1 7 0 4.9 0.5 7.5 1.5 8.5 1.3 1.3 6.5 1.5 34.4 1.5 27.9 0 33.2-0.2 34.5-1.5 1.2-1.1 1.6-3.4 1.6-8.5 0-4.3 0.4-6.8 1-6.5 0.6 0.3 1 3.4 1 7 0 4.4 0.5 7 1.5 8 1.1 1.1 3.3 1.4 8.2 1.3 6.1-0.3 6.9-0.6 8.1-2.8 1-1.9 1.2-5.4 0.8-13.5-0.3-6.1-1.3-13-2.1-15.5-0.9-2.5-3-6-4.8-7.8-1.8-1.9-5-4.3-7.2-5.5-3.3-1.8-6.3-2.3-16.4-2.7l-12.5-0.5-1.5-6-25.4-0.1z"/>
	<path id="Path 0" class="s5" d="m287 90.8c-3 1-7.9 3.1-10.9 4.8-2.9 1.6-7.7 5.4-10.5 8.4-3.8 4.1-6 7.7-8.4 13.8-2.9 7.3-3.2 9.1-2.9 17 0.2 8.5 0.3 8.7 2.7 9 1.8 0.2 3.6-0.8 6.5-3.6 2.2-2.1 5.4-4.8 7-5.9 1.6-1.1 4.6-2.6 6.5-3.3 2-0.7 11-1.6 21-2 14.9-0.6 18.2-1 22.5-2.9 2.8-1.2 6.8-3.6 9-5.3 2.2-1.8 3.2-2.3 2.3-1.2-1 1-1.8 3.1-1.8 4.7 0 1.8 1.8 4.9 5.8 9.8 4.7 5.8 6.1 7 8.2 6.7 2.2-0.3 2.5-0.9 2.8-4.8 0.2-2.7-0.5-7.1-1.8-11-1.2-3.6-2.9-7.3-3.8-8.3-1-1-2.6-1.8-3.8-1.7-1.1 0-2.4 0.4-3 0.9-0.5 0.6-0.8-0.6-0.6-3.2 0.2-2.3 0.1-5.2-0.2-6.4-0.3-1.3-2.3-4.2-4.5-6.5-2.3-2.6-6.4-5.5-10.2-7.3-5.5-2.5-7.8-2.9-16.4-3.2-7.6-0.2-11.3 0.1-15.5 1.5zm147 5.1c-3 0.9-8 3.1-11 4.8-3 1.7-8 5.8-11.1 9-3.1 3.2-7.1 8.7-8.9 12.3-1.9 3.8-3.9 9.8-4.7 14.5-0.8 4.4-1.2 10.3-0.9 13 0.3 2.8 1.4 5.8 2.3 6.8 1.3 1.3 2.6 1.7 4.5 1.3 1.6-0.3 7.6-2.7 13.5-5.2 6-2.6 14.9-6.7 19.8-9.1 4.9-2.5 12.8-6.9 17.5-9.7l8.5-5.2c-0.7 5.3-0.1 6.7 1.6 8.4 1.3 1.3 6.7 5.2 11.9 8.7 5.2 3.4 11.4 7.2 13.7 8.4 2.4 1.1 5.4 2.1 6.8 2.1 1.6 0 2.9-0.8 3.6-2.2 0.8-1.5 1-5.4 0.7-10.8-0.4-5.5-1.4-10.8-3-15-1.4-3.6-3.8-8.4-5.4-10.8-2.4-3.5-3.5-4.3-6-4.2-1.6 0-3.6 0.6-4.3 1.3-0.7 0.6-0.4-0.2 0.6-1.9 1.7-3 1.7-3.3 0-5.8-0.9-1.4-4.1-4-7-5.6-2.8-1.7-8.1-3.9-11.7-5-4.7-1.5-9.1-2-16-2-6.1 0.1-11.5 0.7-15 1.9zm-296.8 228.7c-2.8 0.8-8.2 2.9-11.9 4.7-3.9 1.9-9 5.5-12.5 9-4.1 4-7 8.2-9.8 14-2.7 5.6-4.3 10.6-5 15.7-0.6 4.1-0.8 9.5-0.4 12 0.4 2.5 1.2 5.1 1.8 5.8 0.6 0.7 2.2 1.3 3.6 1.3 1.4 0 6.3-1.6 11-3.4 4.7-1.9 14.4-6.3 21.5-9.9 7.2-3.5 16.8-8.8 21.5-11.7 4.7-2.9 7.9-4.7 7.2-3.9-0.7 0.7-1.2 2.5-1.2 4.1 0 2.1 1.2 3.6 5.8 7.1 3.1 2.4 9.8 6.8 14.7 9.9 5 3.1 10.4 5.9 12 6.3 2.4 0.5 3.3 0.2 4.8-1.7 1.2-1.6 1.7-4.2 1.7-8.1 0-3.2-0.5-8.2-1.1-11-0.6-2.9-2.6-8.6-4.5-12.5-2.2-4.6-4.4-7.9-6.1-8.9-1.6-1-3.6-1.4-4.5-1-1.5 0.5-1.7 0.2-1.2-2.1 0.4-2.2 0-3.4-2.3-5.6-1.5-1.6-5.5-4.2-8.8-5.8-3.3-1.6-8.7-3.5-12-4.4-3.3-0.8-8.9-1.5-12.5-1.4-3.6 0-8.9 0.7-11.7 1.5zm114.3 87.6c-0.3 0.7-1.1 4.5-1.8 8.3-0.6 3.9-1.2 11.7-1.1 17.5 0 5.8 0.5 13.7 1.1 17.5 0.6 3.9 1.7 7.4 2.4 7.8 0.7 0.4 2.9 0.5 4.8 0.1 1.9-0.3 8.4-0.9 14.3-1.3 8-0.4 11-1 11.7-2.1 0.5-0.8 1-3.2 1-5.2 0-3.3-0.8-4.6-6.1-10-3.3-3.5-7.5-8.3-9.2-10.8-1.7-2.5-5.2-8.5-7.7-13.5-3.4-6.6-5.2-9.1-6.7-9.3-1.2-0.2-2.4 0.3-2.7 1zm90.6 0.1c-0.5 0.6-2.7 4.6-4.7 8.7-2.1 4.1-5.1 9.5-6.8 12-1.7 2.5-6.2 7.8-9.9 11.8-5.3 5.6-6.8 7.9-6.8 10.2 0 1.7 0.9 3.9 2 5 1.7 1.7 3.3 2 9.8 2 4.2 0 10.2 0.6 13.3 1.3 4.8 1 5.9 1 7.3-0.3 1.5-1.3 1.7-4.4 1.7-25.5-0.1-18-0.4-24.3-1.3-25.3-0.7-0.7-1.8-1.2-2.4-1.2-0.7 0-1.6 0.6-2.2 1.3zm-209.2-316c-3.6 1.2-8.8 3.6-11.5 5.4-2.8 1.7-7.3 5.5-10.1 8.5-2.8 2.9-6.2 7.6-7.6 10.3-1.4 2.8-3.3 7.5-4.2 10.5-1 3.2-1.6 9.2-1.6 14.5-0.1 7.3 0.3 9.3 1.7 10.8 1.3 1.3 2.6 1.7 4.6 1.3 1.5-0.3 7.5-2.7 13.5-5.2 5.9-2.6 15.2-6.9 20.7-9.7 5.5-2.7 13.4-7.1 17.5-9.6l7.5-4.7c-0.5 6.2 0.1 7.1 5.3 11.2 3.1 2.5 10.2 7.2 15.7 10.5 5.8 3.4 11.2 5.9 12.8 5.9q2.7 0 3.8-2.2c0.8-1.5 1-5.4 0.7-10.8-0.4-5.6-1.5-10.9-3.2-15.5-1.4-3.8-3.7-8.7-5.1-10.7-2-3.1-3.1-3.8-5.7-3.8-1.8 0-4.2 0.8-5.2 1.8-1.4 1.2-1.2 0.7 0.5-1.6 2.2-3.1 2.3-3.5 0.9-6-0.9-1.5-4-4.2-7-6-3-1.8-8.4-4.2-12-5.3-4.6-1.4-9.3-1.9-16-1.9-7.1 0-11.1 0.6-16 2.3zm-31 86.9c-0.9 0.8-1.3 3-1.2 6.3 0.1 3.1-0.4 5.8-1.3 7-1.1 1.4-1.5 4.6-1.5 11.3 0 5.3 0.5 10.1 1.2 11.5 0.7 1.2 1.5 4.6 1.8 7.6q0.5 5.4 2.2 6.5c1.3 0.8 3.3 0.8 7.5-0.1 3.2-0.7 9.3-1.3 13.6-1.3 6.9 0 7.9-0.2 9.3-2.2 1.1-1.6 1.3-3.3 0.8-5.8q-0.7-3.5-6.8-10c-3.4-3.6-7.6-8.5-9.3-11-1.6-2.5-4.5-7.4-6.3-11-1.8-3.6-4-7.3-4.9-8.3-0.9-1-2.1-1.8-2.6-1.7-0.6 0-1.7 0.5-2.5 1.2zm300 0c-1 0.9-1.3 3.6-1.2 10.5 0.1 6.7 0.6 9.7 1.7 10.8 0.9 0.9 3.4 1.5 6.3 1.5 2.6 0 5.3-0.6 6-1.2 0.7-0.7 1.2-2.1 1.2-3 0-1-1.6-5.1-3.6-9-2-4-4.4-8.1-5.3-9.1-0.9-1-2.1-1.8-2.7-1.7-0.5 0-1.6 0.5-2.4 1.2zm-212.9 6.1c-1.5 3.4-4.7 9.1-7.1 12.7-2.4 3.6-7.2 9.5-10.7 13.3-5.2 5.6-6.3 7.3-6.3 10.2 0 1.9 0.7 4.2 1.5 5 1.1 1.1 3.7 1.5 9.3 1.5 4.2 0 10.2 0.6 13.3 1.3 4.8 1 5.9 1 7.3-0.3 1.5-1.3 1.7-4.3 1.7-24.5-0.1-17.2-0.4-23.3-1.3-24.3-0.7-0.7-2.1-1.2-3.1-1.2-1.2 0-2.7 2-4.6 6.3zm298.9 1.7c-2.2 4.4-4 9.3-4 11 0 1.8 0.6 3.2 1.5 3.5 0.8 0.3 3.3 0.5 5.4 0.5 2.2 0 4.7-0.7 5.5-1.5 1.2-1.1 1.6-3.6 1.6-10.2 0-5.8-0.4-9.2-1.2-10.1-0.7-0.7-2.1-1.2-3-1.2-1.2 0-3.1 2.6-5.8 8zm-49.2 129c-2.1 0.6-6.2 2.1-9 3.5-2.9 1.3-7.8 4.6-10.8 7.3-3.2 2.8-6.8 7.4-8.7 10.8-1.7 3.2-3.8 8.4-4.7 11.4-0.9 3-1.6 8.4-1.6 12 0 3.9 0.5 7 1.2 7.8 0.7 0.7 2 1.2 2.8 1.2 0.8 0 2.9-1.4 4.5-3.1 1.7-1.7 4.8-4.3 7-5.9 2.2-1.5 6.1-3.5 8.8-4.4 3.3-1.1 9.2-1.7 20.5-1.9 14.2-0.3 16.3-0.6 22.2-3 3.6-1.4 6.5-2.5 6.5-2.4 0 0.1 0.7 1.4 1.5 2.8 0.8 1.5 3.3 4.9 5.5 7.7 2.2 2.7 4.8 6.4 5.8 8.1 1.1 2 2.5 3.1 4 3.1 1.2 0.1 2.8-0.5 3.5-1.2 0.9-1 1.1-3.4 0.6-9.3-0.4-4.4-1.3-9.8-2.1-12-0.8-2.2-2.3-5.2-3.4-6.7-1.3-2-2.8-2.8-4.9-2.8-2.5 0-3-0.4-3-2.5 0-1.4-0.8-4.2-1.9-6.2-1-2.1-3.4-5.1-5.2-6.7-1.9-1.6-5.9-4.1-8.9-5.5-4.6-2.1-7.1-2.6-16-2.8-5.8-0.1-12.2 0.2-14.2 0.7zm-151.8 4.6c-3 0.8-8.4 2.8-12 4.5-4.2 2-8.6 5.3-12.6 9.2-3.5 3.5-7.5 8.9-9.3 12.5-1.7 3.4-3.8 9-4.6 12.5-0.8 3.4-1.5 9.1-1.5 12.7 0 4.2 0.5 7.3 1.5 8.8 0.9 1.3 2.5 2.2 4 2.2 1.4 0 5.1-1 8.3-2.1 3.1-1.2 12.5-5.4 20.7-9.4 8.3-4 18.7-9.5 23.1-12.2 7.9-4.6 8.2-4.7 7.7-2.3-0.5 2 0.4 3.3 4.6 7 2.8 2.5 10.2 7.6 16.3 11.3 6.2 3.7 12.2 6.8 13.3 6.8 1.1 0 2.7-0.8 3.5-1.7 1.1-1.2 1.5-3.9 1.4-9.8-0.1-4.8-0.8-10.3-1.9-13.6-1-3-2.8-7.6-4.1-10.2-1.3-2.7-3.3-5.7-4.4-6.8-1.1-1.1-2.9-2-4-2-1.1 0-3.5 1.2-5.2 2.7l-3.3 2.7c4.3-4.7 5.5-7.1 5.5-8.6 0-2-0.9-3.5-3.2-5.2-1.8-1.3-5.7-3.6-8.5-5-2.9-1.4-7.9-3.3-11-4.1-3.2-0.8-8.7-1.5-12.3-1.4-3.6 0-9 0.7-12 1.5zm-185.5 88.1c-0.5 0.3-0.8 5.1-0.7 10.5 0.2 7.2 0.6 10.2 1.7 11.3 0.9 0.9 3.4 1.5 6.3 1.5 2.6 0 5.3-0.6 6-1.2 0.7-0.7 1.2-2.2 1.2-3.3 0-1.1-2-5.9-4.5-10.7-3.7-7.3-4.9-8.8-6.8-8.8-1.3 0-2.7 0.3-3.2 0.7zm90.7 0.6c-0.5 0.6-2.8 4.9-5.1 9.5-2.2 4.5-4.1 8.7-4.1 9.2 0 0.6 0.7 1.7 1.5 2.5 0.9 0.9 3.3 1.5 5.9 1.5 2.6 0 5.1-0.6 6-1.5 1.2-1.1 1.6-3.7 1.6-10.7q0-9.3-1.2-10.6c-0.7-0.7-1.8-1.2-2.4-1.2-0.7 0-1.6 0.6-2.2 1.3z"/>
	<path id="Path 0" fill-rule="evenodd" class="s6" d="m323.3 126c5.6 0 5.8 0.1 10.4 5.3 2.7 2.9 5.9 7.5 7.1 10.2 1.6 3.4 2.3 6.3 2 9.2-0.2 2.5 0.2 4.7 1 5.5 0.7 0.7 1.2 2.9 1.2 4.8 0 2.8 0.2 3.2 1.2 2.3 0.7-0.7 2.3-1.3 3.7-1.3 1.5 0 3.2 0.5 3.9 1.2 0.7 0.7 1.2 2.6 1.2 4.3 0 1.7-0.5 3.8-1.2 4.8-0.9 1.3-2.3 1.7-4.8 1.5-3.1-0.3-3.6-0.7-4.1-3.8-0.6-3.3-0.6-3.2-0.8 1.3 0 2.6-1 7.5-2.2 11-1.1 3.4-3.8 9.6-6 13.7-2.2 4.1-6.3 10.3-9.2 13.6-2.9 3.4-7.5 8-10.2 10.2-2.8 2.3-6.6 4.6-8.5 5.1-1.9 0.6-6 1.1-9 1.1-3.8 0-7-0.7-10.5-2.4-2.8-1.4-7.7-5.2-11-8.8-3.3-3.5-8.3-9.9-11-14.3-2.7-4.4-6.2-11.2-7.8-15-1.5-3.8-3-8.8-3.3-11-0.5-3.5-0.7-3.8-1.7-2.2-0.9 1.3-2.2 1.7-4.7 1.5-2.9-0.3-3.5-0.7-4-3.3-0.4-1.7-0.3-4.1 0-5.5 0.5-2.2 1.2-2.5 4.8-2.5 2.2 0 4.7-0.6 5.4-1.2 0.6-0.7 2.5-1.3 4-1.3 2.2 0 2.9-0.5 3-2.4 0.2-2-0.2-2.5-2.2-2.8-1.6-0.2-2.6-1-2.8-2.3-0.2-1.1-0.1-2.9 0.2-4 0.2-1.1 2.4-4.4 4.8-7.4 2.7-3.3 6.1-6.2 9.3-7.7 4.2-2.1 7.8-2.7 23.7-3.9 10.4-0.8 19.6-1.9 20.5-2.5 1-0.5 4.4-1 7.5-1zm-165.7 8c2.2 0 5.2 0.8 6.7 1.8 1.4 0.9 6.2 4.2 10.5 7.3 4.3 3.1 9.7 6.6 12 7.8 2.4 1.1 5.2 3.3 6.3 4.9 1.2 1.5 2.1 3.6 2 4.7 0 1.7 0.7 2 4.2 2 3.7 0 4.3 0.3 5.3 2.8 0.8 2.2 0.6 3.4-0.5 5.5-1.3 2.2-2.3 2.7-9.5 2.9l-2.1 6.9c-1.1 3.8-3.4 9.6-4.9 12.9-1.6 3.3-5.4 9.4-8.5 13.5-3.1 4.1-7.6 9.2-10.1 11.3-2.4 2.1-6.4 4.7-8.9 5.9-3.7 1.7-5.8 2-11.5 1.6-3.9-0.3-8.6-1.3-10.5-2.3-1.9-1-6.4-4.8-10-8.4-3.6-3.6-8.7-10.2-11.5-14.6-2.7-4.4-6.4-11.8-8.2-16.5-1.8-4.7-3.2-9.6-3.2-11-0.1-2.3-0.2-2.4-1.3-0.7-0.9 1.3-2.3 1.7-4.8 1.5-2.9-0.3-3.5-0.7-4-3.3-0.4-1.7-0.3-4.1 0-5.5 0.5-2.2 1.2-2.5 4.8-2.5 3.4 0 4.2-0.4 4.7-2.2 0.4-1.8 3.6-3.8 14.2-8.8 7.6-3.6 18.5-9 24.3-12 7.5-3.9 11.6-5.4 14.5-5.5zm300 0c4.4 0 5.6 0.5 10 4.1 2.7 2.3 9 6.6 14 9.6 4.9 3.1 10 6.5 11.3 7.7 1.2 1.1 2.2 3.2 2.2 4.6 0 2.3 0.4 2.5 4.2 2.5 4.2 0 4.3 0.1 4.6 3.5 0.2 1.9 0.1 4.5-0.2 5.8-0.5 1.6-1.3 2.2-3.4 2.2-1.5 0-3.5-0.8-4.5-1.8-1.7-1.6-1.8-1.6-1.7 0.8 0 1.4-0.9 5.4-2.1 9-1.2 3.6-3.6 9.4-5.4 13-1.8 3.6-5.3 9.2-7.8 12.5-2.5 3.3-6.7 7.9-9.4 10.1-2.6 2.3-6.8 5.1-9.3 6.3-3 1.4-6.5 2.1-10.5 2.1-3.9 0-7.5-0.7-10.3-2-2.3-1.1-6.5-4.1-9.3-6.7-2.8-2.7-7.1-7.5-9.6-10.8-2.5-3.3-6.2-9.4-8.3-13.5-2.1-4.1-4.6-10.2-5.5-13.5-1-3.3-1.9-6.3-2.1-6.7-0.2-0.5-1-0.3-1.7 0.2-0.6 0.6-2.3 0.9-3.7 0.8-1.4-0.2-3.1-1.4-4-3-1.1-2.1-1.3-3.3-0.5-5.5 0.9-2.3 1.7-2.8 5-3.1 3-0.2 4.3-0.8 5-2.5 0.5-1.2 2.6-3 4.5-3.9 1.9-1 10-4.8 18-8.5 8-3.7 17-8.2 20-10 4.2-2.4 6.7-3.2 10.5-3.3zm17 221c3.5-0.1 4.6 0.5 8.3 4.2 2.4 2.4 5.9 7.4 7.8 11.3 2.2 4.4 3.4 8.1 3.2 9.9-0.2 1.6-1 3.2-1.8 3.7-0.8 0.4-2.4 1.1-3.5 1.5-1.7 0.6-1.6 0.8 1.1 1.3 1.6 0.3 3.8 1.3 4.8 2.1 0.9 0.8 1.7 2.1 1.6 2.8 0 0.8 1 1 3.2 0.6 2.6-0.5 3.6-0.2 4.6 1.2 0.7 1.1 1.2 3 1.2 4.4 0 1.4-0.8 3.3-1.8 4.3-0.9 1-2.7 1.8-4 1.7-1.5 0-2.3-0.7-2.7-2.5-0.3-1.4-1-2.3-1.5-2-0.6 0.3-1 2.1-1 4 0 1.9-1.3 7.2-3 11.8-1.6 4.5-4.8 11.1-7.1 14.7-2.3 3.6-7.8 10.2-12.3 14.8-6.6 6.8-9 8.6-13.1 9.8-2.8 0.8-6.9 1.4-9.3 1.4-2.3 0-6.5-1.1-9.5-2.4-2.8-1.4-6.8-4-8.7-5.8-1.9-1.9-5.6-5.8-8.1-8.8-2.6-3-5.7-7.5-7-9.9-1.3-2.4-3.1-5.8-4-7.5-1-1.7-2.7-6-3.9-9.6-1.2-3.6-2.4-10-3.5-22h3.5c1.9 0 4.1 0.5 4.8 1.2 1 1.1 1.2 0.6 1.2-2.4 0-3.4-0.3-3.8-2.8-4-2.2-0.3-2.8-0.8-3-3.3-0.2-1.6-0.1-3.9 0.2-5 0.3-1.1 2.7-4.2 5.3-6.8 2.6-2.6 7.3-6 10.3-7.4 5-2.4 7.1-2.7 22-3.4 10.9-0.4 17.9-1.2 20.5-2.2 2.2-0.9 5.8-1.6 8-1.7zm-24.5 38.3c3.2-0.3 4-0.7 4-2.3 0-1.7-0.7-2-4-2-3.5 0-4 0.3-4 2.3 0 1.9 0.5 2.2 4 2zm-293-30.2c2.8-0.1 5.4 1.2 13.5 7 5.5 3.9 12 8.1 14.5 9.3 2.5 1.3 5.7 3.7 7.2 5.5 1.6 1.8 2.8 4.3 2.8 5.9 0 2.1 0.2 2.4 1.2 1.5 0.7-0.7 2.1-1.3 3.2-1.3 1.2-0.1 2.7 0.5 3.4 1.2 0.7 0.8 1.1 3.3 0.7 11.3h-8.7l-2.7 8c-1.5 4.4-3.8 10-5.1 12.5-1.2 2.5-4 7-6 10-2.1 3-6.4 8.1-9.6 11.3-3.3 3.2-8.2 7-10.9 8.4-4.2 2-6.1 2.4-11.5 2.1-3.6-0.2-8.3-1.3-10.5-2.3-2.2-1.1-7.2-5.1-11-9-4-4-9.1-10.6-12-15.5-2.8-4.7-6.4-12.7-8-17.8-2-6.2-3.3-8.9-4-8.2-0.6 0.6-2.6 0.9-8 0.5v-11h4c3.4 0 4.2-0.4 5.5-3 1.2-2.4 4.3-4.2 17.5-10.2 8.8-4.1 19.4-9.3 23.5-11.7 4.6-2.7 8.8-4.4 11-4.5zm149.9-0.1c2.8 0.1 5.7 1.6 13.1 6.9 5.2 3.7 11.7 8 14.5 9.6 2.7 1.6 6.2 4.1 7.7 5.7 1.7 1.7 2.8 3.9 2.8 5.6 0 2.1 0.2 2.4 1.2 1.5 0.7-0.7 2.1-1.3 3.2-1.3 1.2-0.1 2.7 0.5 3.4 1.2 0.7 0.7 1.3 3.2 1.2 5.6 0 2.3-0.2 4.6-0.5 5.2-0.3 0.6-2 1-3.8 1-1.7 0-3.7-0.4-4.2-1-0.7-0.7-1.4 0.5-2.3 3.7-0.8 2.7-2.5 7.5-3.9 10.8-1.4 3.3-4.7 9.6-7.3 14-2.7 4.4-7.4 10.5-10.7 13.6-3.2 3.1-8.3 6.9-11.3 8.3-3.5 1.6-7.2 2.6-10.3 2.6-2.6 0-7.3-1-10.5-2.2-4.1-1.6-7.3-3.8-11.6-8.2-3.2-3.4-7.9-9.2-10.4-13.1-2.6-3.9-6.1-10.4-7.9-14.5-1.8-4.1-3.5-9.2-3.8-11.3-0.5-3.7-0.5-3.7-4.3-3.1-2.7 0.5-4.2 0.2-5.5-1-0.9-0.9-1.7-3.1-1.7-4.8-0.1-2.1 0.7-4.1 2-5.3 1.8-1.6 2.6-1.8 4.9-1 2.6 0.9 2.9 0.8 3.4-1.5 0.4-2 2.6-3.5 11.9-7.9 6.2-2.9 16.7-8 23.3-11.3 6.6-3.3 12.4-6.4 12.9-6.9 0.6-0.5 2.6-0.9 4.5-0.9zm92.4 29c1.2-0.1 2.8 0.5 3.5 1.2 0.7 0.8 1.1 3.2 1 5.8-0.3 4-0.6 4.5-2.8 4.8-1.4 0.1-3.1-0.3-3.9-1-0.7-0.7-1.7-2.2-2.1-3.3-0.5-1.2-0.2-3.1 0.6-4.7 0.9-1.8 2.3-2.8 3.7-2.8z"/>
	<path id="Path 0" fill-rule="evenodd" class="s1" d="m289.5 86c-2.2 0.4-6.3 1.8-9 3-2.8 1.2-7.6 4-10.8 6.1-3.1 2.1-7.4 6.3-9.6 9.2-2.1 2.8-4.6 6.5-5.4 8.2-0.8 1.7-2.2 6-3.1 9.8-1 4.2-1.6 11.2-1.6 18.7v12c-6.2 6-8.1 8.9-8.5 11-0.4 1.9-0.4 4.8 0 6.5 0.4 1.7 1.5 4.1 2.5 5.5 0.9 1.4 3.5 3.3 5.6 4.3 3.3 1.5 4.5 3 7.8 10 2.1 4.5 5.5 10.7 7.5 13.7 1.9 3 6.4 8.5 9.8 12.3 3.5 3.7 6.3 7.5 6.3 8.5 0.1 0.9-0.5 2.2-1.2 2.8-0.7 0.6-5.4 1.4-10.3 1.7-4.9 0.3-10.6 1-12.5 1.6-1.9 0.5-5.7 2.9-8.4 5.3-2.7 2.4-6 6.6-7.5 9.3-2.4 4.7-2.6 6-2.9 21-0.2 14.3-0.1 16.2 1.5 17.8 1.7 1.7 5.5 1.8 59.8 1.8 54.3 0 58.1-0.1 59.7-1.8 1.5-1.5 1.8-3.9 1.8-15.8 0-10.4-0.5-15.5-1.8-19.9-1.4-4.7-2.8-6.9-7.2-11.1-3.2-3-7.2-5.7-9.5-6.5-2.2-0.6-8.1-1.4-13-1.7-4.9-0.3-9.6-1-10.3-1.7-0.7-0.6-1.3-1.8-1.3-2.6 0.1-0.8 2.6-4 5.6-7 3-3 7.5-8.4 10-12 2.4-3.6 6-10.1 7.9-14.5 2-4.4 4.4-8.7 5.5-9.5 1-0.8 3.3-2.3 5-3.3 1.7-0.9 4-3.2 5.1-5 1.1-1.7 2-4.4 2-6 0-1.5-0.5-3.7-1.1-5-0.6-1.2-2.5-3.7-4.3-5.5l-3.1-3.3c-0.2-26.4-0.4-27.8-2.9-33.4-1.5-3.3-5.6-10.2-9.2-15.3-4.2-6.1-8-10.3-11.1-12.4-2.7-1.7-6.8-4.1-9.3-5.1-3.2-1.4-7.4-2.1-14.5-2.3-5.5-0.2-11.8 0.1-14 0.6zm2.5 6.5c3.6-0.7 7.4-1.4 8.5-1.4 1.1-0.1 4.7 0.4 8 1 3.3 0.6 7.7 2 9.8 3 2 1 5.3 3.4 7.3 5.1 2 1.8 4.3 4.5 5 6 0.8 1.6 1.4 3.9 1.4 5.3 0 1.4-1.2 3.9-2.7 5.7-1.6 1.7-5.2 4.2-8 5.5-2.9 1.3-8.3 2.8-12 3.4-3.9 0.6-10.2 0.8-14.8 0.4-6.2-0.6-9.4-0.3-14 1-3.3 0.9-7.7 2.6-9.7 3.6-2.1 1-5.8 3.7-8.3 5.9-2.5 2.2-4.9 3.8-5.5 3.5-0.6-0.3-1-2.6-1-5.3 0-2.6 0.9-7.9 2-11.7 1.1-3.8 3.1-8.8 4.4-11 1.3-2.2 4.6-6.1 7.2-8.6 2.7-2.5 7.4-5.8 10.4-7.4 3-1.5 8.4-3.3 12-4zm42.1 28.4c1.2-1.7 2.9-2.9 3.8-2.7 0.9 0.2 2.5 2.1 3.5 4.3 1.1 2.2 2.2 6.6 2.5 9.8 0.4 3.5 0.2 5.7-0.4 5.8-0.6 0-3-2.6-5.5-5.8-2.5-3.1-4.8-6.3-5.2-7-0.5-0.8 0.1-2.6 1.3-4.4zm-15.6 8.8c2.2-0.9 5-1.6 6.3-1.6 1.4-0.1 3.6 1.5 6.5 4.7 2.3 2.7 5.4 7.3 6.9 10.3 1.6 3 2.8 6.6 2.8 8.1 0 1.6-0.6 2.8-1.2 2.8-0.7 0.1-2.7-1.6-4.3-3.6-1.6-2.1-5-4.7-7.5-5.7-3.4-1.5-5.7-1.8-9.5-1.3-2.7 0.3-6.6 1.6-8.5 2.9-2 1.3-4.5 4.3-5.7 7-1.4 2.8-2.9 4.6-3.7 4.4-0.8-0.1-2.9-2.5-4.8-5.2-2.2-3.3-4.8-5.8-7.8-7.3-2.5-1.2-5.9-2.2-7.5-2.2-1.6 0-4.7 0.5-6.7 1-2.3 0.6-5.6 2.8-8.3 5.5-2.5 2.5-4.9 4.5-5.5 4.5-0.5 0-1-0.7-1-1.5 0-0.8 0.6-2.7 1.4-4.3 0.7-1.5 3.6-4.7 6.2-7.1 2.7-2.5 6.9-5.4 9.4-6.5 3.7-1.7 7.6-2.2 21.5-2.7 11.5-0.5 18.3-1.2 21-2.2zm-46.3 20.3c1.8-1.1 5-2 7-2 2.1 0 4.8 0.5 6 1.1 1.3 0.6 3.3 2.1 4.6 3.3 1.3 1.1 2.7 3.9 3.3 6.1q1 4 0 7c-0.5 1.7-2.6 4.5-4.5 6.2-3 2.7-4.4 3.3-8.1 3.3-2.5 0-5.9-0.7-7.5-1.5-1.6-0.8-3.9-3-5-4.8-1.1-1.7-2-4.9-2-7 0-2 0.7-5 1.5-6.7 0.8-1.7 3-3.9 4.7-5zm41 0c1.8-1.1 5-2 7-2 2.1 0 5 0.6 6.5 1.4 1.6 0.8 3.6 2.2 4.6 3.2 0.9 1.1 2.1 3.7 2.6 5.9 0.5 2.3 0.5 5.3 0 7-0.4 1.7-2.2 4.3-3.9 6-2.4 2.3-4.3 3.1-7.8 3.4-3 0.2-5.9-0.2-8-1.3-1.7-0.9-4.1-3.1-5.2-4.9-1.1-1.7-2-4.9-2-7 0-2 0.7-5 1.5-6.7 0.8-1.7 3-3.9 4.7-5zm-56.8 12.7c0.4-1 1.4-1.7 2.3-1.5 0.9 0.2 2.1 2.1 2.7 4.3 0.7 2.2 2.2 5.5 3.4 7.2 1.2 1.8 4.1 4.3 6.4 5.4 3.3 1.6 5.6 2.1 9.9 1.8 4.5-0.3 6.5-1 9.5-3.5 2.2-1.7 4.9-5 6.1-7.2 1.3-2.3 2.9-4.2 3.5-4.2 0.7-0.1 2 1.4 2.8 3.2 0.8 1.8 2.3 4.3 3.2 5.5 1 1.3 3.6 3.2 5.8 4.3 2.2 1.1 6 2 8.5 2 2.5 0 6-0.6 7.7-1.3 1.8-0.8 4.8-3.1 6.6-5.3 1.7-2.1 3.4-5.2 3.7-6.9 0.3-1.7 1.2-3.6 2-4.3 1.2-1 1.6-0.9 2.1 0.5 0.4 1-0.1 5.4-1 9.8-0.9 4.4-3.4 11.6-5.4 16-2.1 4.4-5.6 10.7-7.9 14-2.2 3.3-6.7 8.5-9.9 11.6-3.3 3.2-7.9 6.6-10.4 7.8-2.5 1.1-6.1 2.1-8 2.1-1.9 0-5.5-1-8-2.1-2.5-1.2-6-3.3-7.9-4.7-1.9-1.5-6.1-6.1-9.4-10.2-3.3-4.1-7.9-11.6-10.3-16.5-2.5-4.9-5.4-12.8-6.6-17.5-1.1-4.7-1.8-9.3-1.4-10.3zm-9 3c0.3-1.5 1.3-2.7 2.1-2.7 0.8 0 1.8 1 2.1 2.2 0.3 1.3 0.4 3.4 0.2 4.7-0.2 1.4-0.9 2.6-1.6 2.8-0.6 0.2-1.7-0.7-2.3-2-0.6-1.2-0.8-3.4-0.5-5zm100.3-0.5c0.4-1.4 1.3-2.2 2.2-2 1 0.2 1.7 1.6 1.9 3.8 0.1 1.9-0.3 4.1-1 4.8-0.7 0.7-1.9 1.3-2.5 1.2-0.7 0-1.3-1.2-1.3-2.8 0-1.5 0.3-3.7 0.7-5zm-59.1 62.4c0.5-0.4 2-0.3 3.4 0.1 1.4 0.4 5 0.7 8 0.6 3-0.1 6.9-0.3 8.5-0.5 2.5-0.3 3.1 0.1 3.3 2.2 0.2 1.4 0.9 3.1 1.5 3.8 0.9 0.9 4.4 1.3 12 1.2 7.5 0 11.8 0.5 14.5 1.6 2 0.8 5.2 2.6 7 4 1.7 1.3 4.3 4.7 5.7 7.4 2.3 4.5 2.5 6.2 2.5 17.3 0 8.2-0.4 12.6-1.2 13.4-0.7 0.8-3.7 1.3-7 1.3-5.3 0-5.9-0.2-6.8-2.5-0.6-1.4-1-5.2-1-8.5 0-5.1-0.2-6-1.7-5.7-1.5 0.2-1.9 1.5-2.3 7.2-0.3 3.9-0.8 7.6-1.2 8.2-0.6 1-8.3 1.3-33 1.3-24.8 0-32.6-0.3-33.6-1.2-0.7-0.8-1.2-3.8-1.2-7.3 0-3.3-0.4-6.7-0.9-7.5-0.6-0.9-1.5-1.2-2.5-0.8-1.2 0.6-1.6 2.4-1.6 7.5 0 4-0.5 7.3-1.2 8-0.7 0.8-3.7 1.3-7.2 1.3-3.6 0-6.6-0.5-7.4-1.2-0.8-0.9-1.2-4.8-1.2-12.3q0-11 1.5-15.3c0.8-2.3 2.7-5.8 4.3-7.8 1.5-1.9 5-4.7 7.7-6 4.4-2.1 6.4-2.4 16.2-2.4 8.6 0 11.5-0.3 12.7-1.5 0.9-0.8 1.5-2.3 1.4-3.3-0.1-1 0.3-2.2 0.8-2.6zm152.2 88c-3.2 0.8-8.8 2.8-12.5 4.5-4.4 2-9.1 5.3-13.2 9.2-4.6 4.5-7.3 8.1-9.6 13.2-1.8 3.9-3.8 9.4-4.4 12.3-0.6 2.8-1.1 10.4-1.1 16.7v11.5c-6.2 6-8 8.9-8.5 11-0.4 2-0.2 5 0.4 7 0.6 1.9 2.1 4.5 3.3 5.7 1.3 1.3 3.7 2.7 5.3 3.1 1.7 0.5 3.5 1.9 4.1 3.3 0.7 1.3 2.4 5.1 3.9 8.4 1.5 3.3 4.7 8.9 7 12.5 2.4 3.6 7.1 9.3 10.4 12.8 3.4 3.4 6.1 6.8 6.1 7.5 0.1 0.6-0.5 1.7-1.2 2.3-0.7 0.6-5.3 1.3-10.3 1.6-7 0.3-10.2 1-14.5 3-3 1.5-7.2 4.5-9.2 6.7-2.1 2.3-4.8 6-6 8.3-2 3.8-2.3 6-2.6 20.3-0.2 14.3-0.1 16.2 1.5 17.8 1.7 1.7 5.5 1.8 60.3 1.8 54.8 0 58.6-0.1 60.3-1.8 1.6-1.6 1.7-3.5 1.5-17.8-0.3-14.3-0.6-16.5-2.6-20.3-1.2-2.3-3.9-6-5.9-8.3-2.1-2.2-6.3-5.3-9.3-6.7-4.3-2-7.6-2.7-14.9-3.2-7.2-0.4-9.7-0.9-10.5-2.1-0.9-1.4 0.2-3.1 6.7-10 4.3-4.6 9.2-10.9 10.9-13.9 1.7-3 4.4-8 5.9-11 1.6-3 2.9-6.2 2.9-7 0-0.8 0.5-2.1 1.2-2.7 0.7-0.7 2-1.3 3-1.3 1 0 3.2-1.2 4.9-2.7 1.6-1.6 3.5-4.4 4.1-6.3 0.6-1.9 0.7-5 0.4-6.7-0.3-1.8-2.2-5.1-4.1-7.3-3.4-3.9-3.5-4.1-2.9-10.7 0.4-3.8 0.1-10.2-0.5-14.3-0.7-4.1-2.5-10.4-4.2-14-1.7-3.6-4.5-8.3-6.3-10.5-1.8-2.2-4.3-5.8-5.7-8-1.3-2.1-4.6-5.3-7.4-7-2.7-1.7-6.8-3.9-9-4.8-2.2-0.9-6-2.1-8.5-2.7-2.5-0.5-6.5-0.9-9-0.9-2.5 0-7.1 0.7-10.2 1.5zm-0.5 6.9c3.3-1 8.1-1.4 13.2-1.1 5.4 0.2 9.6 1 13 2.5 2.8 1.2 6.5 3.3 8.3 4.7 1.7 1.3 4.1 3.9 5.2 5.7 1.1 1.7 2 4.8 2 6.7-0.1 2.7-0.9 4.3-3.8 7-2.5 2.4-6.1 4.3-11.2 5.9-6.3 2.1-9.7 2.5-22 2.6-12.2 0.1-15.4 0.5-20 2.3-3 1.2-8.1 4.4-11.2 7.2-3.2 2.7-6.2 4.8-6.8 4.5-0.5-0.3-1-2.2-1-4.3 0-2 0.7-6.4 1.5-9.7 0.9-3.3 2.8-8.6 4.3-11.9 1.6-3.5 4.7-7.7 7.7-10.6 2.8-2.6 7.4-5.9 10.3-7.3 2.8-1.5 7.6-3.4 10.5-4.2zm44.1 27.9c1.2-1.5 2.7-2.4 4-2.2 1.5 0.2 2.6 1.9 4.3 6.8 1.2 3.6 2.3 7.7 2.3 9.3 0 1.5-0.5 2.7-1.2 2.7-0.7 0-3.4-2.5-6-5.5-2.7-3-4.9-6.2-5-7-0.1-0.9 0.6-2.7 1.6-4.1zm-16.9 9.3c2.2-0.9 5.5-1.6 7.3-1.6 2.6-0.1 3.9 0.7 6.8 4.1 1.9 2.4 4.8 6.5 6.4 9.3 1.5 2.7 3.1 6.5 3.4 8.2 0.4 2.2 0.2 3.5-0.6 4-0.8 0.3-2.7-1.1-4.8-3.5-1.9-2.3-5.2-4.8-7.2-5.7-2.1-0.8-5.7-1.5-8-1.5-2.4 0-6.2 1-8.7 2.3-3.3 1.6-5.1 3.5-7.3 7.5-1.5 2.8-3.5 5.2-4.3 5.2-0.8 0-2.7-2.4-4.2-5.3-2.2-4-3.8-5.7-7.3-7.5-2.7-1.3-6.3-2.2-9-2.2-2.5 0-6.3 0.9-8.5 1.9-2.2 1.1-5.2 3.6-6.7 5.5-1.6 2-3.5 3.6-4.3 3.6-0.8 0-1.5-0.8-1.5-1.8 0-0.9 1.2-3.5 2.8-5.7 1.6-2.2 4.2-5.2 5.8-6.7 1.6-1.5 5.6-3.9 8.9-5.4 5.6-2.6 7-2.7 21.5-2.9 11.3-0.2 16.6-0.6 19.5-1.8zm-43.4 19.5c2.4-1.2 5.2-2.2 6.2-2.2 0.9 0 3.5 0.9 5.7 2 2.2 1.1 4.7 3 5.5 4.3 0.8 1.2 1.8 4 2.1 6.2q0.6 4-0.9 7c-0.8 1.6-2.7 4.1-4.2 5.5-1.9 1.8-4.1 2.6-7.3 2.8-3.4 0.2-5.6-0.3-7.9-1.7-1.8-1.2-4.2-3.6-5.3-5.3-1.1-1.8-2-4.7-2-6.3 0-1.6 0.8-4.6 1.8-6.5 1.2-2.2 3.5-4.3 6.3-5.8zm41.4-0.3c2.2-1 4.9-1.9 6-1.9 1.1 0 3.8 1 6 2.3 2.3 1.3 4.8 3.7 5.7 5.7 1 1.9 1.8 4.9 1.8 6.5 0 1.6-0.9 4.5-2 6.3-1.1 1.7-3.5 4.1-5.2 5.2-1.8 1.1-4.9 2-6.8 2-1.9 0-5-0.9-6.7-2-1.8-1.1-4-3-4.8-4.3-0.8-1.2-1.7-3.8-2-5.9-0.4-2.6 0.1-4.8 1.7-7.9 1.6-2.9 3.5-4.8 6.3-6zm-58 11.7c0.5-0.3 1.3-0.5 1.8-0.4 0.5 0.2 1.8 2.8 2.8 5.8 1 3 2.9 6.6 4.1 7.8 1.3 1.3 4 3.3 6.1 4.3 2 1 5.5 1.9 7.7 1.9 2.2 0 5.7-0.9 7.8-1.9 2-1 4.7-3 5.8-4.3 1.2-1.2 2.9-3.8 3.8-5.5 0.9-1.8 2.3-3.3 3.1-3.3 0.8 0 2.4 1.7 3.4 3.8 1 2 3 4.7 4.3 5.9 1.2 1.2 4 2.9 6.1 3.7 2 0.9 5.3 1.6 7.2 1.6 1.9 0 5.2-0.8 7.3-1.9 2-1 4.9-3.2 6.5-5 1.5-1.7 3.3-4.9 3.9-7.1 0.7-2.2 1.7-3.9 2.3-3.7 0.5 0.2 1.2 1.4 1.4 2.8 0.1 1.3-0.3 4.9-0.9 7.9-0.7 3-2.7 8.9-4.5 13-1.7 4.1-5 10.4-7.2 14-2.3 3.6-7.5 9.8-11.7 13.8-6 5.6-8.7 7.5-12.8 8.8-4.1 1.1-6.2 1.3-9.3 0.5-2.2-0.6-6.2-2.5-8.9-4.3-2.7-1.8-7-5.6-9.4-8.3-2.5-2.8-6.1-7.5-8-10.5-2-3-5-8.6-6.8-12.5-1.8-3.9-3.9-9.7-4.8-13-0.9-3.3-1.6-7.6-1.7-9.6-0.2-2 0.1-3.9 0.6-4.3zm-9.5 3.3c0.7-1.1 1.7-1.8 2.4-1.6 0.6 0.2 1.4 2.4 1.8 4.8 0.5 2.7 0.4 4.8-0.3 5.4-0.7 0.7-1.7 0.2-3-1.5-1.1-1.4-2-3.1-2-3.8-0.1-0.7 0.5-2.2 1.1-3.3zm100.5-0.7c0.3-0.6 0.9-1.2 1.5-1.2 0.5 0 1.6 1.2 2.3 2.6 1 2.1 0.9 3-0.3 5.2-0.9 1.5-2.2 2.7-3 2.7-1.1 0-1.4-1-1.2-4 0.1-2.2 0.5-4.6 0.7-5.3zm-60.3 64.7c0.4-0.2 5.7-0.4 12-0.3 10.3 0 11.3 0.2 11.7 2 0.1 1 1 2.7 2 3.7 1.3 1.5 3.3 1.8 12.6 1.7 9.7 0 11.6 0.3 16 2.4 2.8 1.3 6.3 4.2 8 6.3 1.6 2.1 3.5 5.8 4.2 8.3 0.7 2.5 1.3 9.2 1.3 15 0 6.9-0.4 10.9-1.2 11.7-0.7 0.7-3.6 1.3-6.8 1.3-3.1 0-6-0.5-6.8-1.2-0.7-0.8-1.2-3.9-1.2-7.8 0-3.6-0.4-7.2-0.9-8-0.6-0.9-1.5-1.2-2.5-0.8-1.2 0.6-1.6 2.4-1.6 8 0 4.4-0.5 7.8-1.2 8.5-0.9 1-8.9 1.3-33.2 1.3-24.6 0-32.4-0.3-33.4-1.2-0.8-0.8-1.2-4-1.2-8.6 0-5.6-0.4-7.4-1.6-8-1-0.4-1.9-0.1-2.5 0.8-0.5 0.8-0.9 4.4-0.9 8 0 3.8-0.5 7-1.2 7.7-0.7 0.8-3.8 1.3-7.5 1.3-5.5 0-6.4-0.3-7.4-2.3-0.8-1.4-1-6.1-0.7-13.7 0.4-8.9 1-12.4 2.5-15.5 1.2-2.2 3.3-5.2 4.7-6.8 1.4-1.5 4.5-3.6 6.9-4.7 3.3-1.6 6.4-2 15.2-2 9 0 11.3-0.4 12.8-1.8 1-0.9 1.7-2.4 1.6-3.3-0.1-0.9 0-1.8 0.3-2zm-305.2-136c-3.6 0.9-9.2 3.4-12.5 5.5-3.3 2.1-7.5 5.2-9.3 7-1.9 1.7-5.3 5.8-7.7 9.1-2.7 3.8-5.3 9.2-7 14.5-2.2 7.1-2.7 10.2-2.6 19 0.1 7.8-0.3 11.4-1.6 14-1.1 2.4-1.4 4.9-1 8 0.3 2.5 1.8 6.1 3.1 8 2.4 3.3 2.6 4.2 2.6 16.2 0 10 0.3 13.1 1.5 14.3 1.1 1.1 3.8 1.5 10.3 1.5l8.7-0.1c11.2 11.7 14.5 15.4 14.5 15.8 0.1 0.5-0.5 1.3-1.2 1.9-0.7 0.7-5.3 1.4-10.3 1.6-6.9 0.3-10.3 1-14.5 3-3 1.4-7.2 4.2-9.2 6.2-2.1 2-4.8 5.5-6 7.8-1.9 3.8-2.2 6.2-2.5 20.8-0.4 14.9-0.2 16.7 1.4 18.3 1.7 1.7 5.5 1.8 60 1.7 50.3 0 58.4-0.2 59.7-1.5 1.3-1.2 1.6-4.3 1.6-17.3 0-15.3 0-15.8-2.9-21.7-1.6-3.3-4.4-7.3-6.3-8.9-1.8-1.6-5.5-4-8.3-5.4-3.9-1.9-7-2.6-14-3-4.9-0.2-9.6-1-10.3-1.6-0.7-0.6-1.3-1.5-1.3-2.1 0-0.6 3.2-4.3 7.1-8.3l7-7.2c14.5 0 18-0.4 18.8-1.3 0.8-0.8 1.2-5.3 1.2-14 0-11.9 0.2-12.9 2.5-16.5 1.4-2 2.8-5.5 3.2-7.7q0.6-4-1.1-8.3c-1.2-3.1-1.6-7.5-1.6-16.7 0-10.3-0.4-13.4-2.1-17.8-1.1-2.8-3.4-7.5-5.1-10.2-1.7-2.8-5-7-7.2-9.4-2.3-2.4-7.3-6.5-11.1-9-5.1-3.4-9-5.2-14.5-6.4-4.4-1-11.2-1.7-16.5-1.6-4.9 0-11.9 0.8-15.5 1.8zm1.5 6.4c4.6-1.4 9.6-2.2 14.5-2.3 4.2 0 10.3 0.8 14 1.8 3.6 1 8.5 2.9 11 4.4 2.5 1.4 5.3 3.5 6.3 4.7 1 1.2 1.4 2.7 1 3.4-0.5 0.8-2.4 2.8-4.3 4.4-1.9 1.7-8.4 6.4-14.5 10.4-6.1 4.1-16.4 10.2-23 13.6-6.6 3.4-17.3 8.4-23.7 11.2-6.5 2.8-12.5 4.9-13.3 4.6-0.8-0.3-1.8-1.7-2.1-3.3-0.4-1.5-0.4-5.6-0.1-9.2 0.3-3.6 1.5-9.4 2.7-13 1.2-3.6 4.2-9.3 6.6-12.8 2.8-4 6.8-7.9 11.2-10.9 3.8-2.7 9.7-5.7 13.7-7zm41.6 24.4c5.7-4.2 11-7.7 11.6-7.7 0.7 0 2.2 1.2 3.2 2.7 1.1 1.6 3.2 5.5 4.7 8.8 2.4 5.2 2.7 7.3 2.8 16 0.1 8.7-0.1 10-1.6 10.2-1 0.2-5.7-2.1-10.5-5-4.9-2.9-11.4-7.2-14.5-9.5-3.2-2.3-5.9-5-5.9-6-0.1-1.2 3.2-4.3 10.2-9.5zm-32.6 19.9c6.6-3.6 13-6.5 14.3-6.5 1.2-0.1 5.9 2.7 11 6.4 4.8 3.5 12 8.4 16 10.7 5.2 3.1 7.4 5 7.9 6.8 0.3 1.4 0.2 5-0.2 8-0.4 3-1.8 8.4-3 12-1.2 3.6-3.5 9-5 12-1.5 3-4.7 8.2-7 11.5-2.3 3.3-6.6 8.1-9.4 10.7-2.8 2.7-7.7 6-10.8 7.4-4.4 2-6.7 2.5-9.3 2-1.9-0.3-5.3-1.5-7.5-2.5-2.2-1.1-6.6-4.5-9.7-7.5-3.2-3.1-7.5-8.2-9.7-11.4-2.1-3.1-5.1-8.2-6.6-11.2-1.5-3-3.9-8.6-5.2-12.5-1.3-3.9-2.3-9.4-2.4-12.5 0-3.3 0.5-5.9 1.3-6.6 0.7-0.6 6.3-3.2 12.3-5.8 6.1-2.5 16.4-7.5 23-11zm-45.8 21.9c0.3-0.9 1.3-1.5 2.2-1.3 1.1 0.2 1.7 1.6 1.9 4.3 0.1 2.2-0.1 4.4-0.5 4.8-0.4 0.5-1.6 0.1-2.5-0.7-1-0.9-1.8-2.5-1.8-3.6 0-1.1 0.3-2.7 0.7-3.5zm101.1-0.8c0.2-0.4 1-0.6 1.6-0.4 0.6 0.2 1.2 1.9 1.4 3.8 0.2 2.2-0.2 3.8-1.2 4.6-0.9 0.7-2 1.1-2.6 0.8-0.6-0.3-0.7-2.1-0.4-4.3 0.4-2 0.9-4.1 1.2-4.5zm-94.6 30.6c-0.2-5.3 0.1-8.3 0.8-8.3 0.5 0 2.6 3.1 4.5 7 1.9 3.9 3.5 7.7 3.5 8.5 0 1.1-1 1.4-8.5 1zm85.5-0.5c2-4.3 4.2-7.6 4.8-7.4 0.6 0.2 1 3.7 1 16.1l-4 0.3c-2.2 0.2-4.4 0-4.8-0.5-0.5-0.4 0.9-4.2 3-8.5zm-50.8 33.8l22.6 0.1 0.7 2.9c0.4 1.9 1.5 3.2 3 3.7 1.2 0.4 6.8 0.7 12.3 0.8 7.5 0 11 0.5 14 1.8 2.2 1 5.5 3.6 7.4 5.7 1.9 2.2 4 5.4 4.8 7.2 0.8 2.1 1.3 7.6 1.3 15.5 0 8.3-0.4 12.7-1.2 13.5-0.7 0.7-3.5 1.2-6.3 1.2-2.7 0-5.5-0.3-6.1-0.7-0.7-0.4-1.3-4-1.5-7.9-0.2-4-1-7.8-1.7-8.5-1-1.1-1.4-1.1-2.5 0-0.6 0.7-1.4 4.5-1.6 8.5-0.2 3.9-0.9 7.5-1.5 7.9-0.6 0.4-15.3 0.7-32.6 0.8-24.6 0-31.8-0.2-32.7-1.3-0.6-0.7-1.3-4.6-1.5-8.8-0.3-6.7-0.5-7.4-2.3-7.4-1.8 0-2 0.7-2.3 7.5-0.2 4.1-0.9 8-1.5 8.7-0.7 0.8-3.5 1.3-7.2 1.3-3.5 0-6.5-0.6-7.3-1.3-0.9-0.9-1.2-4.9-1.2-13.2 0-9.9 0.4-12.8 2.1-16.5 1.1-2.5 3-5.6 4.2-6.9 1.2-1.3 4-3.3 6.2-4.5 3.2-1.7 6.3-2.2 29-3.1l1.7-3.5zm147.1-136.5c-1.9 0.5-5.1 1.4-7 1.9-1.9 0.6-6.4 2.9-10 5.3-3.6 2.3-8.6 6.5-11.1 9.3-2.5 2.7-5.7 7-7.1 9.5-1.5 2.4-3.6 6.9-4.9 10-1.7 4.2-2.4 8.8-3.1 20.5-0.5 8.2-1 17.2-1.1 20-0.2 4.1 0.3 5.9 2.5 9.3 2.3 3.5 2.8 5.4 3 11.9 0.3 7.2 0.4 7.8 2.5 8 1.7 0.2 2.4-0.4 2.8-2 0.2-1.2 0.6-3.6 0.7-5.2 0.2-1.6 0.7-3 1.3-3.2 0.5-0.2 2.5 2.7 4.3 6.4 1.9 3.7 5.3 9.4 7.7 12.8 2.3 3.3 6.1 7.8 8.4 9.9 2.3 2.2 4.8 5.3 5.6 6.8 1.1 2 1.2 3.3 0.5 4.7-0.9 1.8-2.3 2.1-10.8 2.6-5.3 0.2-11.3 0.6-13.2 0.7-3.4 0.2-3.5 0.1-3.8-3.3-0.1-1.9-0.5-4.5-0.7-5.7-0.4-1.6-1.1-2.2-2.8-2-2.1 0.2-2.3 0.8-2.7 8.9-0.4 6.2-1 9.2-2.2 10.5-0.9 1-2.8 4.3-4.2 7.3-2.4 5.2-2.6 6.5-2.6 21.3 0 12.7 0.3 16 1.5 17.3 1.3 1.2 9.3 1.4 60 1.4h58.5c2.6-3.9 3-7.3 3-16 0-6.4-0.7-14.5-1.6-18.5-0.8-4-2.7-8.8-4.5-11.5l-3-4.5 0.1-55c3.9-5.4 5.3-9 5.7-11.5 0.4-3.1 0.1-5.5-1.1-8-1.2-2.5-1.6-6.2-1.5-14 0-8.8-0.4-11.7-2.6-18.5-1.5-4.3-3.7-9.8-5-12-1.2-2.1-4.9-6.7-8.2-10-3.2-3.4-8.7-7.8-12.3-9.9-3.6-2-8.5-4.2-11-4.8-2.5-0.5-9.5-1.1-15.5-1.3-6.1-0.2-12.6 0.1-14.5 0.6zm-0.5 6.8c3.3-0.9 9.4-1.7 13.5-1.8 5.1-0.1 9.7 0.6 14.5 2.1 3.8 1.2 9.2 3.5 11.9 5.2 2.7 1.7 5.2 3.9 5.7 4.9 0.7 1.3 0 2.5-2.9 5-2 1.8-7.3 5.8-11.7 8.8-4.4 3.1-12.1 8-17 11-5 2.9-14 7.7-20 10.6-6.1 2.8-14.5 6.6-18.8 8.3-6.4 2.5-8 2.8-9.3 1.8-1.4-1-1.6-2.9-1.3-11.3 0.4-8.9 0.8-10.7 4-17.5 1.9-4.1 5.8-9.9 8.6-13 2.8-3 7.7-7 10.9-8.9 3.2-2 8.6-4.3 11.9-5.2zm40.3 24.4c5.3-3.9 10.2-7.2 10.9-7.2 0.7 0 2 0.7 2.9 1.7 0.9 1 2.7 3.9 4 6.5 1.3 2.6 3 7.6 3.9 11 0.8 3.4 1.4 8.5 1.4 11.3 0 2.7-0.3 5.6-0.7 6.3-0.4 0.9-1.7 1.2-3.2 0.8-1.4-0.3-7.9-4.1-14.5-8.5-6.6-4.3-12.8-8.7-13.8-9.8-1-1-1.5-2.5-1.1-3.4 0.3-0.8 4.9-4.7 10.2-8.7zm-26.3 16.9c2.7-1.6 6.1-3 7.5-3 1.6-0.1 5.2 1.9 10 5.4 4.1 3.1 10.6 7.5 14.5 9.7 3.8 2.3 7.8 4.8 8.8 5.7 1.3 1.1 1.7 3 1.7 7 0 3.1-0.7 8.2-1.5 11.6-0.9 3.3-3.4 9.8-5.6 14.5-2.2 4.6-6.6 11.8-9.7 15.9-3.2 4-8 9.1-10.7 11.2-2.8 2-7 4.5-9.5 5.3-2.6 1-6 1.4-8 1.1-1.9-0.3-6.2-2.3-9.5-4.4-3.3-2.1-7.6-5.6-9.6-7.7-1.9-2.2-5.3-6.6-7.6-9.9-2.2-3.4-5.2-8.3-6.6-11-1.4-2.8-3.7-8.8-5.1-13.3-1.4-4.5-2.6-10.1-2.6-12.2 0-2.3 0.6-4.7 1.5-5.5 0.8-0.9 3.8-2.4 6.7-3.4 2.9-1.1 10.9-4.6 17.8-8 6.9-3.3 14.7-7.3 17.5-9zm-52 24.5c0.5-0.4 1.3-0.5 1.9-0.3 0.6 0.2 1.5 2.1 1.9 4.2 0.6 2.5 0.5 4.3-0.2 5q-1 1-2.6-0.5c-0.9-0.9-1.7-2.9-1.7-4.6-0.1-1.7 0.2-3.4 0.7-3.8zm99.3 3.3c0.3-3.1 0.8-3.9 2.3-3.9q1.9 0 2.5 2.7c0.3 1.5 0.1 3.8-0.5 5-0.6 1.2-1.8 2.3-2.6 2.3-0.8 0-1.6-0.5-1.8-1.1-0.1-0.5-0.1-2.8 0.1-5zm-7.4 26.3c2-4 4.1-7.2 4.6-7.2 0.6 0 1 8.6 1 45l-3.3-0.6c-1.8-0.2-7.5-0.7-12.7-1.1-5.2-0.3-10.1-1.1-10.8-1.7-0.7-0.6-1.3-1.9-1.3-2.9 0.1-1 2.9-4.8 6.4-8.5 3.4-3.7 7.7-8.8 9.4-11.3 1.7-2.4 4.7-7.7 6.7-11.7zm-52.2 34.7c0.3-0.3 5.6-0.5 22.8-0.5l3.5 7 12.5 0.6c10.3 0.4 13.2 0.9 16.7 2.7 2.4 1.2 5.4 3.7 6.7 5.5 1.4 1.8 3.2 4.9 4 7 1.1 2.7 1.6 7.2 1.6 15.5 0 7.9-0.4 12.2-1.2 13-0.7 0.7-3.7 1.3-6.8 1.3-3.3 0-6-0.5-6.7-1.3-0.7-0.7-1.3-4.6-1.5-8.8-0.3-6.7-0.5-7.5-2.3-7.5-1.8 0-2.1 0.8-2.3 7.5-0.2 4.2-0.9 8.1-1.5 8.8-1 1.1-8.3 1.3-33.2 1.3-24.5 0-32.3-0.3-33.3-1.3-0.8-0.8-1.2-4-1.2-8.5 0-5.7-0.4-7.4-1.6-8-1-0.5-1.9-0.2-2.5 0.7-0.5 0.9-0.9 4.5-0.9 8 0 3.8-0.5 7.1-1.2 7.8-0.7 0.7-3.8 1.2-7.5 1.2-5.6 0-6.5-0.2-7.5-2.2-0.7-1.5-0.9-6.1-0.6-13.3 0.3-7.2 1-12.3 2.2-15 0.9-2.1 3.1-5.5 4.9-7.3 1.7-1.9 5-4.2 7.2-5.3 3.1-1.4 6.4-1.8 14.7-1.8 5.9 0 11.7-0.5 12.8-1.1 1.2-0.6 1.9-1.8 1.8-3.3-0.1-1.3 0.1-2.5 0.4-2.7zm-149.7-367c-1.7 0.4-6.2 1.9-10 3.4-4.5 1.6-9.3 4.5-13.3 7.9-3.4 2.9-7.9 7.5-9.9 10.2-2 2.8-4.5 6.8-5.5 9-0.9 2.3-2.4 6.7-3.3 10-0.9 3.6-1.5 10.4-1.6 16.6 0 7.2-0.4 11.2-1.4 12.9-0.8 1.4-1.5 4.2-1.5 6.3 0 2.1 0.5 4.8 1.1 6 0.6 1.2 2.2 3.4 3.5 4.7 1.9 2.2 2.3 3.8 2.6 11 0.1 4.6 0.7 8.5 1.3 8.7 0.5 0.2 1.6 0 2.3-0.4 0.7-0.4 1.6-2.9 2-5.5 0.4-2.6 1.1-4.8 1.7-4.8 0.5 0 2.1 2.4 3.5 5.2 1.4 2.9 4.2 8 6.4 11.3 2.1 3.3 6.8 9.1 10.2 12.8 4.3 4.6 6.4 7.6 6.4 9.2 0 1.5-0.8 3-2 3.5-1.1 0.6-5.5 1-9.8 1-4.2 0-9.1 0.5-10.7 1-1.7 0.5-3.5 0.6-4.1 0.2-0.6-0.4-1.4-2.9-1.7-5.7-0.4-2.7-1.1-5.4-1.6-6-0.6-0.5-1.7-0.6-2.6-0.2-1.2 0.6-1.5 2.5-1.5 8.5 0 7.2-0.2 8-3.1 11.7-1.8 2.2-3.8 5.5-4.5 7.3-1 2.3-1.4 8.1-1.4 20-0.1 12.2 0.3 17.1 1.2 18 1 1 13.8 1.3 59.5 1.3l58.3-0.1c4.2-4.4 4.3-5 3.8-19.5l-0.6-15-8.2-15.5c0-54.8 0-55 2.5-60 1.4-2.7 2.5-6.5 2.5-8.5 0-1.9-0.6-4.9-1.4-6.7-0.9-2.1-1.4-7.7-1.4-16.3l-0.1-13c-9.5-18.6-11.9-22-16.9-26.6-3.6-3.4-9-7.2-13-9-3.7-1.8-9-3.8-11.7-4.5-2.8-0.7-9.1-1.3-14-1.2-5 0-10.4 0.4-12 0.8zm3 6c2.2-0.5 7.4-0.7 11.5-0.5 4.1 0.2 9.7 1.1 12.5 2 2.7 0.8 7.4 3 10.4 4.8 3 1.8 5.9 4.1 6.5 5.1 0.9 1.5 0.4 2.4-3.4 5.8-2.5 2.3-9.5 7.4-15.5 11.4-6.1 4-17.1 10.5-24.5 14.3-7.4 3.9-18.1 8.8-23.8 11.1-5.6 2.2-10.7 4-11.2 4-0.6 0.1-1.5-0.9-2-1.9-0.6-1.1-1-4-1-6.3 0-2.3 0.5-6.9 1.1-10.3 0.6-3.3 2.3-8.7 3.8-11.9 1.6-3.3 4.6-8 6.7-10.5 2.1-2.4 5.9-6 8.4-8 2.5-2 7.2-4.7 10.5-5.9 3.3-1.3 7.8-2.7 10-3.2zm36 25.7c5.5-4.1 10.3-7.6 10.7-7.6 0.4 0 1.6 0.7 2.6 1.7 1 1 3.3 4.9 5.1 8.8 2.8 5.8 3.4 8.5 4 16.6 0.5 9.1 0.5 9.8-1.4 10.4-1.1 0.4-3.1 0.2-4.5-0.5-1.4-0.7-5.4-3.1-9-5.3-3.6-2.3-9.1-6.1-12.3-8.5-3.8-2.8-5.6-4.9-5.5-6.1 0.2-1 4.8-5.3 10.3-9.5zm-24 15.5c1.6-1.1 4-2 5.2-2.1 1.3 0 3.5 1 5 2.3 1.5 1.3 7.3 5.3 12.8 9 5.5 3.6 11.8 7.8 18 12l-0.8 7.3c-0.4 4-2 10.8-3.5 15.1-1.6 4.3-5.1 11.5-7.8 16.2-2.7 4.6-7.6 11.1-10.9 14.5-3.3 3.3-8.1 7.1-10.5 8.3-2.5 1.2-6.3 2.5-8.5 2.8-2.8 0.5-5.4 0.1-8.5-1.2-2.5-1-6.5-3.4-9-5.4-2.5-1.9-6.6-6.2-9.2-9.5-2.5-3.3-6.4-9.3-8.7-13.4-2.2-4.2-5.2-10.9-6.6-15-1.4-4.2-2.6-9.8-2.6-12.5 0-3.6 0.5-5.5 1.8-6.6 1-0.9 5.8-3.3 10.8-5.4 4.9-2.1 13.7-6.2 19.5-9.1 5.8-2.9 11.8-6.2 13.5-7.3zm-54.5 26c0.7-0.6 1.9-1 2.4-0.8 0.6 0.2 1.2 2.4 1.3 5 0.2 3.6-0.1 4.7-1.2 4.7-0.8-0.1-2-1-2.5-2.1-0.6-1-1.1-2.8-1.2-3.8-0.1-0.9 0.4-2.3 1.2-3zm100.7-0.5c0.3-0.4 1-0.6 1.7-0.4 0.6 0.2 1.2 1.9 1.4 3.8 0.2 2.3-0.2 3.9-1.2 4.7-0.9 0.7-2.1 1-2.6 0.7-0.6-0.2-0.8-2-0.4-4.2 0.4-2.1 0.9-4.1 1.1-4.6zm-7.7 28.1c1.3-2.6 2.9-4.8 3.6-4.8 1.1 0 1.4 4.2 1.4 21.3 0.1 18-0.2 21.4-1.5 22.5-0.8 0.7-2.1 0.9-2.8 0.6-0.7-0.4-6.1-1-12-1.3-8-0.4-11-0.9-11.7-2.1-0.6-0.8-0.7-2.4-0.4-3.5 0.4-1 3.2-4.6 6.4-8 3.1-3.3 7.7-9.1 10.2-13 2.5-3.8 5.6-9.1 6.8-11.7zm-52.5 35.9c0.5-0.4 2.1-0.4 3.5 0 1.3 0.4 4.7 0.8 7.5 0.8 2.7 0 6.6-0.3 8.5-0.5 3.1-0.4 3.5-0.2 3.8 2 0.2 1.4 0.9 3.1 1.5 3.8 0.8 1 4.4 1.3 12.2 1.3 9.4 0 11.7 0.3 16 2.3 2.7 1.3 6.3 3.8 7.9 5.7 1.6 1.9 3.5 4.9 4.2 6.7 0.9 2.1 1.4 7.6 1.4 15.5 0.1 8.8-0.3 12.6-1.2 13.5-0.8 0.8-3.5 1.2-13.3 0.7l-0.8-8c-0.4-4.3-1-8.2-1.2-8.5-0.3-0.2-1.2-0.1-2 0.3-1.1 0.6-1.5 2.5-1.5 7.5 0 4-0.5 7.3-1.2 8-0.9 0.9-9 1.3-33.3 1.3-24.5 0-32.3-0.3-33.3-1.3-0.8-0.8-1.2-3.8-1.2-7.8 0-4-0.4-6.9-1.2-7.7-1-0.9-1.6-0.9-2.6 0-0.8 0.8-1.2 3.8-1.2 7.7 0 3.8-0.5 7.1-1.2 7.8-0.7 0.7-3.8 1.3-7.3 1.3-3.5 0-6.5-0.5-7.3-1.3-0.9-0.9-1.2-4.8-1.2-12.8 0-9.9 0.3-12.1 2.4-16.5 1.3-2.7 3.9-6.4 5.7-8.1 1.9-1.8 5.1-3.9 7.1-4.8 2.6-1.1 7.1-1.6 14.7-1.6 8.4 0 11.3-0.3 12.5-1.5 0.9-0.8 1.5-2.3 1.4-3.3-0.1-1 0.2-2.1 0.7-2.5zm292.5-134.6c-4.7 1.6-10.2 4.1-12.3 5.5-2 1.3-6.3 5-9.5 8.2-3.1 3.2-7 8.3-8.6 11.3-1.6 3-3.8 8.4-4.8 11.9-1.2 4.5-1.8 10-1.9 17.5 0 7.7-0.4 11.8-1.4 13.5-0.8 1.4-1.5 4.3-1.5 6.5-0.1 2.9 0.8 5.3 2.9 8.5 3 4.5 3 4.7 3 18 0 9.6 0.4 13.9 1.3 14.8 0.9 0.9 4.5 1.3 10.8 1.3h9.5c10.4 10.8 13.5 14.5 13.5 15.2 0 0.7-0.5 1.8-1.2 2.4-0.7 0.6-5.6 1.3-10.8 1.7-5.2 0.3-11.3 1.1-13.5 1.7-2.2 0.7-6.2 3.3-8.8 5.8-2.7 2.6-6 6.9-7.3 9.6-2.3 4.7-2.4 6.1-2.4 20.8 0 12.7 0.3 16 1.5 17.2 1.3 1.3 9.3 1.5 59.9 1.5 50.6 0 58.6-0.2 60-1.5 1.3-1.2 1.6-4.2 1.6-16.7 0-11.4-0.4-16.2-1.5-19-0.8-2.1-2.6-5.4-3.9-7.5-1.4-2.1-4.2-5-6.3-6.5-2.1-1.5-6.3-3.4-9.3-4.2-3-0.9-8.7-1.5-12.5-1.5-4.3 0-7.5-0.5-8.3-1.3-0.7-0.7-1.3-1.9-1.3-2.8 0-0.8 3-4.5 6.6-8.2l6.5-6.8c15.4 0 19-0.4 19.8-1.2 0.8-0.9 1.2-5.5 1.2-14.8 0-13.3 0-13.5 3-18 2.1-3 3-5.7 3-8.2 0-2.1-0.6-5-1.4-6.5-0.9-1.8-1.6-8-1.9-17.3l-0.5-14.5c-7.4-14.6-10.4-18.8-15.1-23.5-4.5-4.4-8.9-7.7-13.6-9.9-3.9-1.9-9.3-4-12-4.7-2.8-0.7-9.3-1.3-14.5-1.3-8 0-10.9 0.5-18 3zm9.5 4c2.2-0.5 6.2-0.9 9-0.9 2.7-0.1 7.9 0.6 11.5 1.5 3.6 0.9 9.1 3 12.3 4.7 3.3 1.7 6.6 3.9 7.5 4.9 1 1.1 1.4 2.3 0.9 3.2-0.4 0.9-5.1 4.8-10.5 8.8-5.3 3.9-14.2 9.9-19.7 13.1-5.5 3.3-15.4 8.5-22 11.7-6.6 3.1-15.3 7-19.4 8.5-7.3 2.9-7.3 2.9-8.8 0.9-1.2-1.5-1.4-3.9-1-10.5 0.3-5.3 1.4-10.8 2.8-14.7 1.3-3.4 4.2-8.7 6.4-11.8 2.2-3.1 6.7-7.6 10-10.1 3.3-2.4 8.5-5.4 11.5-6.5 3-1.1 7.3-2.4 9.5-2.8zm35.5 26c5.8-4.4 10.9-7.9 11.5-7.7 0.5 0.2 2.3 2.1 4 4.2 1.7 2.2 3.9 6.6 5 9.9 1.3 4.1 2 8.8 2 14.5 0 7.8-0.2 8.6-2 8.8-1.1 0.2-6-2.1-10.9-5-4.9-2.9-11.4-7.3-14.5-9.8-3.1-2.5-5.6-5.1-5.6-5.7 0-0.7 4.7-4.8 10.5-9.2zm-28.5 17.8c4.4-2.6 8.9-4.7 10-4.8 1.1 0 5.6 2.6 10 5.9 4.4 3.3 10.5 7.4 13.5 9.2 3 1.8 6.9 4.3 8.7 5.5 2.6 1.9 3.3 3 3.3 5.8 0 2-0.5 5.9-1.1 8.8-0.6 2.9-2 7.7-3.1 10.7-1.1 3.1-3.2 7.8-4.6 10.5-1.3 2.8-3.8 7.1-5.5 9.5-1.6 2.5-5.5 7.2-8.6 10.4-3.5 3.6-7.9 7-11.6 8.8-3.3 1.5-7.4 2.8-9 2.8-1.7 0-5.4-1.1-8.3-2.5-2.9-1.3-7.5-4.6-10.3-7.2-2.8-2.6-7.5-8.4-10.4-12.8-2.8-4.4-6.6-11.1-8.3-15-1.8-3.8-4-10.7-5-15.2-1.2-5.7-1.4-8.7-0.7-9.8 0.5-0.9 8.2-4.9 17-8.8 8.8-4 19.6-9.3 24-11.8zm50.1 23.6c0.4-0.9 1.4-1.4 2.3-1.2 1 0.2 1.7 1.5 1.9 3.8 0.2 2.3-0.2 3.9-1.2 4.7-0.9 0.7-2.1 1-2.6 0.7-0.6-0.2-1-1.8-1-3.5 0-1.6 0.3-3.6 0.6-4.5zm-100.1 0.2c0.4-0.4 1.4-0.7 2.1-0.7 0.8 0 1.6 0.7 1.9 1.5 0.3 0.9 0.5 2.9 0.5 4.5 0 1.8-0.6 3.1-1.3 3.1-0.7 0-1.8-0.6-2.5-1.3-0.7-0.7-1.3-2.4-1.4-3.8-0.1-1.5 0.2-2.9 0.7-3.3zm6.8 30.5c-0.1-5.1 0.2-8.2 0.8-8 0.6 0.2 2.6 3.3 4.5 6.8 2.2 3.9 3.3 7.3 3 8.3-0.5 1.3-1.6 1.7-8.1 1.2zm85.1-0.9c2-4.1 4.2-7.2 5.1-7.2 1.1 0 1.5 1.5 1.5 7.2 0 4.4-0.5 7.8-1.2 8.5-0.7 0.7-2.7 1.3-4.5 1.3-1.9 0-3.6-0.6-3.9-1.3-0.3-0.6 1-4.5 3-8.5zm-51.9 33.4c0.5-0.4 2.3-0.4 4 0 1.6 0.5 5.4 0.7 8.5 0.7 3-0.1 6.8-0.3 8.5-0.5 2.5-0.3 3 0.1 3.3 2.2 0.2 1.4 0.9 3.1 1.5 3.8 0.8 0.9 4.4 1.3 12.4 1.2 8.4 0 12.1 0.4 14.5 1.6 1.8 0.9 4.8 2.8 6.7 4.3 1.9 1.4 4.5 4.8 5.7 7.6 2 4.3 2.3 6.6 2.4 17 0 8.1-0.4 12.4-1.2 13.2-0.7 0.7-3.5 1.3-6.3 1.3-2.8 0-5.6-0.4-6.2-0.8-0.6-0.4-1.3-3.7-1.5-7.4-0.2-3.7-0.9-7.3-1.7-8-1.1-1.1-1.5-0.9-2.7 0.7-0.9 1.2-1.5 4.4-1.5 8.2 0.1 5.7-0.2 6.3-2.2 6.8-1.2 0.3-16.4 0.4-65.2 0l-0.8-8c-0.4-4.4-1-8.2-1.2-8.5-0.3-0.3-1.2-0.2-2 0.2-1.2 0.6-1.5 2.5-1.5 7.5 0 4-0.5 7.3-1.2 8-0.7 0.8-3.8 1.3-7.3 1.3-3.6 0-6.6-0.5-7.3-1.2-0.9-0.9-1.3-4.9-1.3-13.1 0-7.3 0.5-12.9 1.4-15 0.7-1.7 2.6-4.9 4.2-7 1.6-2.1 5.2-5 8-6.3 4.3-2.1 6.3-2.4 16-2.4 7.5 0 11.4-0.4 12.3-1.3 0.6-0.6 1.1-2.1 1-3.3-0.1-1.1 0.2-2.4 0.7-2.8zm-156.5-68.4c-0.8 0.7-1.4 2-1.2 3 0.1 1 0.9 2.2 1.9 2.7 1.1 0.6 2.4 0.6 3.5 0 1-0.5 1.8-1.7 1.8-2.7 0-0.9-0.6-2.3-1.3-3-0.7-0.7-1.7-1.2-2.3-1.2-0.6 0-1.7 0.5-2.4 1.2zm32 0.8c-0.6 1.1-0.7 2.7-0.3 3.5 0.4 0.9 1.4 1.8 2.3 2 0.8 0.3 2-0.1 2.7-0.7 0.8-0.7 1.3-2 1.3-2.8 0-0.8-0.6-2.1-1.3-2.8-0.7-0.7-1.8-1.2-2.5-1.2-0.6 0-1.7 0.9-2.2 2zm-26.8 31.2c-0.9 1-0.8 2 0.3 4 0.8 1.6 3.4 3.7 5.7 4.8 2.3 1.1 5.6 2 7.3 2 1.6 0 5-1 7.4-2.2 2.5-1.3 5.2-3.5 6-5 1.1-1.9 1.2-3.1 0.5-4-0.8-0.9-1.7-0.6-4 1.4-1.6 1.4-4 3.1-5.2 3.7-1.2 0.6-3.4 1.1-4.7 1.1-1.4 0-3.6-0.5-4.8-1.1-1.2-0.6-3.4-2.2-4.8-3.5-2-1.9-2.8-2.1-3.7-1.2zm-155.1 198.3c-0.6 0.8-1 2.3-0.9 3.2 0.2 1.3 1.2 1.8 3.3 1.8 2 0 3-0.5 3.2-1.8 0.1-0.9-0.3-2.4-1-3.2-0.7-0.9-1.8-1.6-2.4-1.5-0.6 0-1.6 0.7-2.2 1.5zm32.3-0.1c-1.6 1.2-1.7 1.8-0.8 3.3 0.6 1 1.8 1.9 2.7 2 0.9 0.2 2.3-0.3 3.2-1 0.8-0.6 1.5-1.5 1.5-2 0-0.4-0.7-1.4-1.5-2.2-0.9-0.8-1.9-1.5-2.3-1.5-0.4 0-1.7 0.6-2.8 1.4zm117.1 0.2c-1 0.8-1.7 1.8-1.7 2.2 0.1 0.4 0.8 1.3 1.6 1.9 0.9 0.7 2.3 1.2 3.2 1 0.9-0.1 2.1-1 2.7-2 0.9-1.5 0.8-2.1-0.8-3.3-1.1-0.8-2.4-1.4-2.7-1.4-0.4 0-1.4 0.7-2.3 1.6zm32.6-0.1c-0.6 0.8-1 2.3-0.9 3.2 0.2 1.1 1.2 1.8 2.7 1.8 1.3 0 2.8-0.8 3.4-1.7 0.9-1.2 0.8-2-0.3-3.3-0.9-0.9-2.1-1.6-2.7-1.5-0.6 0-1.6 0.7-2.2 1.5zm117.8 0c-1.1 1.3-1.2 2.1-0.3 3.3 0.6 0.9 2.1 1.7 3.5 1.7 2 0 2.4-0.5 2.4-3 0-2.3-0.5-3.1-2.1-3.3-1.2-0.2-2.8 0.4-3.5 1.3zm33.2-0.7c-0.7 0.4-1.1 1.8-1 3.2 0.3 1.9 0.9 2.5 2.7 2.5 1.4 0 2.9-0.8 3.5-1.7 0.9-1.2 0.8-2-0.3-3.3-0.9-0.9-2-1.6-2.5-1.5-0.6 0-1.6 0.4-2.4 0.8zm-328.6 32.2c-0.3 0.5-0.2 1.8 0.3 2.7 0.5 1 2.3 3 4 4.5 2.7 2.4 4 2.8 9.2 2.8 3.3 0 7.3-0.7 9-1.5 1.6-0.8 3.6-2.5 4.5-3.8 0.8-1.2 1.5-3 1.5-4 0-0.9-0.8-1.7-1.8-1.7-0.9 0-2.6 1.1-3.7 2.5-1.1 1.4-3.4 3-5 3.6-1.6 0.6-4.4 0.8-6.2 0.5-1.9-0.3-4.6-2-6.1-3.6-1.5-1.7-3.3-3-3.9-3-0.7 0-1.5 0.4-1.8 1zm149.9 0.5c-0.2 0.8 0.2 2.6 1.1 4 0.8 1.4 2.9 3.2 4.7 4.1 2.3 1.2 5.1 1.5 9.4 1.3 5.3-0.3 6.7-0.9 9.3-3.4 1.7-1.7 3.1-4 3.1-5.3 0-1.3-0.7-2.2-1.6-2.2-0.9 0-2.7 1.3-4 3-1.7 2-3.7 3.2-6.2 3.6-2.1 0.3-4.9 0.1-6.2-0.5-1.4-0.6-3.7-2.2-5-3.6-1.4-1.4-2.9-2.5-3.3-2.5-0.4 0-1 0.7-1.3 1.5zm150.5 0.2c0 1 0.7 2.8 1.5 4 0.9 1.3 2.9 3 4.6 3.8 1.6 0.8 5.2 1.5 8 1.5 2.7 0 6.3-0.7 8-1.5 1.6-0.8 3.6-2.5 4.5-3.8 0.8-1.2 1.5-3 1.5-4 0-0.9-0.6-1.7-1.3-1.7-0.7 0.1-2.7 1.4-4.5 3-1.8 1.7-4.7 3.3-6.5 3.6-2 0.4-4.4 0-6.2-0.9-1.7-0.8-3.9-2.5-5-3.6-1.1-1.2-2.6-2.2-3.3-2.1-0.7 0-1.3 0.8-1.3 1.7zm-304.4-262.6c-1 0.5-1.8 1.8-1.8 2.7 0.1 0.9 0.9 2.4 1.8 3.2 1.2 1.1 2 1.2 3.3 0.4 0.9-0.6 1.8-1.9 2-2.8 0.1-0.9-0.3-2.4-1-3.2-0.8-0.8-1.6-1.5-1.8-1.4-0.3 0-1.4 0.5-2.5 1.1zm32 0.5c-1 0.8-1.7 2-1.6 2.5 0 0.5 0.7 1.6 1.6 2.4 0.8 0.8 1.8 1.5 2.2 1.5 0.4 0 1.7-0.9 2.8-2l2-2c-3.1-3.2-4.4-4.1-4.7-4-0.4 0-1.4 0.7-2.3 1.6zm267.6-0.1c-0.6 0.8-1 2.2-0.9 3.1 0.1 0.9 1 2.2 1.9 2.8 1.3 0.8 2.1 0.7 3.3-0.4 0.9-0.8 1.6-2.3 1.6-3.3 0-0.9-0.9-2.2-2-2.7-1.1-0.6-2.2-1-2.4-1-0.2 0-0.9 0.7-1.5 1.5zm32.4 0.1c-1 0.8-1.7 2.2-1.6 3 0 0.8 1.1 1.9 2.3 2.5 1.9 0.9 2.6 0.7 4.3-1l2-2c-3.1-3.2-4.4-4.2-4.7-4.1-0.4 0-1.4 0.7-2.3 1.6zm-327 31.6c-0.4 0.7-0.5 2.3-0.2 3.5 0.4 1.3 2.6 3.4 4.9 4.8 2.4 1.4 5.9 2.5 8 2.5 2.1 0 5-0.5 6.5-1.1 1.5-0.6 4-2.2 5.5-3.7 1.5-1.5 2.8-3.5 2.8-4.5 0-0.9-0.5-1.9-1-2.2-0.6-0.3-2.8 1.1-5 3-3 2.6-5 3.5-7.5 3.5-2 0-4.6-0.5-5.8-1.1-1.2-0.6-3.4-2.3-4.8-3.6-2-1.9-2.7-2.2-3.4-1.1zm299.4 1.5c0 1 0.6 2.7 1.4 3.8 0.7 1.1 3 2.8 5 3.7 2 1 5.2 1.8 7.2 1.8 1.9 0 5.3-0.9 7.5-2 2.2-1.1 4.6-3.1 5.5-4.5 0.8-1.4 1.2-3 1-3.5-0.3-0.6-1-1-1.5-1-0.5 0-2.3 1.2-4.1 2.7-2.2 2-4.5 2.9-7.8 3.2-4.1 0.3-5.1 0-8.1-2.7-2-1.7-4.1-3.1-4.8-3.2-0.7 0-1.3 0.8-1.3 1.7z"/>
</svg>