<svg version="1.2" xmlns="http://www.w3.org/2000/svg" viewBox="0 0 500 500" width="500" height="500">
	<title>Path 0 copy 3</title>
	<style>
		.s0 { fill: #000000 } 
	</style>
	<path id="Path 0" fill-rule="evenodd" class="s0" d="m341.5 90c1 0 6.4 1.3 11.9 2.9 6.4 1.9 11 3.8 12.6 5.2q2.6 2.3 3.1 6c0.3 2.9-1.2 9.2-7.4 29.7-4.4 14.3-10.2 33.6-13 42.9-2.7 9.3-5.8 18.7-6.8 20.8-1 2.2-2.9 4.6-4.3 5.4-1.9 1.2-3.6 1.4-7.5 1-2.8-0.3-5.9-0.8-7.1-1.1-1.9-0.5-2.3 0.3-6.5 13.9-2.5 7.9-7.3 23.2-10.7 34-3.3 10.8-6.8 22.1-7.7 25.2-0.9 3-5.1 16.7-9.5 30.6-4.3 13.8-7.8 25.5-7.8 26 0 0.5 2 1.6 4.5 2.5 3.2 1.1 5.6 2.8 7.8 5.5 1.8 2.1 3.9 6.1 4.8 8.9 0.8 2.8 1.4 7.9 1.5 11.4 0 3.7-0.7 8.3-1.5 11-0.9 2.5-3.6 7.1-6.2 10.2-2.5 3.2-7.1 7.6-10.2 9.8-3.2 2.2-8.6 5.4-12.1 7.2-3.6 1.7-9.7 4.2-13.8 5.5-4 1.2-11.6 2.9-16.9 3.8-5.2 0.8-16.1 1.7-24.2 2-9.1 0.3-18.7 0.1-25.5-0.6-6.1-0.6-14.6-1.9-19-2.8-4.4-1-10.6-2.7-13.7-3.7-3.1-1.1-8.2-3.2-11.2-4.8-3-1.6-7.9-5.2-10.9-8-3.1-2.8-6.6-7.1-7.9-9.6-1.4-2.5-3-6.7-3.6-9.5-0.6-2.9-0.9-7-0.5-9.8 0.3-2.6 1.4-7 2.4-9.6 1-2.6 3.5-7 5.5-9.6 2-2.6 5.8-6.4 8.4-8.4 2.6-1.9 7.7-5 11.2-6.8 3.5-1.8 10.3-4.3 23.7-7.7l0.5-83.5c0.3-54.3 0.8-84.1 1.4-85.1 0.5-0.8 2.1-1.5 3.6-1.5 1.7 0 10.9 4.2 23.3 10.5 11.3 5.7 26.5 13.4 33.8 17.1 10.1 5.1 13.4 7.2 14 9 0.5 1.2 0.6 3.4 0.3 4.8-0.5 2.2-2.6 3.4-16.3 10.1-8.7 4.2-23.2 11.2-48.7 23.4v93.2l22.8 0.3c13.9 0.3 27 1 33.4 1.9 5.8 0.8 13 2.1 16 2.8 3 0.7 6 2 6.6 3 0.7 0.9 1.2 2.5 1.2 3.7-0.1 1.1-0.9 2.8-1.9 3.8-1.2 1.2-2.5 1.7-3.9 1.4-1.1-0.3-5.7-1.3-10.2-2.3-4.6-0.9-13.6-2.2-20.1-2.7-6.6-0.5-18.3-0.9-26.1-0.9-7.8 0-15.1 0.3-16.3 0.7-2 0.6-2.1 0.9-1.5 18.9l5.5 0.3c3 0.2 6.5 0.8 7.7 1.4 1.3 0.6 2.9 2.3 3.6 3.8 1 2.3 1 3.2 0 5.8-0.9 2.1-2.6 3.8-5.4 5.3-2.2 1.2-7 2.6-10.5 3.2-3.5 0.5-9.3 0.7-12.8 0.4-3.9-0.3-8-1.3-10.4-2.6-2.3-1.1-4.9-3.2-6-4.5-1.6-2.2-1.7-2.8-0.7-5.1 0.6-1.4 2.9-3.5 5-4.7 2.2-1.2 5.8-2.4 12.1-3.3l0.3-8.9c0.2-8.1 0-8.8-1.4-8.4-0.9 0.3-2.6 0.7-3.9 1-1.2 0.3-4.9 1.5-8.2 2.7-3.3 1.2-8 3.4-10.5 5-2.5 1.6-6.2 4.4-8.1 6.2-1.9 1.8-4.5 5.3-5.7 7.7-1.2 2.4-2.5 6.1-2.8 8.2-0.3 2.5 0 5.8 1.1 9.4 1.2 4.4 2.5 6.4 6.7 10.5 3.1 3.1 7.5 6.3 11.1 8 3.2 1.5 9.6 3.9 14.1 5.2 4.5 1.3 11.1 2.9 14.6 3.5 3.9 0.6 15.5 1.1 29.3 1.1 18.9 0 24.1-0.3 30.6-1.7 4.2-1 11.2-2.9 15.5-4.4 4.3-1.4 7.9-2.6 8-2.6 0.1 0 0.2-0.4 0.2-0.9 0-0.6-7.1-0.9-19.6-0.9-15.7 0-20.3-0.3-23.1-1.4-1.9-0.8-4.4-2.4-5.6-3.5-1.1-1.1-3-3.6-4-5.6-1.4-2.7-2-5.8-2.2-11.9-0.3-5.6 0-9 0.8-10.5 0.7-1.3 2.9-3.1 4.9-4.1 3.2-1.5 6.2-1.8 25.5-2.1 12.1-0.2 22.2-0.7 22.5-1 0.3-0.3 2.1-5.1 3.9-10.6 1.8-5.6 9.8-31.2 17.8-57.1 8-25.9 16.9-54.6 19.7-63.7 2.8-9.2 5.1-17.2 5.1-17.9 0-0.6-1.1-2.1-2.4-3.4-2.1-2-2.3-2.8-1.9-6.8 0.3-2.5 3.6-15.1 7.5-27.9 3.9-12.8 9.9-33 13.4-44.8 3.5-11.8 6.9-22.2 7.7-23.1 0.8-1 2.3-2.1 3.4-2.5 1.1-0.4 2.8-0.8 3.8-0.8zm-6 34.2c-1.9 6.5-6.8 23.1-10.9 36.8-4 13.7-7.3 25.6-7.3 26.5 0 1.1 1.6 2.2 5.2 3.7 2.9 1.1 6.3 2 7.6 1.8 1.7-0.2 2.5-1.1 3.3-3.9 0.6-2 5.7-18.9 11.3-37.5 5.7-18.6 10.9-36.1 11.7-38.8 0.9-3.2 1.1-5.5 0.6-6.3-0.5-0.7-3.3-2-6.3-2.9-3.1-1-6.2-1.8-7.1-1.8-1.1 0-2 1.5-3.1 5.3-0.8 2.9-3 10.6-5 17.1zm-150.6 88.2c23-10.9 34-16 39.2-18.4 5.3-2.5 9.7-4.8 9.8-5.1 0.2-0.4-10.5-6.3-23.7-13.1-13.2-6.8-24.2-12.5-24.6-12.6-0.3-0.2-0.6 10.8-0.6 24.4zm89 140.7c-0.9 2.3-2.2 4.7-2.9 5.5-1 1.1-5.6 1.4-26.1 1.8l-24.9 0.5c0.1 8.1 0.7 11 1.7 12.5 0.8 1.4 2.7 3 4 3.7 1.8 0.8 9.7 1.1 27.2 1.1 23.1 0 24.9-0.1 27.8-1.8 1.7-1 3.9-2.9 4.8-4.1 0.9-1.3 2.1-4.8 2.7-7.8 0.8-4.2 0.7-6.4-0.1-9.6-0.7-2.4-2.4-5.3-4.2-7.1-1.7-1.6-4-2.9-5-2.9-1 0-2.1 0.8-2.6 2-0.5 1.2-1.5 3.9-2.4 6.2zm73.6-45.1c2.7 0.3 6.8 1.1 9.1 1.9 2.3 0.8 5.8 2.7 7.9 4.3 2 1.5 4.8 4.1 6 5.6 1.3 1.5 3.4 5 4.7 7.7 1.2 2.8 2.6 7.3 2.9 10.1 0.4 2.9 0.2 7.3-0.5 10.5-0.6 3-2 7.1-3.2 9.1-1.1 2-4.1 5.5-6.5 7.8-2.5 2.3-6.3 5.1-8.6 6.2-2.2 1.1-6.7 2.4-10 2.9-3.3 0.4-8 0.5-10.5 0.1-2.5-0.4-7-2-9.9-3.4-3-1.5-7.2-4.6-9.4-7-2.2-2.4-4.9-6.3-6-8.6-1-2.4-2.2-6.4-2.6-8.9-0.4-2.6-0.3-7.1 0.2-10.1 0.5-3 1.8-7.5 3-10 1.2-2.6 4.2-6.5 6.6-8.8 2.4-2.3 6.2-5.1 8.5-6.3 2.3-1.2 6.2-2.4 8.7-2.8 2.5-0.4 6.8-0.5 9.6-0.3zm-17 15.5c-2 1.5-4.6 4.6-5.9 6.8-1.9 3.4-2.3 5.3-2.2 10.9 0 5.2 0.5 7.8 1.9 10.5 1.1 2 2.9 4.6 4.1 5.7 1.2 1.1 4.2 2.9 6.7 4 3.3 1.4 6.2 2 10.1 1.9 3.3-0.1 6.9-0.8 9.1-1.9 2-1 5.1-3.3 6.8-5.3 1.7-1.9 3.7-4.8 4.3-6.4 0.7-1.7 1.2-5.6 1.2-8.7 0-3.7-0.6-7-1.7-9.4-1-2-3.3-5-5.3-6.7-1.9-1.8-4.7-3.7-6.2-4.3-1.5-0.6-4.6-1.4-6.8-1.6-2.3-0.3-6.1-0.1-8.4 0.6-2.3 0.6-5.8 2.3-7.7 3.9z"/>
</svg>