<svg version="1.2" xmlns="http://www.w3.org/2000/svg" viewBox="0 0 1000 1000" width="1000" height="1000">
	<title>New Project</title>
	<style>
		.s0 { fill: #000000 } 
	</style>
	<path id="Path 0" fill-rule="evenodd" class="s0" d="m696.9 155c2.2-0.1 13.7 2.7 25.6 6.2 13.8 4 23.6 8.1 27.1 11.3 3.7 3.3 5.9 7.6 6.5 12.8 0.9 6.2-2.5 19.8-15.9 63.9-9.3 30.7-21.8 72.3-27.8 92.3-5.9 19.9-12.5 40.1-14.6 44.6-2.1 4.6-6.2 9.9-9.2 11.7-4.2 2.5-7.9 3-16.2 2-6-0.6-12.8-1.7-15.2-2.3-4.2-1-5 0.7-14.2 29.9-5.3 17-15.6 49.9-22.8 73.1-7.2 23.3-14.7 47.6-16.6 54-1.9 6.5-11.1 36.1-20.4 65.8-9.3 29.7-16.9 54.9-16.9 56 0 1.1 4.4 3.5 9.8 5.4 6.8 2.4 12 6 16.8 11.8 3.9 4.6 8.4 13.2 10.2 19.1 1.7 6 3.2 17 3.2 24.6 0 7.9-1.3 17.9-3.2 23.6-1.9 5.4-7.8 15.3-13.2 22.1-5.4 6.7-15.3 16.1-22.1 20.9-6.7 4.7-18.5 11.7-26 15.5-7.6 3.8-20.8 9.1-29.5 11.8-8.6 2.7-25 6.4-36.3 8.1-11.4 1.8-34.8 3.7-52.1 4.4-19.5 0.7-40.3 0.3-54.9-1.2-13-1.3-31.3-4.1-40.8-6.2-9.4-2.1-22.7-5.6-29.5-7.9-6.7-2.3-17.5-7-24-10.3-6.4-3.4-17-11.1-23.5-17.2-6.5-6.1-14.2-15.4-17-20.6-2.9-5.3-6.3-14.5-7.7-20.4-1.4-6.3-1.9-15.1-1.2-21.1 0.7-5.7 3.1-15 5.3-20.7 2.1-5.6 7.4-14.9 11.7-20.6 4.3-5.6 12.5-13.8 18.1-18 5.7-4.2 16.5-10.8 24.1-14.7 7.6-3.8 22.1-9.1 51.1-16.5l1-179.6c0.6-116.8 1.6-180.7 2.9-182.8 1.2-1.9 4.5-3.2 7.9-3.2 3.5 0 23.4 8.9 50 22.4 24.3 12.3 57 28.9 72.6 36.8 21.7 11 28.9 15.6 30.3 19.3 1 2.7 1.2 7.3 0.5 10.3-1.1 4.7-5.5 7.5-35.1 21.9-18.7 9-49.8 24-104.6 50.1v200.4l49.1 0.8c29.9 0.5 57.9 2.1 71.7 4 12.4 1.8 27.9 4.5 34.4 6 6.5 1.6 12.8 4.4 14.2 6.4 1.4 1.9 2.5 5.5 2.5 7.9 0 2.5-1.8 6.2-4 8.4-2.6 2.6-5.4 3.5-8.3 2.8-2.5-0.6-12.4-2.7-22.1-4.8-9.7-2.1-29.2-4.7-43.2-5.8-14.1-1.1-39.3-2-56-2-16.7 0-32.5 0.7-35 1.5-4.4 1.4-4.5 2-3.3 40.7l11.8 0.7c6.5 0.3 14 1.6 16.6 2.9 2.7 1.3 6.1 4.9 7.6 8.2 2.3 5 2.3 6.9 0 12.5-1.8 4.5-5.4 8.1-11.5 11.3-4.8 2.6-15 5.7-22.5 6.9-7.6 1.2-20 1.6-27.5 1-8.4-0.8-17.2-3-22.5-5.7-4.8-2.4-10.6-6.8-12.8-9.7-3.5-4.7-3.7-6.1-1.6-10.8 1.4-3.1 6.2-7.6 10.8-10.2 4.6-2.6 12.4-5.3 26.1-7.1l0.5-19.2c0.4-17.4 0.1-19-3-18-1.9 0.6-5.6 1.6-8.3 2.1-2.7 0.6-10.7 3.2-17.7 5.8-7 2.6-17.2 7.4-22.6 10.8-5.4 3.4-13.2 9.3-17.3 13.3-4.2 3.9-9.7 11.4-12.3 16.5-2.6 5.1-5.3 13.1-6 17.7-0.8 5.4 0 12.4 2.2 20.1 2.8 9.5 5.6 13.9 14.5 22.7 6.6 6.6 16.2 13.5 23.8 17.1 7 3.3 20.7 8.4 30.5 11.2 9.7 2.8 23.8 6.2 31.4 7.5 8.2 1.4 33.3 2.4 62.8 2.4 40.8 0 52-0.7 65.8-3.7 9.2-2 24.2-6.2 33.4-9.3 9.2-3.1 16.9-5.6 17.2-5.7 0.3 0 0.5-0.9 0.5-1.9 0-1.3-15.4-2-42.2-2-33.8 0-43.7-0.6-49.6-3.1-4.1-1.6-9.5-5-12-7.3-2.5-2.4-6.5-7.9-8.7-12.2-3.1-5.8-4.3-12.4-4.8-25.5-0.5-12 0.1-19.3 1.8-22.6 1.4-2.7 6.1-6.6 10.4-8.7 6.9-3.4 13.4-3.9 55-4.7 25.9-0.4 47.7-1.3 48.4-2 0.6-0.7 4.4-11 8.2-22.9 3.9-11.9 21.2-67.1 38.4-122.7 17.3-55.7 36.3-117.3 42.3-137 6-19.7 11-37 10.9-38.3 0-1.4-2.3-4.7-5.1-7.4-4.6-4.4-5-6-4.1-14.7 0.6-5.4 7.9-32.4 16.2-59.9 8.3-27.6 21.2-70.9 28.7-96.3 7.5-25.3 15-47.8 16.7-49.8 1.6-2 4.9-4.4 7.3-5.3 2.3-0.9 6-1.6 8.1-1.7zm-12.9 73.5c-4.2 14.1-14.7 49.6-23.4 79.1-8.6 29.4-15.7 55-15.8 56.9 0 2.4 3.4 4.9 11.3 8 6.3 2.5 13.5 4.3 16.2 4 3.7-0.5 5.4-2.5 7.1-8.5 1.3-4.3 12.3-40.6 24.4-80.5 12.1-40 23.4-77.6 25.1-83.5 1.9-6.8 2.4-11.8 1.2-13.5-0.9-1.4-7-4.3-13.5-6.3-6.5-2.1-13.3-3.7-15.2-3.8-2.5 0-4.3 3.1-6.6 11.3-1.7 6.2-6.6 22.8-10.8 36.8zm-323.9 189.6c49.5-23.3 73.1-34.3 84.5-39.6 11.3-5.2 20.8-10.2 21-11 0.3-0.8-22.7-13.4-51-28-28.3-14.6-52.1-26.8-52.8-27.2-0.7-0.3-1.3 23.3-1.5 52.6zm191.5 302.4c-1.9 4.9-4.7 10.2-6.2 11.8-2.3 2.4-12.1 3.1-56.2 3.9l-53.4 1c0.1 17.4 1.4 23.7 3.5 27 1.8 3 5.8 6.5 8.7 7.8 3.9 1.7 20.9 2.4 58.5 2.5 49.5 0 53.4-0.2 59.7-3.9 3.6-2.2 8.3-6.1 10.3-8.8 2-2.7 4.6-10.3 5.8-16.7 1.7-9 1.6-13.9-0.2-20.7-1.5-5.2-5.2-11.4-9.1-15.2-3.7-3.5-8.4-6.4-10.6-6.4-2.3 0-4.7 1.9-5.7 4.5-0.9 2.4-3.3 8.4-5.1 13.2zm158.1-96.9c6 0.5 14.8 2.3 19.7 4 4.8 1.7 12.4 5.8 16.9 9.2 4.4 3.4 10.3 8.8 13 12 2.8 3.3 7.3 10.8 10 16.7 2.7 6 5.5 15.7 6.3 21.6 0.7 6.3 0.3 15.8-1 22.6-1.3 6.5-4.4 15.3-6.9 19.6-2.5 4.4-8.8 11.9-14.1 16.8-5.2 4.9-13.5 10.9-18.3 13.3-4.9 2.4-14.6 5.2-21.6 6.2-7.1 1-17.2 1.1-22.6 0.2-5.4-0.9-15-4.1-21.4-7.2-6.4-3.2-15.3-9.8-20.1-15-4.7-5.1-10.5-13.5-12.8-18.7-2.3-5.1-4.8-13.7-5.7-19.1-0.8-5.4-0.6-15.1 0.4-21.6 1.1-6.5 4-16.2 6.5-21.6 2.6-5.4 8.9-13.9 14.1-18.8 5.2-5 13.5-11.1 18.3-13.6 4.9-2.5 13.3-5.2 18.7-6 5.4-0.8 14.7-1.1 20.6-0.6zm-36.5 33.3c-4.2 3.3-9.9 9.9-12.6 14.7-4 7.1-4.9 11.2-4.8 23.4 0 11.2 1 16.6 4.2 22.6 2.3 4.3 6.2 9.8 8.8 12.1 2.5 2.4 9 6.3 14.4 8.7 6.9 3 13.3 4.2 21.6 4 7.2-0.1 14.9-1.7 19.7-4 4.3-2.1 10.8-7.2 14.5-11.4 3.7-4.1 7.9-10.3 9.4-13.9 1.4-3.5 2.6-11.9 2.5-18.6 0-8-1.3-15-3.7-20.1-2.1-4.4-7.2-10.9-11.3-14.6-4.1-3.7-10.2-7.8-13.4-9.2-3.2-1.3-9.9-2.9-14.7-3.5-4.9-0.6-13 0-17.9 1.3-5 1.3-12.5 5.1-16.7 8.5z"/>
</svg>